<svg xmlns="http://www.w3.org/2000/svg" version="1.1" viewBox="0.00 0.00 1028.00 1028.00">
<g id="Parent-Group"><g fill="#fffafb" id="Group-000000">
<rect x="633.65" y="89.37" width="4.78" height="30.94" rx="2.34" />
<rect x="-2.22" y="-15.29" transform="translate(570.21,126.55) rotate(-26.1)" width="4.44" height="30.58" rx="2.09" />
<rect x="-2.17" y="-14.84" transform="translate(711.58,125.57) rotate(38.1)" width="4.34" height="29.68" rx="2.13" />
<path d="   M 612.68 328.54   Q 609.59 326.59 608.45 321.90   Q 608.28 321.21 608.68 320.62   Q 609.47 319.44 610.62 318.57   A 1.61 1.60 -39.9 0 0 610.84 316.21   C 609.19 314.39 607.48 313.37 608.61 310.50   C 609.34 308.66 611.87 308.33 613.59 308.08   Q 614.19 307.99 614.24 307.38   Q 615.08 297.68 613.29 288.27   C 610.41 273.13 599.73 264.37 589.14 254.40   C 585.11 250.60 581.45 245.91 578.75 240.92   Q 563.41 212.58 570.58 179.49   C 576.15 153.81 596.28 134.26 621.54 127.81   Q 643.94 122.09 667.85 130.46   C 691.17 138.62 708.93 161.74 712.13 185.63   C 713.17 193.41 713.67 201.30 712.82 209.27   Q 710.55 230.33 698.39 247.12   C 694.01 253.18 685.37 260.55 679.04 267.32   C 672.79 274.01 669.46 280.88 668.29 289.86   Q 667.14 298.66 667.63 307.37   A 0.75 0.74 -87.6 0 0 668.26 308.06   C 670.26 308.34 672.54 308.45 673.41 310.68   A 1.76 1.76 0.0 0 1 671.94 313.07   Q 669.70 313.28 668.08 314.57   Q 666.53 315.81 668.50 316.01   C 670.77 316.24 674.81 316.05 675.48 318.92   A 1.76 1.76 0.0 0 1 674.35 320.98   Q 671.10 322.12 667.87 323.01   Q 667.08 323.23 666.96 324.05   A 0.90 0.90 0.0 0 0 667.42 324.97   L 675.03 329.11   A 1.09 1.09 0.0 0 1 675.57 330.34   C 674.92 333.03 670.62 333.67 668.33 334.44   A 1.35 1.35 0.0 0 0 667.45 335.41   Q 667.17 336.66 668.20 337.28   Q 671.38 339.21 673.57 342.02   A 1.39 1.38 51.0 0 1 673.37 343.94   C 671.55 345.46 668.85 345.36 666.61 345.38   A 1.32 1.32 0.0 0 0 665.59 347.52   Q 666.76 348.99 668.07 350.39   C 669.51 351.94 669.02 354.09 666.98 354.73   Q 663.87 355.70 660.14 355.50   A 0.92 0.92 0.0 0 0 659.26 356.04   L 654.08 367.53   A 3.15 3.15 0.0 0 1 651.22 369.39   L 643.53 369.41   A 0.94 0.94 0.0 0 0 642.60 370.44   C 643.98 384.78 646.20 395.85 662.09 400.12   C 674.74 403.52 680.91 419.66 675.07 430.96   C 673.28 434.42 670.33 437.86 669.76 441.67   C 668.16 452.36 673.50 458.21 682.69 461.88   Q 684.32 462.52 683.51 464.07   L 683.15 464.76   A 1.64 1.62 21.1 0 1 681.29 465.57   Q 668.41 462.15 665.90 449.96   C 664.28 442.14 666.44 436.39 670.63 430.14   C 673.51 425.84 673.28 420.47 671.89 415.59   Q 669.86 408.41 663.37 405.37   C 659.65 403.62 655.67 402.77 652.11 400.67   C 641.58 394.46 638.97 381.99 638.43 370.26   A 0.93 0.92 -1.6 0 0 637.49 369.38   L 628.71 369.57   A 1.42 1.41 -13.2 0 1 627.42 368.78   L 620.99 355.50   A 1.54 1.53 67.8 0 0 619.11 354.71   C 615.75 355.86 612.59 355.63 610.20 352.65   C 606.51 348.05 608.63 344.70 612.11 340.98   Q 613.01 340.02 611.92 339.29   C 607.50 336.32 609.64 332.01 612.74 329.38   Q 613.28 328.92 612.68 328.54   Z   M 608.19 219.48   L 608.33 218.17   Q 608.47 216.79 609.85 216.85   Q 610.91 216.89 611.83 216.57   Q 612.32 216.40 612.36 215.88   L 612.54 213.78   Q 612.60 213.14 613.18 212.89   Q 614.52 212.30 615.83 213.07   Q 616.38 213.38 616.55 213.99   Q 616.91 215.29 617.63 216.32   A 1.12 1.11 -17.0 0 0 618.55 216.80   L 663.29 216.88   A 1.36 1.35 -89.8 0 0 664.65 215.52   Q 664.65 213.98 665.95 213.03   A 1.77 1.77 0.0 0 1 668.67 213.94   Q 669.36 216.16 671.43 217.33   C 672.46 217.92 673.08 219.26 672.44 220.32   Q 672.12 220.85 671.50 220.84   L 669.05 220.81   Q 667.67 220.79 667.39 222.14   C 663.47 240.92 659.16 258.73 655.96 277.18   Q 653.54 291.16 654.68 306.89   Q 654.77 308.16 656.05 308.19   L 662.21 308.34   A 1.33 1.32 -1.4 0 0 663.56 306.93   C 662.56 293.10 664.25 279.43 672.51 268.27   C 678.09 260.72 686.51 254.56 692.54 247.33   Q 707.45 229.43 708.78 205.14   C 710.06 181.81 703.77 161.88 685.88 146.15   C 674.37 136.03 662.15 132.03 646.96 130.09   C 644.65 129.80 642.52 130.17 640.20 129.91   Q 637.79 129.64 635.28 129.85   C 603.80 132.42 578.88 154.15 573.63 185.39   Q 569.02 212.76 581.32 236.55   Q 586.12 245.83 592.02 251.21   Q 596.62 255.42 601.12 259.70   C 611.29 269.37 618.07 281.51 618.38 295.71   Q 618.50 301.58 618.44 307.31   Q 618.43 307.96 619.08 308.03   Q 622.96 308.46 627.10 308.08   Q 627.74 308.02 627.84 307.38   C 628.98 300.05 628.00 292.55 627.00 285.22   Q 626.24 279.65 624.88 272.95   Q 621.04 253.91 617.02 234.17   C 616.20 230.17 614.95 226.22 614.07 222.28   A 1.69 1.69 0.0 0 0 612.54 220.96   L 609.25 220.73   Q 608.07 220.65 608.19 219.48   Z   M 626.90 260.96   C 630.28 277.02 632.87 291.38 632.42 307.29   Q 632.40 307.98 633.09 308.04   Q 640.96 308.71 648.73 308.02   A 0.69 0.69 0.0 0 0 649.36 307.32   C 649.18 296.32 650.02 285.93 652.14 274.90   Q 657.21 248.61 663.30 221.88   A 0.88 0.88 0.0 0 0 662.43 220.80   L 619.22 220.86   A 1.00 0.99 83.5 0 0 618.26 222.08   Q 622.28 239.01 626.90 260.96   Z   M 615.90 312.60   A 0.53 0.53 0.0 0 0 615.37 312.07   A 0.53 0.53 0.0 0 0 614.84 312.60   A 0.53 0.53 0.0 0 0 615.37 313.13   A 0.53 0.53 0.0 0 0 615.90 312.60   Z   M 612.5553 348.9627   A 1.00 0.65 129.4 0 0 613.6923 348.6026   A 1.00 0.65 129.4 0 0 613.8247 347.4173   A 1.00 0.65 129.4 0 0 612.6877 347.7774   A 1.00 0.65 129.4 0 0 612.5553 348.9627   Z" />
<path d="   M 373.54 136.26   A 0.83 0.83 0.0 0 1 374.37 135.43   L 374.83 135.43   A 2.89 2.67 90.0 0 1 377.50 138.32   L 377.50 155.66   A 2.89 2.67 90.0 0 1 374.83 158.55   L 374.37 158.55   A 0.83 0.83 0.0 0 1 373.54 157.72   L 373.54 136.26   Z" />
<rect x="-2.16" y="-16.00" transform="translate(308.42,161.36) rotate(-44.9)" width="4.32" height="32.00" rx="1.92" />
<rect x="-2.21" y="-15.25" transform="translate(440.79,161.73) rotate(43.3)" width="4.42" height="30.50" rx="2.17" />
<path d="   M 345.76 339.53   Q 343.88 338.64 342.65 337.12   A 1.12 1.11 -62.1 0 1 342.40 336.29   Q 342.83 332.16 346.14 329.60   Q 346.60 329.24 346.13 328.90   C 345.35 328.34 344.24 327.77 343.72 326.98   Q 340.39 321.93 344.71 318.31   Q 345.39 317.74 344.72 317.15   C 342.36 315.10 341.19 313.31 342.44 310.13   Q 343.39 307.70 346.25 308.14   A 0.83 0.83 0.0 0 0 347.21 307.38   C 348.43 291.23 343.92 278.06 337.01 263.08   C 331.12 250.33 326.37 239.32 323.59 225.15   Q 321.67 215.39 322.77 207.87   C 324.82 193.96 331.30 181.59 343.17 173.65   C 373.48 153.40 415.52 165.24 425.76 201.66   C 429.28 214.18 426.81 229.54 421.82 241.96   Q 416.76 254.57 411.56 266.68   C 405.83 280.01 402.67 293.02 403.70 307.52   A 0.57 0.56 -0.5 0 0 404.25 308.05   Q 407.87 308.16 407.72 312.15   A 0.99 0.99 0.0 0 1 406.83 313.10   Q 404.24 313.35 402.51 315.01   A 0.59 0.58 -64.9 0 0 402.87 316.02   L 408.00 316.39   A 1.09 1.06 68.5 0 1 408.66 316.69   Q 410.27 318.33 409.44 320.60   Q 409.19 321.25 408.51 321.41   Q 405.61 322.06 402.72 323.10   Q 400.36 323.94 402.47 325.30   C 404.91 326.88 408.98 327.64 409.71 330.80   Q 409.83 331.30 409.44 331.63   C 407.55 333.23 404.96 333.73 402.57 334.35   Q 401.91 334.52 402.04 335.18   C 402.34 336.65 402.76 338.19 404.39 338.70   Q 406.49 339.37 407.34 341.00   C 408.70 343.61 406.70 345.64 404.04 345.38   Q 402.27 345.20 400.46 345.41   A 1.35 1.35 0.0 0 0 399.56 347.59   C 401.10 349.55 404.86 352.49 400.65 354.71   Q 398.42 355.89 395.81 355.30   A 2.09 2.08 19.6 0 0 393.48 356.40   Q 390.82 361.72 387.94 367.65   C 387.31 368.95 386.12 369.74 384.68 369.84   A 0.92 0.92 0.0 0 0 384.04 371.35   C 391.70 380.41 397.24 392.33 396.27 404.25   C 395.85 409.53 395.43 415.01 396.30 420.24   C 397.55 427.73 397.87 434.55 396.64 441.01   Q 395.50 447.03 394.46 453.10   Q 391.92 468.03 396.44 481.57   Q 397.07 483.47 395.42 484.60   Q 394.83 485.01 393.92 484.78   A 1.52 1.50 -2.5 0 1 392.88 483.84   C 389.72 475.17 387.59 465.70 389.32 456.85   Q 391.40 446.15 393.16 436.12   Q 394.05 431.07 392.82 424.90   C 391.72 419.34 391.44 413.86 392.09 408.24   C 393.78 393.64 386.88 380.82 377.53 370.09   A 1.73 1.71 61.5 0 0 375.76 369.56   C 371.98 370.63 363.21 372.05 361.15 367.96   Q 358.11 361.93 354.99 355.62   A 2.08 2.07 -21.6 0 0 352.53 354.56   C 349.39 355.52 346.00 356.27 343.62 353.33   C 340.08 348.94 342.15 343.56 345.87 340.30   Q 346.40 339.84 345.76 339.53   Z   M 399.06 307.38   C 398.59 306.11 398.96 304.27 399.17 302.91   Q 399.44 301.11 399.42 299.13   C 399.33 288.76 402.62 277.92 406.61 267.53   Q 409.98 258.77 414.54 248.58   C 419.32 237.91 423.34 225.98 423.28 215.27   Q 423.18 195.14 408.65 180.89   C 397.84 170.28 383.06 167.16 367.63 168.87   Q 349.04 170.92 335.41 187.34   C 330.00 193.86 326.38 204.87 326.59 213.45   Q 326.97 229.07 333.49 244.40   Q 338.33 255.75 343.63 267.64   Q 348.51 278.57 350.76 290.53   C 351.77 295.89 351.39 301.91 351.47 307.41   A 0.66 0.65 -87.5 0 0 352.05 308.05   Q 358.18 308.68 364.64 307.95   A 0.83 0.83 0.0 0 0 365.38 307.11   Q 365.21 284.93 365.82 264.09   C 365.90 261.41 366.55 259.13 367.39 256.69   A 1.49 1.48 25.6 0 0 366.77 254.95   Q 356.77 248.67 357.19 235.53   C 357.55 224.32 371.74 223.90 372.54 234.80   Q 373.05 241.64 372.41 248.78   C 372.29 250.10 372.66 252.23 374.26 252.56   C 376.22 252.97 380.16 252.94 379.44 249.65   Q 377.82 242.14 378.71 233.80   C 379.66 224.89 391.78 224.45 393.41 233.32   C 394.77 240.70 392.91 250.99 385.40 253.99   A 1.78 1.78 0.0 0 0 384.43 256.35   C 385.80 259.49 386.52 262.96 386.49 266.39   Q 386.37 282.71 386.51 298.16   Q 386.55 302.12 387.65 307.36   Q 387.77 307.94 388.36 308.00   Q 393.51 308.53 398.66 308.03   Q 399.28 307.97 399.06 307.38   Z   M 367.69 250.77   A 0.46 0.46 0.0 0 0 368.45 250.42   L 368.34 235.17   Q 368.32 232.53 366.02 231.23   Q 365.42 230.90 364.84 231.02   Q 361.58 231.73 361.46 234.72   Q 361.04 244.84 367.69 250.77   Z   M 387.48 231.29   C 379.33 230.69 383.44 244.35 383.65 249.19   A 0.85 0.85 0.0 0 0 385.13 249.72   C 388.99 245.45 391.38 237.42 388.38 231.86   A 1.11 1.10 -12.3 0 0 387.48 231.29   Z   M 379.37 256.29   C 376.93 257.07 374.90 256.74 372.47 257.03   Q 371.81 257.11 371.60 257.74   Q 370.95 259.71 370.29 261.74   C 369.19 265.05 370.36 269.53 370.39 273.04   Q 370.55 289.96 370.31 307.07   A 0.90 0.89 3.9 0 0 371.10 307.97   Q 376.43 308.59 381.78 308.06   A 0.60 0.59 87.4 0 0 382.32 307.46   Q 382.42 288.33 382.35 267.96   Q 382.33 262.14 380.21 256.69   Q 379.98 256.10 379.37 256.29   Z   M 346.6236 349.3389   A 0.91 0.64 60.1 0 0 346.7248 348.2310   A 0.91 0.64 60.1 0 0 345.7164 347.7611   A 0.91 0.64 60.1 0 0 345.6152 348.8690   A 0.91 0.64 60.1 0 0 346.6236 349.3389   Z" />
<rect x="526.05" y="194.81" width="30.14" height="3.90" rx="1.18" />
<rect x="-15.03" y="-2.21" transform="translate(738.90,197.39) rotate(-1.3)" width="30.06" height="4.42" rx="2.16" />
<rect x="453.80" y="212.81" width="30.12" height="4.00" rx="0.97" />
<rect x="271.05" y="213.94" width="30.72" height="4.86" rx="2.39" />
<rect x="-15.93" y="-2.21" transform="translate(552.16,258.28) rotate(-31.0)" width="31.86" height="4.42" rx="2.18" />
<path d="   M 745.55 267.95   A 0.88 0.88 0.0 0 1 744.37 268.35   L 720.49 256.45   A 3.74 1.91 26.5 0 1 718.00 253.07   L 718.17 252.73   A 3.74 1.91 26.5 0 1 722.37 252.69   L 746.25 264.59   A 0.88 0.88 0.0 0 1 746.64 265.77   L 745.55 267.95   Z" />
<rect x="-15.66" y="-2.17" transform="translate(298.50,271.89) rotate(-40.5)" width="31.32" height="4.34" rx="2.08" />
<rect x="-15.56" y="-2.20" transform="translate(452.74,275.29) rotate(39.1)" width="31.12" height="4.40" rx="1.54" />
<path d="   M 485.39 395.23   Q 486.40 395.10 485.53 394.58   C 482.51 392.73 472.19 384.86 477.12 380.57   C 483.50 375.01 500.40 381.46 507.37 384.38   C 526.37 392.36 544.14 401.94 562.58 410.21   Q 564.92 411.26 563.84 408.94   Q 563.34 407.87 562.74 406.68   C 556.46 394.24 565.29 384.30 578.28 390.02   C 596.80 398.18 602.21 421.95 601.53 439.98   A 0.64 0.63 -13.1 0 0 602.47 440.56   Q 606.32 438.48 610.31 437.88   C 620.11 436.39 628.43 444.24 630.80 453.20   C 634.64 467.70 630.16 481.83 625.47 495.67   Q 622.85 503.42 619.87 511.48   A 0.72 0.71 -68.8 0 0 620.26 512.38   Q 622.44 513.28 623.94 515.04   C 630.38 522.60 632.86 532.02 628.57 541.11   Q 617.33 564.98 590.68 569.65   Q 590.13 569.74 589.84 570.23   C 583.00 581.83 575.04 594.40 563.96 602.95   C 562.02 604.45 563.09 607.97 563.10 610.03   Q 563.13 624.07 563.10 638.01   C 563.09 639.33 562.80 640.43 562.42 641.67   Q 562.19 642.40 562.96 642.38   C 574.20 642.05 584.48 644.70 594.60 649.58   C 641.17 672.02 666.85 719.00 666.70 770.31   A 0.41 0.40 68.7 0 0 667.38 770.61   Q 668.85 769.23 670.61 768.26   Q 679.07 763.57 688.71 758.97   A 1.90 1.89 84.6 0 0 689.74 757.72   Q 692.19 747.88 695.32 737.94   Q 704.25 709.58 723.50 684.98   C 739.83 664.12 761.63 649.79 787.56 641.87   A 1.89 1.88 84.8 0 0 788.88 640.28   Q 789.35 636.08 789.00 631.47   A 1.09 1.08 2.4 0 0 788.08 630.48   Q 779.87 629.26 771.95 627.15   C 741.37 619.02 718.58 593.41 718.61 561.26   C 718.62 548.16 719.50 534.26 719.82 521.61   Q 720.52 494.22 721.88 468.26   C 722.16 462.97 721.71 457.70 722.85 452.55   A 1.79 1.78 -67.5 0 0 722.07 450.66   C 711.64 444.01 705.10 430.48 703.84 418.78   C 702.12 402.85 704.86 386.61 715.19 374.45   C 734.90 351.23 767.86 355.47 788.90 374.49   C 790.97 376.35 796.15 374.67 798.76 374.55   C 817.84 373.69 835.95 378.11 849.68 392.26   A 0.89 0.88 -55.7 0 0 851.13 391.98   Q 856.26 379.63 867.66 375.97   C 879.33 372.24 890.60 380.00 897.62 389.08   C 907.52 401.87 907.86 421.35 894.96 432.70   A 0.82 0.82 0.0 0 0 895.28 434.10   Q 898.54 435.00 901.82 436.92   C 922.78 449.18 929.90 472.92 925.56 495.80   C 923.92 504.43 919.83 512.53 914.05 519.13   A 1.26 1.25 -35.7 0 0 913.83 520.44   Q 918.67 532.26 913.04 544.98   C 907.42 557.69 895.60 564.18 882.42 567.76   Q 881.87 567.91 881.75 568.47   C 881.40 570.08 881.16 571.54 880.49 573.08   C 874.86 586.05 866.03 597.52 855.58 606.62   Q 854.45 607.60 854.42 609.10   Q 854.04 626.20 854.32 643.59   A 0.63 0.62 -81.4 0 0 854.74 644.17   Q 887.84 655.84 912.28 681.79   C 928.28 698.77 938.84 720.39 943.94 743.37   Q 949.41 768.07 952.13 796.78   C 952.96 805.44 953.85 814.05 953.65 822.85   A 1.28 1.28 0.0 0 0 954.93 824.17   L 976.02 824.25   Q 977.80 824.25 979.57 824.46   Q 987.21 825.37 985.64 827.64   Q 984.92 828.67 983.66 828.65   Q 978.35 828.53 972.75 828.49   Q 883.61 827.98 793.76 828.26   C 786.79 828.29 779.34 829.23 772.26 829.19   Q 753.46 829.08 734.87 829.25   C 730.27 829.29 725.59 829.99 721.06 831.10   Q 686.82 839.51 655.41 846.05   Q 651.85 846.79 650.17 843.64   Q 647.31 838.27 644.93 831.97   C 643.95 829.37 642.11 828.17 639.29 828.17   Q 453.66 828.18 268.48 828.18   C 256.27 828.18 244.53 828.96 232.68 829.19   Q 222.06 829.40 208.09 828.55   Q 203.72 828.28 199.00 828.56   C 194.97 828.79 190.94 829.21 186.93 828.97   C 180.36 828.58 174.07 828.20 167.33 828.19   Q 135.49 828.16 107.84 828.24   Q 104.47 828.25 101.19 828.49   C 98.13 828.70 95.13 828.28 92.09 828.27   Q 72.26 828.22 50.28 828.14   A 1.24 1.24 0.0 0 1 49.05 826.86   L 49.07 826.29   Q 49.11 825.07 50.32 824.86   Q 53.52 824.31 56.43 824.26   Q 76.84 823.96 97.23 824.49   Q 97.97 824.51 97.85 823.78   C 97.66 822.64 97.61 821.73 97.67 820.58   C 98.97 793.65 101.14 766.73 108.09 740.58   Q 115.94 711.03 133.21 687.20   C 139.10 679.08 146.21 672.29 153.32 665.25   A 0.30 0.30 0.0 0 0 153.12 664.74   C 148.01 664.49 143.09 663.77 137.86 663.65   Q 120.48 663.25 103.17 661.55   A 0.67 0.67 0.0 0 1 102.57 660.79   Q 117.04 562.42 131.68 465.62   Q 133.15 455.89 135.55 446.75   C 138.72 434.72 145.51 422.69 153.30 412.44   C 175.72 382.90 211.92 374.36 247.48 375.45   C 284.52 376.58 315.06 396.39 329.03 430.95   Q 332.63 439.86 334.15 448.14   Q 335.35 454.68 335.54 466.30   Q 335.85 484.70 336.62 503.35   A 4.31 4.31 0.0 0 0 337.49 505.76   Q 339.38 508.26 340.63 510.74   Q 348.42 526.09 338.04 539.12   Q 337.73 539.51 337.67 540.00   Q 337.20 543.66 337.39 547.06   Q 338.34 564.97 338.36 580.95   C 338.38 603.90 339.63 627.23 340.24 649.43   Q 340.30 651.49 340.03 653.44   Q 339.95 654.02 339.39 654.18   Q 338.22 654.52 337.00 654.52   Q 315.47 654.56 294.15 654.55   Q 292.18 654.55 293.84 655.62   Q 310.93 666.58 323.26 683.73   Q 355.91 729.16 362.53 785.16   C 363.89 796.73 363.64 808.84 363.14 820.67   Q 363.08 822.00 362.67 823.40   A 0.60 0.60 0.0 0 0 363.23 824.17   Q 373.37 824.42 383.99 824.33   C 384.67 824.32 385.35 824.71 386.04 824.67   A 0.74 0.73 -9.7 0 0 386.71 823.73   Q 378.87 797.26 381.18 769.82   C 384.15 734.57 397.08 702.05 422.01 676.56   Q 444.10 653.96 470.92 644.58   Q 483.30 640.25 497.30 641.99   Q 497.98 642.07 497.98 641.39   L 497.97 629.66   A 1.78 1.77 -87.9 0 0 496.33 627.89   C 455.14 624.75 422.69 595.84 424.84 552.58   Q 426.49 519.44 427.69 489.77   C 427.99 482.23 428.64 474.36 428.64 466.64   Q 428.64 464.96 427.03 464.47   C 425.50 464.00 424.11 463.58 422.86 462.53   C 414.08 455.17 414.12 444.03 418.05 434.09   C 427.09 411.24 450.24 399.08 473.90 396.53   Q 479.76 395.90 485.39 395.23   Z   M 268.07 443.83   C 249.18 465.31 222.67 480.13 195.28 487.28   Q 193.66 487.70 192.50 488.78   A 0.48 0.47 30.5 0 0 192.71 489.59   Q 195.37 490.23 197.79 489.55   Q 229.48 480.73 254.21 461.07   C 268.58 449.66 280.52 435.56 285.78 418.17   C 286.28 416.51 286.42 414.38 285.91 412.72   Q 285.34 410.85 284.70 412.70   C 282.58 418.86 280.61 425.46 277.35 431.07   Q 273.55 437.60 268.07 443.83   Z   M 294.27 478.32   Q 303.28 476.70 312.35 476.78   Q 313.62 476.80 312.73 475.89   Q 297.19 460.07 289.92 437.70   Q 289.60 436.71 289.14 437.65   Q 282.89 450.55 272.74 460.74   C 266.18 467.34 258.21 474.24 249.99 478.90   Q 248.30 479.86 250.24 479.91   C 254.18 480.00 257.49 478.56 261.59 478.74   Q 262.71 478.79 263.02 479.87   Q 263.77 482.45 261.21 482.98   Q 257.50 483.75 253.64 483.84   C 249.21 483.95 245.26 485.05 240.95 485.76   Q 238.43 486.18 235.95 487.59   Q 225.52 493.56 213.80 498.59   A 1.57 1.55 78.7 0 0 212.86 500.01   Q 212.84 502.51 211.93 505.09   A 0.45 0.44 -71.4 0 0 212.20 505.65   Q 222.09 509.01 232.23 510.71   A 1.01 1.00 16.3 0 0 233.32 510.12   C 242.77 488.16 272.80 487.61 283.16 509.10   A 1.49 1.48 64.9 0 0 285.10 509.81   C 286.58 509.16 288.35 508.80 289.89 509.35   Q 290.64 509.62 291.38 509.68   Q 291.91 509.72 292.20 509.28   C 299.76 498.09 310.22 493.03 323.61 496.53   A 0.49 0.49 0.0 0 0 324.22 496.09   C 324.37 493.39 325.06 486.23 322.93 484.14   C 321.36 482.60 318.74 480.44 316.40 480.59   Q 307.71 481.15 299.38 481.74   Q 297.01 481.91 294.88 481.60   Q 293.21 481.35 293.15 479.69   A 1.35 1.34 -5.9 0 1 294.27 478.32   Z   M 872.36 522.74   Q 871.02 522.49 869.69 522.35   Q 860.92 521.44 852.39 520.95   A 1.34 1.33 -86.4 0 1 851.13 519.51   Q 852.83 496.93 854.59 474.96   Q 854.76 472.79 855.25 470.48   Q 855.54 469.07 854.16 468.68   Q 848.85 467.20 843.13 468.70   A 2.23 2.23 0.0 0 1 840.36 466.88   Q 840.04 464.82 840.85 462.46   Q 842.43 457.86 843.86 453.53   Q 844.08 452.87 843.38 452.85   C 825.75 452.32 807.99 451.70 790.42 451.71   Q 759.91 451.72 728.29 451.75   Q 725.77 451.76 725.81 454.45   Q 726.03 468.46 725.23 480.19   C 724.68 488.29 724.90 496.68 724.45 504.95   C 723.69 519.11 723.51 533.17 722.89 547.55   Q 722.47 557.49 722.99 566.33   Q 723.61 576.90 729.33 588.38   C 740.90 611.61 764.41 623.79 789.71 626.09   C 808.02 627.76 825.02 622.77 841.08 613.50   Q 843.18 612.29 845.79 612.13   A 1.21 1.20 64.9 0 1 846.69 612.46   C 847.74 613.46 847.24 614.80 846.17 615.51   Q 836.74 621.77 828.43 624.70   Q 821.98 626.96 812.37 629.69   Q 806.90 631.24 797.98 636.07   C 796.53 636.85 794.89 637.31 793.38 637.94   Q 792.82 638.17 792.67 638.76   C 792.11 640.98 791.48 643.07 793.15 645.12   Q 799.77 653.27 805.43 659.87   Q 805.76 660.25 806.25 660.30   Q 807.87 660.45 809.10 659.87   Q 828.25 650.87 849.10 642.60   A 1.97 1.96 -10.7 0 0 850.34 640.79   Q 850.42 627.53 850.33 614.13   C 850.32 611.99 849.96 609.99 848.70 608.21   A 0.69 0.68 -40.1 0 1 848.78 607.33   C 855.73 600.65 862.92 593.75 868.27 585.91   Q 873.51 578.22 877.30 569.09   A 0.68 0.67 11.5 0 0 876.68 568.16   L 874.60 568.13   A 1.07 1.07 0.0 0 1 873.76 567.72   Q 873.23 567.02 873.42 566.05   Q 873.69 564.70 875.05 564.48   C 884.51 562.98 893.50 560.17 900.66 554.03   Q 912.99 543.46 911.57 528.58   C 910.58 518.21 901.80 508.08 890.80 508.79   Q 884.46 509.19 879.99 513.38   C 877.42 515.80 875.62 519.22 873.64 522.20   Q 873.18 522.89 872.36 522.74   Z   M 582.75 568.17   Q 583.24 566.45 584.31 565.69   Q 584.66 565.43 585.10 565.41   Q 609.62 564.29 621.89 544.42   C 627.94 534.62 628.48 523.51 618.75 515.95   C 611.32 510.18 602.20 512.91 595.95 518.79   Q 587.92 526.34 581.29 537.66   Q 578.80 541.93 574.12 542.65   C 568.55 543.51 566.03 536.27 566.26 532.01   Q 567.58 508.18 569.17 484.97   A 0.94 0.94 0.0 0 0 568.02 483.99   C 559.34 485.95 547.48 487.25 542.88 478.46   C 541.00 474.87 543.12 470.84 545.48 467.88   Q 546.07 467.13 545.15 467.38   C 540.58 468.61 535.96 470.23 531.63 472.27   Q 521.81 476.88 511.15 481.61   C 502.90 485.28 493.04 489.10 484.65 485.43   C 476.35 481.79 473.73 472.93 478.28 465.18   C 479.46 463.18 481.46 461.74 483.10 460.12   Q 484.43 458.81 482.59 459.16   C 466.15 462.32 450.20 465.35 433.22 465.89   A 0.50 0.49 -0.0 0 0 432.74 466.36   Q 432.51 474.36 431.92 482.25   C 431.45 488.48 431.86 494.59 431.36 500.81   C 430.16 515.95 430.00 531.53 429.17 546.09   Q 428.43 559.21 429.53 566.61   C 433.54 593.52 453.13 612.96 478.89 620.38   Q 511.58 629.79 541.41 613.05   Q 545.33 610.85 549.07 608.51   C 550.08 607.88 551.25 608.40 551.77 609.40   A 1.96 1.95 -36.3 0 1 551.41 611.72   C 546.34 616.71 537.96 620.27 531.49 622.58   Q 525.88 624.57 521.32 626.46   Q 513.47 629.72 503.05 637.41   Q 501.95 638.22 501.94 639.47   Q 501.91 646.64 501.86 654.36   Q 501.85 656.19 500.11 655.60   L 499.83 655.51   A 2.66 2.66 0.0 0 1 498.04 653.29   L 497.60 649.38   Q 497.48 648.36 496.98 649.25   Q 494.83 653.04 497.01 656.88   C 500.78 663.50 509.42 667.67 516.43 669.21   C 530.55 672.32 554.90 671.95 564.39 658.66   Q 567.76 653.95 564.22 648.41   Q 563.36 647.06 563.42 648.66   Q 563.60 654.22 561.21 658.07   A 1.11 1.11 0.0 0 1 559.24 657.90   Q 558.30 655.58 558.28 653.04   Q 558.05 630.97 558.23 609.02   C 558.24 607.70 557.80 606.60 556.70 605.83   A 1.59 1.59 0.0 0 1 556.64 603.26   Q 573.04 590.74 583.80 571.92   Q 584.90 570.00 583.03 568.88   Q 582.62 568.64 582.75 568.17   Z   M 281.42 520.31   A 23.19 23.19 0.0 0 0 258.23 497.12   A 23.19 23.19 0.0 0 0 235.04 520.31   A 23.19 23.19 0.0 0 0 258.23 543.50   A 23.19 23.19 0.0 0 0 281.42 520.31   Z   M 232.01 562.33   Q 231.02 562.48 231.02 561.47   Q 231.12 547.73 230.93 532.99   C 230.92 531.94 231.35 531.17 232.26 530.66   A 0.89 0.88 -19.1 0 0 232.70 529.76   L 230.79 517.07   A 1.73 1.72 -86.9 0 0 229.53 515.66   Q 204.34 508.82 182.03 503.91   Q 181.11 503.71 180.19 504.00   A 0.42 0.41 49.8 0 0 180.13 504.77   Q 183.59 506.55 187.78 507.69   Q 195.74 509.87 203.79 511.51   Q 204.91 511.73 205.93 512.24   Q 207.44 512.99 206.84 514.56   Q 202.18 526.93 191.33 533.77   Q 189.30 535.04 188.57 532.76   Q 185.02 521.67 177.81 510.35   C 173.29 503.24 169.13 497.32 159.70 497.75   C 150.24 498.17 145.10 506.86 146.38 515.88   C 148.71 532.39 162.51 551.06 180.96 550.33   A 1.45 1.44 84.1 0 1 182.44 551.54   Q 183.25 556.35 183.58 561.36   C 184.47 575.06 191.30 588.17 200.88 597.97   Q 204.08 601.24 207.46 604.46   A 1.12 1.11 36.9 0 1 207.66 605.83   Q 206.75 607.40 204.38 607.32   Q 202.66 607.27 202.73 608.99   C 203.39 624.46 201.39 640.79 198.99 656.03   A 2.25 2.25 0.0 0 0 200.40 658.49   Q 226.25 668.63 254.02 660.84   C 257.27 659.93 259.37 658.32 259.94 654.95   Q 260.77 650.07 261.94 645.73   C 262.99 641.88 259.21 638.77 256.35 636.54   Q 251.33 632.62 246.66 629.85   C 235.98 623.53 223.54 621.15 213.14 614.11   Q 211.26 612.83 209.94 610.78   Q 209.62 610.27 210.04 609.85   Q 211.89 608.01 214.08 609.42   C 223.24 615.35 233.17 619.75 244.33 621.41   Q 274.39 625.89 298.26 609.56   C 312.46 599.85 324.45 583.37 326.06 566.28   Q 326.77 558.84 326.24 548.47   Q 326.16 546.82 324.53 547.09   L 322.93 547.36   Q 321.29 547.64 321.34 549.30   Q 321.56 556.44 320.99 562.53   Q 320.91 563.39 320.05 563.34   Q 319.91 563.33 319.79 563.29   Q 318.53 562.89 318.49 561.57   L 318.13 549.05   A 1.02 1.01 87.3 0 0 317.05 548.06   L 316.52 548.09   A 1.21 1.21 0.0 0 0 315.39 549.26   L 315.07 561.24   A 1.98 1.97 75.9 0 1 314.08 562.90   L 313.63 563.16   Q 312.39 563.87 312.37 562.43   L 312.18 549.33   A 1.27 1.27 0.0 0 0 311.39 548.17   L 302.99 544.74   Q 302.35 544.48 302.08 545.10   Q 298.54 553.18 293.84 560.01   Q 292.84 561.47 291.10 561.10   Q 290.72 561.02 290.47 560.73   Q 289.07 559.10 290.15 557.24   Q 293.36 551.70 296.55 546.29   C 297.55 544.61 297.54 542.63 295.86 541.37   Q 290.02 537.02 285.19 531.53   A 1.39 1.39 0.0 0 0 282.95 531.74   C 278.01 540.04 271.42 545.91 261.88 547.02   C 250.49 548.35 241.11 543.38 234.96 533.47   A 0.47 0.47 0.0 0 0 234.10 533.61   Q 233.89 534.49 233.89 535.41   Q 233.95 548.53 233.82 561.18   A 1.04 1.03 -3.9 0 1 232.93 562.19   L 232.01 562.33   Z   M 321.00 530.74   L 321.44 543.24   Q 321.48 544.37 322.58 544.11   L 324.85 543.58   Q 326.15 543.27 326.20 541.93   Q 326.60 529.00 325.75 517.91   Q 325.22 510.96 325.33 505.11   Q 325.34 504.62 325.74 504.34   L 326.55 503.77   A 1.30 1.29 45.7 0 0 326.57 501.67   Q 324.83 500.39 322.27 499.81   C 311.54 497.38 299.75 502.11 295.44 512.12   C 289.36 526.27 296.56 540.12 311.10 544.12   A 0.91 0.91 0.0 0 0 312.26 543.25   L 312.35 531.72   Q 312.35 530.75 313.27 530.45   Q 313.57 530.35 313.89 530.36   A 1.21 1.20 -89.5 0 1 315.04 531.54   L 315.32 544.17   A 1.16 1.16 0.0 0 0 316.62 545.30   Q 316.77 545.28 316.92 545.28   A 1.30 1.29 -89.5 0 0 318.20 544.01   L 318.45 531.22   Q 318.47 530.14 319.54 529.97   L 319.99 529.90   Q 320.97 529.75 321.00 530.74   Z   M 337.00 512.38   L 337.56 532.61   A 0.16 0.16 0.0 0 0 337.73 532.77   L 337.83 532.77   A 10.02 2.44 88.4 0 0 339.99 522.68   L 339.97 522.16   A 10.02 2.44 88.4 0 0 337.25 512.21   L 337.15 512.22   A 0.16 0.16 0.0 0 0 337.00 512.38   Z   M 288.72 515.22   L 286.57 516.20   Q 285.46 516.70 285.29 517.92   Q 284.77 521.56 285.13 525.20   A 4.50 4.48 -78.4 0 0 287.43 528.70   L 290.44 530.37   Q 292.35 531.43 291.45 529.43   C 289.59 525.35 290.03 520.48 290.08 516.10   Q 290.09 514.60 288.72 515.22   Z   M 801.82 662.73   L 789.60 647.35   A 2.47 2.47 0.0 0 0 786.78 646.58   L 772.55 652.05   Q 772.21 652.18 772.31 652.53   Q 776.42 667.32 779.26 684.06   Q 779.94 688.04 781.14 691.84   Q 781.33 692.42 781.69 691.93   L 801.85 663.90   A 0.97 0.96 43.9 0 0 801.82 662.73   Z   M 853.52 648.44   C 852.40 648.03 851.83 647.22 850.84 646.83   Q 850.34 646.62 849.84 646.85   Q 829.45 656.06 809.53 664.06   A 0.93 0.92 -26.7 0 0 809.08 665.40   L 827.10 695.11   A 1.26 1.26 0.0 0 0 829.02 695.39   Q 850.56 676.12 873.12 657.88   A 0.68 0.68 0.0 0 0 872.99 656.74   Q 863.04 651.88 853.52 648.44   Z   M 168.59 778.69   A 0.60 0.60 0.0 0 1 168.05 777.99   L 175.12 734.45   Q 175.48 732.27 177.62 732.80   L 177.90 732.87   Q 179.64 733.30 179.35 735.07   L 172.89 774.47   A 0.27 0.26 8.0 0 0 173.13 774.78   Q 184.03 775.95 194.72 776.59   C 199.66 776.89 205.26 775.80 210.50 776.76   Q 217.39 778.03 224.61 779.42   C 226.24 779.73 228.12 779.78 229.73 779.38   Q 236.23 777.76 243.13 778.18   Q 244.95 778.29 246.68 777.47   C 257.91 772.16 268.81 767.99 281.07 766.78   A 1.34 1.33 -5.2 0 0 282.27 765.34   Q 280.74 745.68 277.23 727.90   A 3.05 3.03 44.7 0 1 277.22 726.78   Q 277.73 723.64 279.13 723.82   Q 280.51 724.00 280.81 725.36   Q 283.82 738.80 285.38 753.32   A 1.61 1.59 -1.4 0 0 286.90 754.75   C 302.88 755.46 320.60 758.35 335.57 761.69   A 2.00 2.00 0.0 0 1 336.87 762.64   Q 337.63 763.97 337.03 764.71   Q 335.75 766.26 333.95 765.86   Q 311.31 760.76 287.14 758.98   Q 286.12 758.91 286.11 759.93   L 286.04 764.75   A 1.04 1.04 0.0 0 0 287.07 765.80   C 312.66 766.15 336.97 771.95 351.68 794.02   Q 352.72 795.58 351.38 796.90   L 350.88 797.40   Q 349.86 798.40 348.98 797.27   Q 343.78 790.56 338.42 785.80   C 325.51 774.36 308.28 770.65 290.59 770.31   C 275.44 770.01 258.11 775.94 244.54 784.13   A 0.96 0.95 62.1 0 0 244.17 785.34   Q 252.73 804.29 246.54 823.24   Q 246.24 824.18 247.22 824.18   L 356.98 824.19   A 1.62 1.61 -82.5 0 0 358.54 822.99   Q 358.92 821.60 359.04 820.17   Q 360.74 799.88 357.73 780.02   C 352.12 743.02 337.18 705.73 312.52 677.58   C 300.12 663.43 286.73 653.82 268.48 650.44   A 1.13 1.12 -80.1 0 0 267.16 651.38   C 266.31 656.97 264.62 661.56 258.82 663.61   C 238.53 670.76 218.18 669.82 198.13 662.41   C 194.17 660.95 192.40 656.34 191.66 652.45   A 2.40 2.40 0.0 0 0 188.78 650.56   C 174.05 653.86 163.43 661.50 152.43 672.11   C 128.82 694.85 115.07 724.24 108.70 756.23   Q 102.11 789.33 102.30 822.85   A 1.46 1.46 0.0 0 0 103.77 824.30   Q 137.07 823.96 171.10 824.44   C 173.08 824.47 175.01 824.13 176.95 824.61   Q 178.65 825.02 178.21 823.32   L 177.73 821.51   Q 177.32 819.95 175.78 819.47   Q 171.77 818.24 171.61 813.57   Q 171.59 812.96 171.10 812.59   Q 170.83 812.40 170.51 812.36   C 168.55 812.13 166.85 809.87 166.21 808.09   Q 165.34 805.67 163.41 804.27   Q 158.25 800.52 160.63 795.07   C 163.22 789.14 167.59 787.18 173.62 784.68   Q 178.61 782.62 183.60 781.04   Q 186.25 780.20 183.48 779.96   L 168.59 778.69   Z   M 791.67 801.87   L 796.03 811.24   A 1.85 1.85 0.0 0 1 794.91 813.79   Q 787.75 816.07 779.96 817.71   Q 765.06 820.87 751.63 824.19   Q 751.45 824.23 751.36 824.41   Q 751.28 824.55 751.46 824.72   Q 751.60 824.86 751.80 824.88   Q 753.67 825.00 755.48 824.57   C 756.62 824.30 757.32 824.63 758.39 824.70   C 768.70 825.44 779.87 824.35 790.42 824.30   Q 830.89 824.10 872.94 824.22   A 0.28 0.28 0.0 0 0 873.22 823.95   Q 874.10 799.29 872.03 779.26   Q 869.98 759.48 863.43 724.16   Q 863.19 722.85 863.48 721.58   A 1.26 1.25 10.8 0 1 864.90 720.62   Q 866.55 720.89 867.04 722.51   Q 867.93 725.45 868.47 728.27   Q 871.75 745.27 874.55 764.99   Q 876.77 780.64 877.15 792.00   Q 877.65 807.04 877.29 824.33   Q 877.27 825.22 878.00 824.71   C 878.53 824.33 879.29 824.18 879.94 824.18   Q 913.76 824.17 947.62 824.31   A 1.87 1.81 -34.6 0 1 948.22 824.41   L 949.18 824.73   A 0.43 0.43 0.0 0 0 949.75 824.32   Q 949.70 814.62 948.89 805.08   Q 946.40 775.68 940.79 748.19   Q 929.31 691.96 881.11 661.72   C 879.58 660.77 878.38 659.66 876.56 661.07   C 861.22 672.90 844.49 687.93 828.61 701.35   A 1.91 1.90 51.0 0 1 825.87 701.06   Q 824.73 699.58 823.79 698.04   Q 816.05 685.39 807.69 671.46   Q 806.63 669.69 805.05 668.01   A 0.72 0.71 -52.1 0 0 803.90 668.16   Q 803.04 669.74 802.08 671.07   Q 791.48 685.82 781.24 700.12   A 1.78 1.77 -56.0 0 1 778.85 700.59   Q 777.89 699.99 777.71 698.90   Q 774.18 677.65 768.72 655.21   A 0.89 0.88 69.5 0 0 767.46 654.63   C 736.37 670.47 715.96 697.46 702.81 729.74   C 699.39 738.13 697.24 746.82 694.45 755.30   A 0.90 0.90 0.0 0 0 695.65 756.41   C 706.32 752.07 717.20 748.59 728.35 745.94   Q 741.67 742.78 754.23 739.43   A 2.31 2.31 0.0 0 0 755.95 737.22   L 756.03 730.96   A 2.19 2.19 0.0 0 1 759.43 729.16   C 761.37 730.44 760.21 734.75 759.84 736.70   A 0.92 0.92 0.0 0 0 761.17 737.68   C 764.80 735.79 767.11 738.07 768.28 741.55   Q 769.12 744.07 771.60 743.98   A 2.08 2.06 80.6 0 1 773.66 745.47   Q 775.01 750.09 777.68 753.95   C 778.51 755.16 779.39 756.97 779.73 758.40   Q 780.21 760.35 778.28 760.93   Q 769.82 763.47 760.53 765.52   Q 758.94 765.87 758.94 767.49   L 758.91 780.96   A 1.53 1.52 10.2 0 0 759.91 782.39   Q 771.01 786.54 783.63 791.93   C 787.05 793.39 788.20 796.56 788.15 800.09   Q 788.14 800.91 788.95 801.00   L 790.75 801.21   Q 791.39 801.28 791.67 801.87   Z   M 479.74 675.39   Q 475.69 670.16 473.65 661.63   Q 473.30 660.17 472.00 659.58   Q 471.79 659.49 471.58 659.57   A 1.25 1.24 -11.7 0 0 470.77 660.79   Q 471.14 668.85 476.64 676.36   C 492.25 697.67 524.46 700.23 548.42 696.49   C 565.28 693.85 586.07 683.63 589.76 665.40   Q 589.88 664.82 589.67 664.31   Q 589.36 663.55 588.49 663.67   A 1.53 1.52 8.5 0 0 587.30 664.55   C 585.89 667.70 584.82 671.09 582.76 673.87   Q 574.46 685.09 562.67 689.28   Q 533.09 699.80 503.42 691.04   Q 488.44 686.61 479.74 675.39   Z   M 462.34 758.77   C 441.16 759.66 421.09 764.40 403.93 777.23   A 2.75 2.67 -7.9 0 0 403.07 778.33   Q 402.18 780.46 403.75 780.72   A 1.12 1.10 -57.6 0 0 404.56 780.53   Q 415.42 772.83 424.44 769.29   C 436.42 764.59 452.03 761.78 466.78 761.31   C 484.65 760.73 502.19 760.20 520.21 758.80   Q 532.46 757.84 543.80 757.62   Q 545.26 757.59 546.56 757.85   C 549.39 758.41 552.62 758.24 555.52 758.13   A 1.51 1.50 -1.9 0 1 557.08 759.58   Q 557.60 774.38 559.28 791.37   C 559.39 792.48 559.19 793.59 558.24 794.28   Q 545.99 803.16 531.69 809.52   Q 513.76 817.50 497.82 824.01   Q 496.64 824.49 497.79 825.03   Q 498.12 825.17 498.48 825.13   Q 503.85 824.54 508.73 822.70   C 526.48 815.99 543.19 808.48 559.62 797.61   C 561.96 796.06 562.83 794.37 562.22 791.60   A 1.09 1.09 0.0 0 1 563.15 790.29   Q 568.81 789.58 574.45 788.93   Q 579.15 788.38 583.01 790.71   Q 600.60 801.34 618.93 811.45   Q 621.15 812.67 623.52 811.59   Q 624.03 811.36 624.16 810.75   Q 624.81 807.86 622.26 806.34   L 612.07 800.29   Q 610.50 799.36 611.46 797.81   L 611.78 797.30   Q 613.00 795.33 615.05 796.41   Q 621.59 799.83 629.74 802.84   A 3.31 3.31 0.0 0 0 633.40 801.89   L 633.82 801.40   Q 635.84 799.04 633.01 797.78   L 620.26 792.11   Q 618.41 791.28 619.55 789.61   L 619.89 789.11   Q 620.91 787.61 622.60 788.30   C 627.26 790.19 633.20 792.90 638.31 793.19   Q 638.87 793.22 639.12 792.71   Q 639.84 791.24 640.06 789.53   Q 640.14 788.96 639.64 788.68   Q 634.77 785.93 625.31 783.04   A 2.22 2.18 -11.1 0 1 624.29 782.37   Q 622.96 780.79 623.54 779.71   Q 624.76 777.43 627.18 778.35   Q 634.89 781.25 640.94 782.65   Q 643.31 783.20 644.42 781.03   Q 644.64 780.60 644.61 780.13   Q 644.45 777.07 641.51 776.21   Q 627.35 772.12 614.02 765.61   C 612.56 764.90 611.30 763.75 610.53 762.31   A 1.24 1.24 0.0 0 1 611.15 760.58   Q 612.48 760.03 613.93 760.11   Q 619.52 760.43 625.17 760.62   C 628.55 760.74 634.35 759.83 633.31 755.12   A 2.51 2.51 0.0 0 0 630.91 753.14   Q 619.01 752.91 606.78 752.10   C 599.22 751.60 591.67 754.79 584.98 757.94   Q 581.81 759.43 578.64 759.73   Q 570.13 760.53 561.15 759.73   A 1.08 1.07 5.3 0 1 560.17 758.56   C 560.35 756.67 559.60 755.43 557.59 755.17   C 548.09 753.99 538.56 754.52 528.26 755.23   Q 495.99 757.47 466.14 758.11   Q 465.55 758.12 465.53 757.53   C 465.19 745.70 465.89 734.62 468.32 723.15   Q 468.60 721.81 467.49 721.00   Q 466.78 720.47 465.60 721.91   Q 464.93 722.73 464.72 723.75   Q 461.35 739.90 462.09 756.05   A 1.70 1.61 -61.9 0 0 462.28 756.74   L 462.87 757.85   Q 463.34 758.73 462.34 758.77   Z   M 766.47 747.65   L 763.33 742.83   A 1.06 1.04 -22.3 0 0 762.23 742.38   Q 744.06 746.21 724.70 751.32   C 709.66 755.29 695.26 760.26 683.27 769.15   C 671.32 778.01 661.12 788.84 657.95 803.40   C 657.17 806.97 657.48 810.60 656.79 814.19   Q 656.65 814.95 657.21 814.43   Q 657.92 813.77 658.06 812.90   C 660.64 797.40 670.57 786.39 683.66 777.04   C 694.14 769.55 708.38 764.16 721.88 760.77   Q 743.40 755.38 765.60 750.12   Q 766.87 749.82 768.24 749.64   Q 769.58 749.46 768.66 748.46   Q 768.15 747.92 767.46 748.06   A 0.96 0.95 67.2 0 1 766.47 747.65   Z   M 664.46 810.15   C 669.99 798.34 679.27 789.97 690.64 783.25   Q 704.32 775.16 719.31 771.22   Q 742.70 765.08 772.53 758.42   A 1.30 1.29 75.6 0 0 773.49 756.79   C 772.87 754.69 771.45 753.66 769.18 754.10   C 753.44 757.14 738.00 761.20 722.29 765.18   C 699.94 770.83 679.26 780.77 666.81 800.73   Q 663.98 805.28 663.64 809.93   Q 663.47 812.26 664.46 810.15   Z   M 674.48 802.27   A 0.60 0.59 38.4 0 0 674.55 802.82   Q 674.77 803.13 675.13 803.04   Q 714.27 793.40 753.32 783.74   A 1.10 1.07 89.3 0 0 754.12 782.90   Q 755.68 775.28 754.82 767.56   A 0.36 0.36 0.0 0 0 754.39 767.25   Q 737.48 770.80 719.82 775.64   C 703.17 780.21 688.08 788.47 675.62 800.57   Q 674.86 801.30 674.48 802.27   Z   M 655.55 829.73   A 2.04 2.04 0.0 0 1 653.18 828.03   C 650.10 808.42 653.92 790.41 667.88 776.12   Q 669.15 774.82 667.54 775.66   C 658.59 780.35 649.50 792.00 646.84 801.65   C 643.87 812.45 645.01 824.41 651.14 834.10   A 0.42 0.41 -23.1 0 0 651.60 834.28   C 666.80 830.23 681.86 827.09 697.00 823.50   Q 742.46 812.72 784.81 802.80   Q 785.46 802.64 785.09 802.09   L 783.01 798.97   Q 782.62 798.39 781.94 798.55   Q 723.58 812.43 668.28 825.28   C 663.83 826.32 659.99 828.95 655.55 829.73   Z   M 199.54 811.89   A 1.53 1.50 89.4 0 1 198.61 812.86   L 183.69 818.13   Q 180.81 819.15 182.05 821.95   Q 182.13 822.14 182.28 822.28   Q 184.57 824.57 187.49 823.53   C 195.58 820.65 205.27 817.85 213.76 818.13   C 222.89 818.42 233.49 819.83 243.10 818.95   A 0.91 0.91 0.0 0 0 243.91 818.23   Q 247.12 803.22 241.42 789.76   C 240.36 787.24 238.21 785.77 235.42 786.04   Q 231.71 786.39 228.33 785.33   Q 216.82 781.70 204.90 780.60   Q 200.55 780.20 196.24 781.45   Q 182.26 785.49 170.75 790.80   C 167.80 792.16 164.14 795.27 164.60 798.96   A 1.49 1.49 0.0 0 0 167.04 799.92   C 172.45 795.35 179.97 793.16 187.27 790.94   Q 189.10 790.39 189.70 792.20   L 189.91 792.83   Q 190.43 794.39 188.87 794.91   Q 180.51 797.73 173.16 801.39   Q 170.78 802.57 170.67 805.23   L 170.62 806.49   Q 170.51 809.18 172.84 807.84   Q 182.21 802.47 191.54 800.18   A 2.86 2.85 -25.0 0 1 194.53 801.26   Q 195.09 802.03 194.00 803.38   A 1.67 1.60 8.0 0 1 193.29 803.89   Q 185.79 806.68 177.97 810.54   A 2.51 2.50 -14.2 0 0 176.57 812.88   L 176.65 815.03   Q 176.70 816.56 178.10 815.93   Q 186.92 811.89 196.26 809.24   Q 198.21 808.69 199.42 810.31   Q 199.86 810.91 199.54 811.89   Z   M 778.44 794.76   Q 779.02 794.62 778.46 794.41   Q 769.86 791.16 761.25 787.69   Q 759.42 786.95 758.00 787.27   C 728.97 793.80 699.99 801.49 671.73 808.45   Q 670.25 808.82 669.53 810.17   C 668.12 812.77 665.14 817.44 665.59 820.35   Q 665.68 820.95 666.28 820.86   Q 671.39 820.13 675.97 819.09   Q 726.81 807.58 778.44 794.76   Z   M 755.70 818.70   Q 771.67 814.90 789.01 811.03   Q 790.76 810.64 790.01 809.02   L 789.53 807.98   Q 788.77 806.35 787.01 806.76   Q 734.49 819.14 676.77 832.53   Q 664.30 835.42 653.05 838.51   Q 651.84 838.84 652.63 839.82   L 653.58 840.98   A 2.24 2.23 -25.8 0 0 655.80 841.75   Q 703.68 831.07 755.70 818.70   Z   M 217.0300 823.6562   A 2.17 1.68 -0.1 0 0 214.8571 821.9800   A 2.17 1.68 -0.1 0 0 212.6900 823.6638   A 2.17 1.68 -0.1 0 0 214.8629 825.3400   A 2.17 1.68 -0.1 0 0 217.0300 823.6562   Z   M 221.78 823.30   L 221.74 824.70   A 0.43 0.43 0.0 0 0 222.16 825.15   L 223.26 825.18   A 7.81 0.91 1.8 0 0 231.09 824.52   L 231.10 824.08   A 7.81 0.91 1.8 0 0 223.33 822.92   L 222.23 822.89   A 0.43 0.43 0.0 0 0 221.78 823.30   Z   M 206.96 824.64   L 206.89 823.48   A 0.26 0.26 0.0 0 0 206.61 823.24   L 204.79 823.35   A 5.83 0.73 -3.5 0 0 199.01 824.43   L 199.02 824.65   A 5.83 0.73 -3.5 0 0 204.89 825.02   L 206.71 824.91   A 0.26 0.26 0.0 0 0 206.96 824.64   Z   M 239.97 824.23   A 1.60 0.88 0.0 0 0 238.37 823.35   A 1.60 0.88 0.0 0 0 236.77 824.23   A 1.60 0.88 0.0 0 0 238.37 825.11   A 1.60 0.88 0.0 0 0 239.97 824.23   Z" />
<path d="   M 742.17 495.99   C 738.69 494.41 733.49 494.86 729.64 494.78   Q 729.06 494.76 729.06 494.18   L 729.07 491.78   Q 729.07 491.12 729.72 490.97   C 736.39 489.48 744.35 490.46 749.07 495.40   C 749.91 496.29 749.88 497.63 748.98 498.47   A 1.38 1.38 0.0 0 1 747.36 498.66   Q 744.71 497.14 742.17 495.99   Z" />
<path d="   M 805.13 497.13   C 798.83 495.20 794.18 496.27 788.26 497.99   A 2.00 1.98 62.3 0 1 786.14 497.32   Q 785.03 495.93 786.48 495.01   Q 798.25 487.49 809.62 494.82   A 1.56 1.55 31.7 0 1 810.12 496.91   C 809.14 498.58 806.55 497.57 805.13 497.13   Z" />
<path d="   M 454.91 501.06   C 449.85 497.19 444.23 495.92 438.00 495.79   Q 436.03 495.75 435.94 493.75   A 1.43 1.43 0.0 0 1 437.19 492.26   Q 449.16 490.71 457.56 497.54   Q 459.35 498.99 457.70 500.61   L 457.40 500.91   Q 456.22 502.06 454.91 501.06   Z" />
<path d="   M 750.24 546.56   A 2.48 2.46 -42.3 0 0 750.11 549.13   L 755.24 558.53   Q 756.10 560.10 754.66 561.16   L 753.84 561.76   Q 752.35 562.87 751.49 561.22   Q 748.60 555.70 745.71 550.03   C 744.39 547.43 745.46 544.96 747.39 542.71   Q 750.93 538.59 754.19 534.87   C 756.05 532.75 757.15 530.14 756.72 527.26   Q 755.99 522.37 755.85 517.08   Q 755.66 509.90 754.08 500.68   Q 753.74 498.68 755.63 497.94   Q 756.00 497.80 756.39 497.82   Q 758.65 497.98 758.82 500.23   Q 759.90 514.62 761.08 530.00   C 761.39 534.10 758.24 537.37 755.50 540.14   Q 752.60 543.07 750.24 546.56   Z" />
<path d="   M 505.40 506.23   A 2.34 2.31 36.4 0 1 503.53 506.50   Q 502.16 506.12 501.95 505.20   Q 501.58 503.55 503.00 502.65   Q 514.30 495.52 526.37 502.58   Q 528.35 503.74 527.76 505.75   Q 527.48 506.72 525.52 506.77   A 2.39 2.36 60.7 0 1 524.14 506.37   Q 514.93 500.23 505.40 506.23   Z" />
<path d="   M 178.37 533.13   A 1.38 1.38 0.0 0 1 176.39 533.79   Q 174.35 532.56 172.89 530.61   Q 165.46 520.69 158.96 507.72   Q 158.29 506.39 159.66 505.83   L 160.95 505.30   Q 162.32 504.73 163.04 506.02   Q 169.84 518.14 177.80 529.73   C 178.50 530.75 178.86 531.92 178.37 533.13   Z" />
<path d="   M 156.84 509.78   C 161.44 520.16 168.32 535.42 180.41 538.48   A 1.68 1.67 -67.0 0 1 181.42 540.99   C 180.14 543.08 175.37 541.60 173.57 540.66   C 166.79 537.14 163.08 531.66 159.23 525.19   Q 155.24 518.49 152.99 511.79   Q 152.35 509.88 154.19 509.07   L 154.55 508.90   Q 156.14 508.20 156.84 509.78   Z" />
<ellipse cx="0.00" cy="0.00" transform="translate(254.04,519.63) rotate(91.6)" rx="7.67" ry="6.67" />
<rect x="-6.48" y="-7.51" transform="translate(308.68,519.62) rotate(-2.1)" width="12.96" height="15.02" rx="5.96" />
<ellipse cx="0.00" cy="0.00" transform="translate(443.99,522.58) rotate(91.0)" rx="7.65" ry="6.56" />
<ellipse cx="0.00" cy="0.00" transform="translate(737.79,522.98) rotate(92.7)" rx="7.28" ry="5.99" />
<ellipse cx="0.00" cy="0.00" transform="translate(794.58,523.36) rotate(89.8)" rx="7.52" ry="5.80" />
<path d="   M 892.14 521.86   Q 889.83 522.55 888.56 524.48   Q 884.13 531.22 879.62 537.34   Q 878.85 538.39 877.63 537.96   Q 876.49 537.57 876.69 535.11   A 2.37 2.18 63.3 0 1 876.93 534.27   Q 881.33 525.75 886.80 519.30   C 890.66 514.75 896.22 517.65 898.64 521.77   A 1.60 1.55 -58.2 0 1 898.84 522.68   Q 898.67 524.33 898.05 525.86   C 895.19 532.91 891.07 539.06 885.19 543.41   C 883.34 544.78 879.73 546.97 877.67 545.83   A 1.64 1.64 0.0 0 1 877.49 543.08   C 883.88 538.28 892.97 531.65 893.53 522.96   A 1.08 1.08 0.0 0 0 892.14 521.86   Z" />
<path d="   M 464.35 554.40   L 469.94 561.30   A 2.10 2.03 19.1 0 1 470.31 562.03   Q 470.84 564.10 469.95 564.72   Q 468.17 565.97 466.65 564.41   Q 462.32 559.95 459.95 554.58   Q 459.03 552.51 460.62 550.88   Q 464.45 546.96 468.40 543.04   Q 470.23 541.21 470.59 538.75   Q 471.82 530.20 473.66 520.53   A 2.05 2.05 0.0 0 1 475.79 518.87   L 476.50 518.91   Q 478.15 519.01 477.88 520.64   Q 476.16 530.88 474.42 541.31   C 473.52 546.73 468.25 549.41 464.50 552.68   A 1.25 1.25 0.0 0 0 464.35 554.40   Z" />
<ellipse cx="0.00" cy="0.00" transform="translate(508.70,527.11) rotate(101.8)" rx="7.41" ry="6.48" />
<path d="   M 610.35 525.60   A 0.60 0.60 0.0 0 0 609.58 525.01   C 608.09 525.48 606.62 526.35 605.53 527.46   Q 600.50 532.59 595.24 536.97   C 593.93 538.06 592.04 537.84 591.31 536.24   A 1.36 1.35 -38.7 0 1 591.47 534.85   C 594.77 530.57 604.83 518.82 610.37 521.20   C 624.32 527.20 599.81 544.46 595.18 547.13   Q 593.10 548.33 590.85 547.93   Q 590.23 547.82 589.84 547.28   Q 588.57 545.55 590.48 544.57   C 598.45 540.50 605.89 534.43 610.00 526.91   Q 610.33 526.30 610.35 525.60   Z" />
<path d="   M 899.59 527.26   Q 899.51 525.24 899.62 523.32   A 0.62 0.61 -70.9 0 1 900.58 522.85   C 909.83 529.27 898.95 543.97 893.26 548.43   C 888.18 552.42 882.25 555.45 875.75 555.22   A 1.49 1.49 0.0 0 1 874.31 553.66   C 874.37 552.40 875.31 551.44 876.53 551.15   Q 880.41 550.24 884.00 548.76   C 891.87 545.52 899.96 536.17 899.59 527.26   Z" />
<path d="   M 588.01 553.31   C 601.29 549.86 609.74 540.99 615.54 528.93   Q 616.60 526.73 618.85 527.68   L 619.26 527.86   Q 620.95 528.58 620.25 530.28   Q 617.29 537.51 609.64 545.84   Q 600.73 555.55 588.69 558.07   A 1.88 1.88 0.0 0 1 586.48 556.67   L 586.34 556.11   Q 585.80 553.89 588.01 553.31   Z" />
<rect x="-1.91" y="-15.64" transform="translate(225.76,546.51) rotate(0.2)" width="3.82" height="31.28" rx="1.81" />
<path d="   M 517.87 565.46   C 516.97 558.69 516.26 550.60 518.31 545.29   A 1.40 1.40 0.0 0 1 520.85 545.14   Q 522.18 547.65 522.14 550.56   Q 522.02 557.92 522.04 564.64   Q 522.04 566.41 520.29 566.70   L 519.66 566.80   Q 518.08 567.06 517.87 565.46   Z" />
<rect x="-1.97" y="-10.99" transform="translate(510.03,555.94) rotate(0.3)" width="3.94" height="21.98" rx="1.62" />
<rect x="-8.74" y="-2.32" transform="translate(286.82,577.20) rotate(-33.1)" width="17.48" height="4.64" rx="2.23" />
<path d="   M 776.45 576.70   Q 775.81 576.13 774.51 576.16   Q 763.76 576.44 752.29 576.11   Q 750.32 576.05 749.87 574.13   Q 749.78 573.76 749.90 573.42   Q 750.50 571.68 751.73 571.60   Q 766.84 570.60 780.31 571.57   Q 782.72 571.75 784.33 573.05   A 2.09 2.08 39.5 0 1 784.62 576.02   Q 777.72 584.15 766.28 585.79   A 1.92 1.92 0.0 0 1 764.30 584.78   L 763.84 583.89   A 1.47 1.47 0.0 0 1 764.76 581.79   Q 770.21 580.32 776.31 577.60   Q 777.08 577.26 776.45 576.70   Z" />
<rect x="-10.76" y="-2.19" transform="translate(474.83,578.27) rotate(27.3)" width="21.52" height="4.38" rx="2.15" />
<path d="   M 176.08 667.58   C 182.88 683.46 201.79 687.91 217.46 689.55   C 234.81 691.37 255.59 689.65 270.74 681.13   Q 278.03 677.02 281.93 669.39   Q 282.88 667.54 284.19 669.16   L 284.57 669.63   A 3.05 3.03 -54.0 0 1 285.04 672.63   Q 282.61 678.95 275.93 683.25   C 265.40 690.04 253.15 692.92 239.96 694.05   C 221.58 695.61 201.37 693.48 185.47 684.58   C 181.66 682.45 169.69 672.80 173.43 667.32   A 1.52 1.52 0.0 0 1 176.08 667.58   Z" />
</g>
</g></svg>