<svg xmlns="http://www.w3.org/2000/svg" version="1.1" viewBox="0.00 0.00 1024.00 1024.00">
<g id="Parent-Group"><g fill="rgba(0,0,0,0)" id="Group-rgba(0,0,0,0)">
<path d="   M 1024.00 0.00   L 1024.00 1024.00   L 806.09 1024.00   L 784.96 974.48   A 1.52 1.48 57.1 0 1 785.30 972.79   L 806.45 952.89   A 1.44 1.37 52.4 0 0 806.64 951.10   L 730.78 831.79   Q 730.55 831.44 730.98 831.38   Q 746.14 829.27 757.18 821.11   Q 768.51 812.73 778.53 796.76   Q 778.80 796.33 778.62 795.86   C 776.45 790.26 778.69 787.95 780.31 783.07   Q 781.60 779.20 786.69 764.23   Q 786.84 763.81 788.42 758.25   C 789.08 755.93 788.73 753.54 789.52 751.51   C 791.05 747.55 791.31 741.59 791.79 739.11   Q 792.33 736.31 792.07 734.42   Q 791.89 733.07 792.19 729.65   Q 792.47 726.47 792.21 722.52   Q 790.79 700.72 781.86 680.70   C 780.31 677.23 778.26 675.03 777.05 671.30   Q 776.92 670.89 775.91 669.93   Q 775.12 669.17 774.71 668.60   Q 771.67 664.28 764.93 655.00   C 763.86 653.53 762.20 652.13 761.28 651.07   Q 760.13 649.74 761.82 650.05   Q 762.91 650.25 764.29 651.73   Q 769.83 657.71 775.83 665.59   Q 781.71 673.31 785.24 680.63   Q 795.10 701.09 796.36 725.00   Q 796.96 736.48 794.90 747.87   Q 792.59 760.64 792.37 761.58   Q 791.05 767.09 783.04 789.47   Q 781.73 793.13 784.53 795.43   Q 788.57 798.74 794.02 796.18   Q 801.60 792.62 807.75 786.85   C 816.66 778.49 821.95 766.66 825.04 754.56   Q 830.66 732.54 826.39 710.61   Q 820.46 680.13 800.47 656.79   Q 791.86 646.75 783.28 639.62   Q 769.36 628.05 762.66 622.26   Q 754.97 615.61 749.06 607.98   C 740.36 596.77 736.26 583.18 734.35 569.23   Q 733.10 560.08 731.50 541.07   Q 730.58 530.22 728.25 514.81   Q 723.19 481.36 706.75 453.19   Q 701.63 444.42 695.63 436.99   Q 685.83 424.86 675.03 414.64   Q 650.19 391.14 616.08 379.80   Q 596.13 373.16 574.88 367.59   Q 553.69 362.03 535.96 360.20   Q 523.13 358.87 511.25 360.14   C 494.96 361.89 482.57 367.77 465.38 375.56   Q 458.12 378.85 451.88 380.09   Q 442.80 381.90 433.77 383.09   Q 423.51 384.44 416.06 386.77   Q 408.05 389.27 401.57 394.64   C 392.51 402.13 387.41 414.52 386.45 426.46   Q 385.80 434.53 387.34 440.64   C 389.16 447.89 394.77 454.91 402.26 456.85   Q 402.48 456.91 402.47 456.68   Q 402.34 452.89 403.40 449.90   Q 406.38 441.45 412.12 433.11   Q 417.26 425.63 425.01 416.20   Q 425.16 416.02 425.21 416.17   L 425.21 416.18   Q 425.27 416.33 425.24 416.37   Q 418.87 425.23 415.08 431.31   Q 409.36 440.49 407.79 444.56   Q 405.64 450.12 404.99 453.27   Q 404.40 456.13 405.72 459.08   Q 405.92 459.52 405.79 459.98   C 403.51 467.69 399.53 478.40 397.35 486.16   Q 392.09 504.92 389.51 524.37   Q 389.45 524.85 388.99 524.99   Q 383.43 526.67 379.65 530.48   C 370.02 540.21 368.27 553.69 368.04 567.78   Q 367.85 579.52 371.08 588.55   Q 371.39 589.41 370.55 590.58   Q 362.59 601.71 350.51 608.75   C 341.72 613.87 327.15 620.80 316.87 629.45   C 306.32 638.33 300.52 649.04 298.28 662.51   Q 295.11 681.56 298.10 700.37   A 0.31 0.31 0.0 0 1 297.61 700.68   Q 270.91 682.40 244.19 662.37   Q 235.48 655.85 231.90 652.84   Q 230.94 652.04 231.48 650.90   L 328.76 447.04   A 3.51 3.51 0.0 0 1 330.88 445.20   C 338.49 442.80 345.15 439.87 351.04 433.78   Q 361.67 422.80 401.17 378.35   Q 407.21 371.55 408.26 369.25   Q 410.95 363.32 407.66 356.83   Q 404.44 350.47 396.94 351.63   C 394.43 352.02 391.07 354.31 389.22 355.96   Q 370.70 372.42 360.11 382.17   Q 359.15 383.05 359.55 381.81   Q 365.80 362.20 371.44 342.72   C 373.34 336.13 373.74 329.76 367.46 325.88   Q 364.34 323.95 361.31 325.73   A 0.34 0.34 0.0 0 1 360.80 325.34   C 362.60 318.77 364.34 310.51 356.91 306.68   C 352.17 304.24 347.04 307.51 344.46 311.67   Q 344.13 312.21 343.62 311.85   Q 337.57 307.60 331.57 312.63   Q 330.06 313.90 328.18 316.61   Q 327.90 317.02 327.41 316.93   Q 326.88 316.83 325.23 316.35   C 319.06 314.58 313.95 320.87 310.56 325.00   Q 308.75 327.22 306.86 329.94   Q 276.96 373.12 260.99 398.98   Q 214.80 473.73 161.74 567.51   Q 152.39 584.04 141.64 604.64   Q 133.24 620.75 128.90 631.40   Q 122.25 647.74 121.54 667.44   C 121.22 676.49 123.21 685.67 127.29 693.05   Q 133.65 704.55 144.05 714.79   Q 153.89 724.48 164.50 733.08   Q 193.44 756.54 230.07 783.60   A 0.91 0.91 0.0 0 1 230.35 784.73   Q 225.97 793.81 223.54 803.06   Q 221.62 810.41 222.16 820.15   Q 222.19 820.68 222.57 821.05   C 223.66 822.12 224.93 822.65 226.34 823.82   Q 265.96 856.80 311.10 892.44   Q 319.73 899.25 324.94 904.23   Q 331.57 910.56 338.56 916.19   Q 338.87 916.45 338.84 916.85   L 331.06 1024.00   L 0.00 1024.00   L 0.00 0.00   L 1024.00 0.00   Z   M 676.2771 39.7840   A 4.44 4.44 0.0 0 0 674.1398 33.8798   L 673.8319 33.7356   A 4.44 4.44 0.0 0 0 667.9277 35.8728   L 661.7429 49.0760   A 4.44 4.44 0.0 0 0 663.8802 54.9802   L 664.1881 55.1244   A 4.44 4.44 0.0 0 0 670.0923 52.9872   L 676.2771 39.7840   Z   M 643.7465 53.6675   A 4.66 4.66 0.0 0 0 640.7546 47.7955   L 640.4883 47.7090   A 4.66 4.66 0.0 0 0 634.6164 50.7009   L 627.1135 73.7925   A 4.66 4.66 0.0 0 0 630.1054 79.6645   L 630.3717 79.7510   A 4.66 4.66 0.0 0 0 636.2436 76.7591   L 643.7465 53.6675   Z   M 584.0205 70.4305   A 4.79 4.79 0.0 0 0 579.2221 65.6488   L 577.8821 65.6512   A 4.79 4.79 0.0 0 0 573.1005 70.4495   L 573.1195 81.3695   A 4.79 4.79 0.0 0 0 577.9179 86.1512   L 579.2579 86.1488   A 4.79 4.79 0.0 0 0 584.0395 81.3505   L 584.0205 70.4305   Z   M 527.90 132.06   C 524.15 136.77 521.73 140.94 519.24 145.44   C 517.74 148.16 517.05 152.23 520.66 153.38   C 523.12 154.16 525.17 152.76 526.32 150.57   Q 529.51 144.48 534.16 136.11   Q 535.72 133.32 532.97 131.32   Q 532.96 131.32 532.85 131.25   Q 529.96 129.48 527.90 132.06   Z   M 492.7854 135.4451   A 4.44 4.44 0.0 0 0 488.3687 130.9820   L 487.7488 130.9787   A 4.44 4.44 0.0 0 0 483.2856 135.3954   L 483.0746 175.6949   A 4.44 4.44 0.0 0 0 487.4913 180.1580   L 488.1112 180.1613   A 4.44 4.44 0.0 0 0 492.5744 175.7446   L 492.7854 135.4451   Z   M 417.2072 164.0018   A 1.96 1.96 0.0 0 0 415.1603 162.1327   L 415.0804 162.1363   A 1.96 1.96 0.0 0 0 413.2114 164.1832   L 414.3128 188.4382   A 1.96 1.96 0.0 0 0 416.3597 190.3073   L 416.4396 190.3037   A 1.96 1.96 0.0 0 0 418.3086 188.2568   L 417.2072 164.0018   Z   M 614.66 268.75   Q 612.09 280.17 617.78 290.67   C 621.34 297.23 625.92 302.86 633.71 304.35   Q 646.74 306.86 656.59 298.32   Q 659.03 296.20 675.12 281.87   C 679.05 278.37 683.67 271.58 684.08 265.97   Q 684.30 262.90 683.82 258.78   C 682.47 247.16 675.25 241.94 665.20 237.91   Q 664.68 237.70 664.75 237.13   Q 666.53 222.75 661.51 209.25   Q 658.35 200.72 653.50 195.32   C 645.65 186.56 634.86 179.20 624.37 173.28   Q 613.92 167.38 605.80 166.20   Q 594.00 164.49 584.29 168.84   C 571.46 174.58 560.71 188.63 560.08 202.76   Q 559.79 209.42 563.59 218.86   C 569.12 232.60 578.61 245.26 589.76 254.73   Q 600.81 264.11 614.29 268.11   Q 614.77 268.25 614.66 268.75   Z   M 212.2456 175.2036   A 3.23 3.23 0.0 0 0 209.5607 171.5081   L 209.2446 171.4580   A 3.23 3.23 0.0 0 0 205.5491 174.1430   L 204.1944 182.6964   A 3.23 3.23 0.0 0 0 206.8793 186.3919   L 207.1954 186.4420   A 3.23 3.23 0.0 0 0 210.8909 183.7570   L 212.2456 175.2036   Z   M 231.7380 177.3011   A 2.23 2.23 0.0 0 0 230.1611 174.5700   L 230.0839 174.5492   A 2.23 2.23 0.0 0 0 227.3527 176.1261   L 219.7020 204.6789   A 2.23 2.23 0.0 0 0 221.2789 207.4100   L 221.3561 207.4308   A 2.23 2.23 0.0 0 0 224.0873 205.8539   L 231.7380 177.3011   Z   M 433.7051 178.9333   A 2.08 2.08 0.0 0 0 432.0053 176.5326   L 431.9067 176.5157   A 2.08 2.08 0.0 0 0 429.5060 178.2155   L 425.3949 202.2667   A 2.08 2.08 0.0 0 0 427.0947 204.6674   L 427.1933 204.6843   A 2.08 2.08 0.0 0 0 429.5940 202.9845   L 433.7051 178.9333   Z   M 307.5782 181.3385   A 2.48 2.48 0.0 0 0 304.7662 179.2425   L 304.5485 179.2743   A 2.48 2.48 0.0 0 0 302.4525 182.0863   L 303.6218 190.1015   A 2.48 2.48 0.0 0 0 306.4338 192.1975   L 306.6515 192.1657   A 2.48 2.48 0.0 0 0 308.7475 189.3537   L 307.5782 181.3385   Z   M 244.1867 192.1448   A 3.84 3.84 0.0 0 0 241.7551 187.2890   L 241.4704 187.1943   A 3.84 3.84 0.0 0 0 236.6146 189.6259   L 232.4733 202.0752   A 3.84 3.84 0.0 0 0 234.9049 206.9310   L 235.1896 207.0257   A 3.84 3.84 0.0 0 0 240.0454 204.5941   L 244.1867 192.1448   Z   M 373.0546 202.9793   A 5.67 3.18 113.0 0 0 378.1972 199.0025   A 5.67 3.18 113.0 0 0 377.4854 192.5407   A 5.67 3.18 113.0 0 0 372.3428 196.5175   A 5.67 3.18 113.0 0 0 373.0546 202.9793   Z   M 715.82 204.12   C 722.35 207.20 712.43 214.87 709.19 217.94   Q 708.02 219.04 708.36 220.60   A 1.73 1.73 0.0 0 0 710.62 221.87   C 714.47 220.55 718.62 215.89 720.75 212.97   Q 724.74 207.46 721.48 202.77   C 719.34 199.70 715.03 198.63 711.46 198.40   C 708.87 198.24 705.37 199.49 705.82 202.53   Q 705.98 203.62 706.79 203.89   Q 707.47 204.12 708.78 203.76   Q 712.78 202.69 715.82 204.12   Z   M 529.77 236.52   C 529.46 229.86 534.39 225.08 539.42 221.24   A 1.64 1.64 0.0 0 0 539.95 219.35   Q 539.78 218.90 539.73 218.83   Q 537.96 216.24 534.97 218.29   Q 526.64 223.99 524.73 232.54   Q 522.46 242.68 532.32 244.65   Q 539.30 246.05 541.64 246.27   A 2.38 2.37 -73.8 0 0 543.97 244.98   Q 544.20 244.53 544.20 244.52   Q 544.61 242.41 542.76 241.82   Q 539.72 240.86 533.20 239.85   C 531.58 239.60 529.87 238.48 529.77 236.52   Z   M 339.47 241.14   Q 339.97 238.96 339.09 236.77   Q 338.04 234.14 335.66 231.20   C 331.07 225.55 327.06 220.43 320.69 218.93   Q 318.10 218.32 314.59 219.85   C 306.63 223.32 293.76 228.34 293.22 238.77   Q 292.84 246.08 293.85 250.67   Q 294.89 255.37 299.88 256.42   C 304.21 257.34 310.94 258.08 311.66 260.89   C 313.37 267.59 314.21 274.08 321.29 276.12   Q 328.40 278.16 337.03 274.98   Q 348.05 270.93 353.58 260.42   C 355.56 256.64 355.09 253.58 352.09 250.91   Q 349.31 248.44 341.82 244.38   Q 340.20 243.50 339.59 242.22   Q 339.34 241.70 339.47 241.14   Z   M 825.0415 233.4921   A 4.89 4.89 0.0 0 0 823.7101 226.7060   L 823.5607 226.6056   A 4.89 4.89 0.0 0 0 816.7746 227.9370   L 792.8585 263.5279   A 4.89 4.89 0.0 0 0 794.1899 270.3140   L 794.3393 270.4144   A 4.89 4.89 0.0 0 0 801.1254 269.0830   L 825.0415 233.4921   Z   M 440.57 301.40   C 442.51 300.04 444.59 297.27 447.12 295.81   Q 449.51 294.43 450.44 294.16   C 457.65 292.06 463.36 290.89 467.11 287.11   Q 471.23 282.95 474.83 275.78   Q 478.15 269.18 477.65 262.77   Q 476.94 253.89 472.76 248.07   Q 470.96 245.55 466.90 244.33   Q 464.41 243.58 460.44 244.99   Q 445.29 250.33 436.85 263.88   Q 435.00 266.85 433.00 271.02   Q 431.64 273.84 429.61 275.12   Q 424.25 278.51 422.51 279.74   Q 409.17 289.10 402.89 303.64   C 397.69 315.69 408.96 322.51 419.27 322.44   Q 430.24 322.37 438.15 315.35   C 442.71 311.30 442.72 307.62 440.34 302.23   Q 440.12 301.72 440.57 301.40   Z   M 847.7415 266.4827   A 4.14 4.14 0.0 0 0 842.4012 264.0826   L 829.7249 268.8979   A 4.14 4.14 0.0 0 0 827.3249 274.2382   L 827.4385 274.5373   A 4.14 4.14 0.0 0 0 832.7788 276.9374   L 845.4551 272.1221   A 4.14 4.14 0.0 0 0 847.8551 266.7818   L 847.7415 266.4827   Z   M 280.74 306.44   Q 281.16 307.55 281.71 309.07   C 284.10 315.71 290.17 316.25 296.23 314.03   C 305.27 310.72 317.79 300.07 306.96 290.03   C 302.52 285.91 296.13 282.92 290.39 285.14   Q 288.04 286.04 285.49 287.16   A 3.19 3.19 0.0 0 1 282.24 286.75   Q 274.78 280.90 272.87 279.40   Q 266.61 274.52 257.97 275.71   C 252.60 276.46 247.38 277.95 245.26 282.55   Q 243.73 285.86 243.90 289.54   Q 244.20 295.89 245.26 299.17   Q 246.16 301.94 248.89 302.80   Q 255.40 304.82 256.82 305.45   C 260.07 306.88 262.20 309.70 264.83 311.68   Q 268.21 314.23 271.17 312.12   Q 273.40 310.54 279.44 306.06   A 0.85 0.85 0.0 0 1 280.74 306.44   Z   M 749.7558 280.5446   A 3.14 3.14 0.0 0 0 745.3271 280.2194   L 732.5187 291.2753   A 3.14 3.14 0.0 0 0 732.1935 295.7040   L 732.3242 295.8554   A 3.14 3.14 0.0 0 0 736.7529 296.1806   L 749.5613 285.1247   A 3.14 3.14 0.0 0 0 749.8865 280.6960   L 749.7558 280.5446   Z   M 757.7280 285.1962   A 2.00 2.00 0.0 0 0 754.9079 284.9792   L 740.6639 297.1878   A 2.00 2.00 0.0 0 0 740.4470 300.0078   L 740.5120 300.0838   A 2.00 2.00 0.0 0 0 743.3321 300.3008   L 757.5761 288.0922   A 2.00 2.00 0.0 0 0 757.7930 285.2722   L 757.7280 285.1962   Z   M 568.00 289.13   Q 560.04 298.57 557.79 310.32   Q 557.25 313.11 559.71 314.53   Q 560.66 315.08 560.80 315.09   A 4.40 4.14 12.8 0 0 564.99 312.63   Q 565.29 311.94 568.06 303.57   Q 569.42 299.46 573.95 291.53   A 2.48 2.16 -68.0 0 0 572.72 287.98   Q 572.72 287.98 572.61 287.94   Q 569.89 286.89 568.00 289.13   Z   M 593.66 300.34   Q 592.33 299.31 590.96 299.97   Q 587.90 301.44 585.77 304.84   C 582.21 310.51 580.03 317.93 579.09 324.57   Q 578.63 327.82 582.50 329.21   Q 582.62 329.25 583.72 329.02   Q 586.19 328.51 586.87 326.08   C 589.59 316.39 590.67 311.66 594.64 304.96   Q 596.22 302.31 593.66 300.34   Z   M 460.45 333.00   Q 460.80 336.43 462.05 343.16   A 2.80 2.77 84.6 0 0 464.78 345.44   Q 464.78 345.44 464.87 345.43   Q 467.02 345.16 466.70 343.15   Q 465.68 336.63 465.13 332.44   Q 464.67 328.23 464.13 321.65   Q 463.96 319.63 461.81 319.87   Q 461.72 319.88 461.72 319.88   A 2.80 2.77 81.7 0 0 459.61 322.74   Q 459.98 329.58 460.45 333.00   Z   M 479.1025 326.5418   A 3.50 3.50 0.0 0 0 475.5660 323.0787   L 475.2260 323.0822   A 3.50 3.50 0.0 0 0 471.7629 326.6187   L 471.8575 335.6582   A 3.50 3.50 0.0 0 0 475.3940 339.1213   L 475.7340 339.1178   A 3.50 3.50 0.0 0 0 479.1971 335.5813   L 479.1025 326.5418   Z   M 631.21 339.22   Q 628.81 343.50 627.94 346.65   Q 627.07 349.79 629.29 350.78   Q 630.55 351.34 631.76 350.86   Q 632.99 350.37 633.67 348.94   Q 635.54 345.05 636.99 342.46   Q 638.45 339.87 640.79 336.25   Q 641.66 334.92 641.44 333.62   Q 641.22 332.33 640.08 331.55   Q 638.08 330.17 635.85 332.55   Q 633.62 334.93 631.21 339.22   Z   M 241.0436 336.0192   A 2.07 2.07 0.0 0 0 238.8044 334.1336   L 238.6848 334.1439   A 2.07 2.07 0.0 0 0 236.7992 336.3831   L 238.2564 353.3808   A 2.07 2.07 0.0 0 0 240.4956 355.2664   L 240.6152 355.2561   A 2.07 2.07 0.0 0 0 242.5008 353.0169   L 241.0436 336.0192   Z   M 641.68 358.79   L 654.31 340.68   A 1.05 1.05 0.0 0 0 654.05 339.22   L 653.43 338.78   A 5.68 2.79 -55.1 0 0 647.89 341.85   L 640.56 352.36   A 5.68 2.79 -55.1 0 0 639.59 358.62   L 640.22 359.05   A 1.05 1.05 0.0 0 0 641.68 358.79   Z   M 254.2525 343.8768   A 2.39 2.39 0.0 0 0 251.3987 342.0657   L 251.2230 342.1049   A 2.39 2.39 0.0 0 0 249.4119 344.9588   L 251.9075 356.1232   A 2.39 2.39 0.0 0 0 254.7613 357.9343   L 254.9370 357.8951   A 2.39 2.39 0.0 0 0 256.7481 355.0412   L 254.2525 343.8768   Z   M 266.5621 345.9472   A 2.27 2.27 0.0 0 0 263.9848 344.0331   L 263.6881 344.0770   A 2.27 2.27 0.0 0 0 261.7740 346.6542   L 262.3379 350.4728   A 2.27 2.27 0.0 0 0 264.9152 352.3869   L 265.2119 352.3430   A 2.27 2.27 0.0 0 0 267.1260 349.7658   L 266.5621 345.9472   Z   M 701.78 354.78   Q 701.73 354.74 701.63 354.66   Q 699.88 353.15 698.12 355.14   Q 692.32 361.72 688.85 369.31   Q 687.91 371.37 689.96 372.37   L 690.24 372.50   A 1.73 1.72 30.6 0 0 692.40 371.96   Q 694.70 368.74 697.22 363.99   Q 698.05 362.43 702.13 357.55   Q 703.47 355.96 701.78 354.78   Z   M 787.65 392.59   Q 791.26 384.07 784.58 377.65   Q 782.85 375.99 775.37 371.87   Q 774.65 371.48 774.21 370.26   Q 773.82 369.17 773.30 368.32   Q 767.25 358.47 756.29 355.08   Q 749.88 353.10 745.29 356.12   C 738.80 360.40 738.67 370.86 740.40 378.08   Q 742.53 386.99 749.60 390.43   Q 750.33 390.79 750.31 391.60   Q 750.07 401.56 756.22 406.79   Q 757.90 408.21 762.00 408.99   Q 762.52 409.09 762.49 409.61   Q 762.10 416.61 766.47 423.33   C 771.87 431.63 779.94 431.59 788.14 427.31   C 796.51 422.93 805.02 412.69 802.78 402.45   Q 801.41 396.22 795.38 394.22   Q 793.14 393.47 788.01 393.17   Q 787.42 393.13 787.65 392.59   Z   M 426.7722 357.5598   A 2.35 2.35 0.0 0 0 424.8047 354.8814   L 424.6268 354.8542   A 2.35 2.35 0.0 0 0 421.9483 356.8217   L 420.0878 368.9802   A 2.35 2.35 0.0 0 0 422.0553 371.6586   L 422.2332 371.6858   A 2.35 2.35 0.0 0 0 424.9117 369.7183   L 426.7722 357.5598   Z   M 710.35 412.96   L 726.76 401.21   A 1.50 1.50 0.0 0 0 727.11 399.12   L 726.38 398.10   A 7.71 3.97 -35.6 0 0 717.80 399.36   L 711.49 403.88   A 7.71 3.97 -35.6 0 0 707.53 411.59   L 708.26 412.61   A 1.50 1.50 0.0 0 0 710.35 412.96   Z   M 719.18 423.15   L 732.75 412.78   A 1.10 1.10 0.0 0 0 732.95 411.24   L 732.71 410.92   A 4.30 3.32 -37.4 0 0 727.28 410.89   L 718.79 417.38   A 4.30 3.32 -37.4 0 0 717.39 422.63   L 717.64 422.95   A 1.10 1.10 0.0 0 0 719.18 423.15   Z   M 766.1454 462.3909   A 5.19 2.48 -4.3 0 0 760.7841 460.3070   A 5.19 2.48 -4.3 0 0 755.7946 463.1691   A 5.19 2.48 -4.3 0 0 761.1559 465.2530   A 5.19 2.48 -4.3 0 0 766.1454 462.3909   Z" />
<path d="   M 659.33 240.83   Q 660.46 241.76 662.67 242.38   C 667.05 243.61 671.99 246.56 674.49 249.45   Q 677.79 253.24 678.87 260.21   C 680.09 268.07 675.90 274.50 670.19 279.44   Q 661.39 287.06 655.26 292.74   C 649.20 298.34 642.60 301.52 634.65 299.56   Q 629.57 298.31 625.43 292.93   Q 618.13 283.44 619.00 271.93   Q 619.14 270.16 620.52 267.94   Q 621.54 266.29 621.30 265.56   Q 620.65 263.57 618.82 263.50   Q 615.44 263.38 614.16 262.97   Q 604.18 259.81 596.02 253.35   Q 574.66 236.44 566.18 210.30   Q 565.65 208.64 565.40 205.29   Q 565.17 202.26 565.53 200.22   C 567.41 189.75 574.89 179.83 584.00 174.48   Q 588.32 171.94 594.19 170.74   C 602.25 169.09 611.09 171.92 618.62 175.89   Q 633.44 183.71 645.11 193.85   C 655.76 203.10 660.95 218.49 660.23 232.23   Q 660.01 236.38 658.93 239.41   A 1.28 1.28 0.0 0 0 659.33 240.83   Z" />
<path d="   M 334.30 239.15   C 333.27 242.91 334.44 245.30 337.86 247.44   C 342.52 250.35 348.67 253.63 349.55 255.99   A 1.23 1.23 0.0 0 1 349.52 256.93   Q 345.35 266.08 335.84 270.36   Q 329.77 273.09 323.98 272.03   C 318.38 271.01 318.00 264.89 317.14 261.14   C 316.28 257.43 314.13 255.01 310.49 254.04   Q 307.29 253.18 301.05 251.79   Q 299.59 251.47 299.11 249.69   C 298.14 246.10 297.17 237.30 300.21 234.22   Q 306.59 227.73 316.41 224.38   C 320.49 222.99 323.04 224.51 326.04 227.53   Q 330.00 231.50 334.00 237.37   A 2.15 2.15 0.0 0 1 334.30 239.15   Z" />
<path d="   M 434.45 299.72   A 2.49 2.07 55.7 0 0 434.19 302.41   Q 434.20 302.44 436.19 306.31   C 437.04 307.94 436.85 309.37 435.57 310.60   C 429.90 316.07 420.90 319.49 413.23 316.24   C 406.22 313.28 405.70 309.29 409.11 302.86   Q 416.91 288.13 431.54 280.09   C 435.39 277.98 437.25 274.73 439.56 269.97   Q 446.06 256.59 460.31 250.55   C 463.80 249.07 466.74 248.43 468.94 252.02   C 473.10 258.81 473.47 266.92 469.72 274.22   C 467.36 278.82 463.77 285.08 458.49 286.72   Q 447.18 290.23 446.65 290.41   C 444.77 291.07 443.32 291.77 441.71 293.21   Q 434.61 299.56 434.45 299.72   Z" />
<path d="   M 282.56 301.26   C 279.82 299.83 271.52 306.33 269.27 308.21   A 1.36 1.36 0.0 0 1 267.49 308.18   Q 263.81 304.92 261.67 303.15   Q 260.63 302.29 258.67 301.62   Q 251.79 299.29 250.85 298.96   Q 249.60 298.52 249.05 296.05   Q 248.02 291.42 248.39 287.20   Q 248.74 283.14 252.61 281.38   Q 262.46 276.90 270.91 283.10   C 273.28 284.84 278.38 290.12 283.06 291.45   Q 284.48 291.85 286.52 290.97   C 290.73 289.15 294.02 287.77 298.13 289.42   C 303.61 291.61 309.63 296.84 304.62 302.92   Q 300.05 308.47 292.51 310.73   C 285.55 312.83 285.89 304.51 283.39 301.91   A 3.35 1.63 64.0 0 0 282.56 301.26   Z" />
<path d="   M 333.88 387.10   Q 334.58 387.66 334.72 387.68   A 2.71 2.18 -71.8 0 0 337.27 386.03   Q 344.96 368.56 354.18 344.71   Q 355.01 342.57 357.83 336.13   C 358.87 333.75 361.48 328.79 364.78 330.55   C 369.08 332.85 367.39 338.03 366.22 342.00   Q 358.98 366.47 352.37 386.36   Q 351.67 388.45 351.85 389.45   Q 352.17 391.29 351.44 392.39   A 0.88 0.88 0.0 0 0 351.50 393.45   Q 352.85 395.06 354.33 393.82   Q 358.29 390.49 362.38 386.87   Q 390.51 361.91 391.81 360.80   Q 395.25 357.87 397.89 356.51   Q 399.45 355.70 400.80 356.86   L 402.23 358.08   Q 403.54 359.19 402.06 360.04   C 399.14 361.72 392.27 366.82 393.96 370.98   Q 394.95 373.42 397.66 373.12   Q 399.20 372.95 398.16 374.10   Q 376.45 398.15 356.67 420.06   Q 346.24 431.62 344.45 433.07   Q 337.61 438.59 328.04 441.00   Q 325.39 441.67 324.41 444.04   Q 323.91 445.25 323.91 445.25   Q 279.14 539.84 226.98 647.97   Q 226.17 649.65 225.64 651.55   C 225.22 653.06 226.14 654.12 227.17 654.94   Q 258.69 679.79 292.01 702.81   C 296.18 705.69 299.49 707.81 300.08 712.69   Q 302.05 728.74 293.57 744.38   Q 288.24 754.21 283.77 760.53   Q 272.58 776.36 257.21 792.22   Q 254.90 794.60 254.32 795.07   Q 253.91 795.40 253.48 795.12   Q 246.58 790.65 242.08 787.04   Q 234.71 781.11 232.79 779.67   Q 222.97 772.33 185.54 743.39   Q 167.87 729.73 152.17 715.34   Q 146.63 710.26 140.05 702.53   Q 124.84 684.64 127.46 661.90   Q 127.99 657.25 128.99 651.02   C 131.26 636.82 138.06 623.41 145.57 608.82   Q 152.22 595.91 166.37 570.22   Q 173.12 557.97 176.11 552.75   Q 213.07 488.12 256.36 416.11   Q 262.44 406.00 268.77 396.26   Q 288.25 366.29 308.04 337.54   Q 311.83 332.04 316.13 326.63   C 318.30 323.89 321.09 320.56 324.35 321.93   Q 324.89 322.16 324.59 322.66   Q 313.30 341.85 299.04 369.47   A 2.07 2.06 -66.9 0 0 300.21 372.37   Q 300.25 372.39 300.28 372.40   A 2.20 1.65 -62.8 0 0 302.64 371.25   Q 317.56 344.44 334.43 317.42   Q 336.23 314.54 339.38 315.59   Q 339.38 315.60 339.51 315.64   Q 342.56 316.80 341.29 319.63   Q 329.04 346.93 319.77 369.77   Q 318.74 372.30 317.18 376.72   Q 316.49 378.69 317.42 379.85   A 1.85 1.85 0.0 0 0 320.26 379.91   Q 321.15 378.87 321.90 377.16   Q 335.31 346.43 350.17 313.41   Q 351.84 309.70 355.12 311.99   Q 355.25 312.08 355.27 312.09   A 5.18 5.10 25.2 0 1 357.35 317.77   Q 353.60 330.73 347.44 346.45   Q 342.09 360.09 333.03 384.03   Q 332.33 385.88 333.88 387.10   Z" />
<path d="   M 404.12 366.08   C 403.46 368.17 401.21 369.69 399.51 371.53   Q 399.06 372.02 398.77 371.41   Q 398.14 370.06 398.59 369.35   Q 400.58 366.20 402.14 364.91   Q 405.33 362.26 404.12 366.08   Z" />
<path d="   M 603.88 448.51   A 0.42 0.42 0.0 0 0 604.11 448.14   Q 604.11 443.82 605.47 439.40   Q 606.65 435.57 609.18 431.40   Q 615.51 420.97 624.73 412.50   Q 624.87 412.37 625.03 412.48   L 625.31 412.65   Q 625.46 412.74 625.35 412.87   Q 620.94 417.83 620.22 418.72   Q 612.81 427.86 608.61 437.64   C 607.10 441.14 606.19 446.27 606.41 450.37   Q 607.20 465.91 617.77 477.03   Q 624.00 483.59 630.50 488.31   Q 641.38 496.22 644.12 498.43   Q 648.75 502.13 650.14 507.71   Q 650.42 508.83 650.20 516.04   Q 650.10 519.19 649.25 524.29   Q 647.06 537.33 647.06 547.99   Q 647.05 562.05 653.19 574.56   Q 654.63 577.48 656.59 578.68   C 661.37 581.63 665.35 577.74 666.24 573.24   Q 668.00 564.31 668.38 562.64   Q 672.49 544.58 687.08 534.00   C 693.56 529.31 701.14 526.72 705.79 535.43   Q 708.44 540.40 709.21 545.04   Q 714.29 575.61 692.89 597.14   Q 690.03 600.01 685.59 602.31   Q 676.84 606.82 669.98 600.39   A 1.53 1.53 0.0 0 0 667.42 601.36   Q 665.55 621.62 658.85 639.38   Q 653.83 652.68 643.80 664.55   Q 620.76 691.81 586.18 704.07   A 1.53 1.53 0.0 0 0 585.16 705.51   Q 585.12 741.64 584.37 773.77   Q 584.23 779.41 580.28 783.06   Q 574.40 788.47 566.50 791.03   Q 547.67 797.12 528.03 796.22   Q 518.17 795.76 506.28 793.53   C 496.41 791.67 481.95 788.25 477.53 778.30   Q 476.52 776.02 476.54 770.67   Q 476.58 764.33 476.67 758.75   Q 476.85 748.58 477.28 705.81   A 1.88 1.88 0.0 0 0 475.44 703.92   C 473.95 703.89 472.40 704.42 470.64 703.96   C 463.06 701.98 456.00 699.01 448.14 695.48   Q 434.49 689.33 423.45 680.33   C 412.44 671.35 402.37 659.76 397.01 646.65   Q 395.08 641.95 394.33 634.49   Q 391.36 605.31 390.87 587.23   Q 389.80 547.38 397.39 507.63   Q 401.45 486.36 409.52 465.55   Q 409.72 465.05 410.25 465.07   C 412.85 465.16 417.16 465.57 420.28 465.05   C 435.04 462.54 446.91 453.53 456.45 442.21   Q 472.68 422.98 477.19 417.95   Q 478.42 416.58 478.30 414.32   C 477.98 408.28 478.17 404.77 481.05 399.80   Q 485.55 392.06 492.43 386.20   Q 492.55 386.11 492.63 386.23   L 492.63 386.23   Q 492.71 386.34 492.61 386.42   Q 487.44 391.10 483.17 399.17   Q 477.25 410.36 482.01 422.07   Q 486.54 433.22 494.30 441.30   Q 514.43 462.26 541.58 464.32   Q 555.92 465.41 571.93 461.04   Q 588.21 456.60 603.88 448.51   Z   M 427.81 482.78   Q 429.25 482.35 435.38 481.11   Q 441.27 479.91 446.74 477.49   Q 454.50 474.06 456.38 466.31   Q 457.04 463.57 454.17 463.69   Q 453.21 463.73 452.70 464.55   Q 451.01 467.25 450.64 467.90   C 448.11 472.23 444.24 473.76 438.99 475.23   Q 434.38 476.52 424.30 478.79   Q 421.58 479.40 420.27 480.50   C 416.26 483.87 421.55 486.57 424.27 487.55   C 434.05 491.04 448.36 493.69 456.63 486.89   Q 465.08 479.95 466.14 467.59   A 2.96 2.88 -77.9 0 0 464.25 464.57   L 463.85 464.43   A 1.89 1.86 -71.4 0 0 461.44 465.65   Q 461.15 466.56 460.30 471.77   Q 459.23 478.30 453.08 483.39   Q 448.67 487.02 441.07 486.53   Q 434.20 486.09 427.79 483.89   Q 426.07 483.30 427.81 482.78   Z   M 598.19 482.34   Q 600.99 482.66 598.28 483.44   Q 590.96 485.57 584.89 486.36   Q 577.10 487.36 572.88 485.68   C 565.36 482.69 563.50 476.54 561.95 468.99   Q 561.52 466.91 559.51 467.51   Q 559.48 467.51 559.42 467.53   Q 557.33 468.01 557.45 470.21   C 557.99 480.44 563.72 488.86 573.89 490.70   C 581.38 492.05 590.68 490.33 598.23 488.26   C 601.75 487.30 605.83 486.05 606.80 483.59   A 3.12 2.54 25.6 0 0 605.19 480.16   Q 602.24 478.58 598.17 477.84   C 589.46 476.27 582.51 474.86 576.13 469.45   A 2.59 2.16 31.2 0 0 572.22 470.05   C 571.02 473.71 578.68 477.19 581.52 478.33   Q 588.94 481.31 598.19 482.34   Z   M 511.80 506.97   C 515.47 506.73 514.21 503.27 515.90 501.23   Q 520.45 495.80 521.19 494.77   Q 521.49 494.37 521.98 494.29   Q 525.10 493.77 526.37 491.05   Q 526.56 490.64 526.43 490.21   Q 526.33 489.87 526.37 489.64   Q 526.50 488.82 526.91 489.81   L 527.20 490.52   A 1.04 0.30 11.2 0 0 527.96 490.92   Q 528.11 490.96 530.76 491.29   C 536.08 491.96 537.57 496.39 538.64 501.34   Q 540.08 507.95 538.82 514.73   A 1.16 1.16 0.0 0 0 540.27 516.06   Q 541.52 515.70 542.13 514.10   Q 543.01 511.76 543.10 511.09   C 544.42 501.12 541.91 486.27 528.78 486.82   Q 522.24 487.09 517.36 490.86   Q 516.16 491.78 514.48 494.46   C 513.23 496.45 511.05 497.03 510.31 499.19   Q 509.55 501.42 507.36 503.40   A 0.83 0.83 0.0 0 0 507.15 504.34   Q 507.52 505.20 508.89 506.31   Q 509.44 506.74 508.74 506.73   Q 505.70 506.68 504.67 509.66   Q 503.37 513.43 500.86 517.62   Q 500.05 518.96 498.25 526.60   Q 497.89 528.12 497.54 528.83   Q 497.35 529.23 496.44 530.90   C 495.14 533.29 495.09 536.24 494.30 538.93   Q 493.72 540.91 493.63 543.74   Q 493.24 555.55 505.21 560.91   Q 506.70 561.58 507.92 561.32   A 1.55 1.55 0.0 0 0 508.43 558.48   Q 503.42 555.33 500.92 552.21   Q 499.20 550.07 498.35 543.80   Q 498.28 543.27 498.54 542.80   Q 500.03 540.16 500.81 536.97   C 501.19 535.42 502.14 533.81 502.60 532.80   Q 503.24 531.38 503.36 529.56   C 503.50 527.12 505.86 523.54 507.42 521.35   A 1.33 1.33 0.0 0 0 507.65 520.32   L 507.46 519.35   Q 507.36 518.83 507.58 518.35   Q 508.39 516.54 510.10 514.11   Q 510.71 513.24 511.74 509.24   Q 511.89 508.64 511.71 508.27   L 511.35 507.54   Q 511.09 507.02 511.80 506.97   Z   M 579.9602 515.3342   A 7.81 5.58 92.2 0 0 585.8359 507.7442   A 7.81 5.58 92.2 0 0 580.5598 499.7258   A 7.81 5.58 92.2 0 0 574.6841 507.3158   A 7.81 5.58 92.2 0 0 579.9602 515.3342   Z   M 445.14 505.02   A 4.71 4.71 0.0 0 0 440.43 500.31   L 439.73 500.31   A 4.71 4.71 0.0 0 0 435.02 505.02   L 435.02 510.48   A 4.71 4.71 0.0 0 0 439.73 515.19   L 440.43 515.19   A 4.71 4.71 0.0 0 0 445.14 510.48   L 445.14 505.02   Z   M 617.3941 523.5565   A 2.20 2.20 0.0 0 0 615.3694 521.1942   L 615.2098 521.1819   A 2.20 2.20 0.0 0 0 612.8475 523.2066   L 611.7259 537.7835   A 2.20 2.20 0.0 0 0 613.7506 540.1458   L 613.9102 540.1581   A 2.20 2.20 0.0 0 0 616.2725 538.1334   L 617.3941 523.5565   Z   M 602.3377 526.9267   A 2.17 2.17 0.0 0 0 599.9260 525.0289   L 599.7671 525.0478   A 2.17 2.17 0.0 0 0 597.8693 527.4595   L 598.9823 536.7933   A 2.17 2.17 0.0 0 0 601.3940 538.6911   L 601.5529 538.6722   A 2.17 2.17 0.0 0 0 603.4507 536.2605   L 602.3377 526.9267   Z   M 626.9848 527.9594   A 2.34 2.34 0.0 0 0 625.1535 525.2031   L 624.9182 525.1556   A 2.34 2.34 0.0 0 0 622.1618 526.9870   L 620.6952 534.2606   A 2.34 2.34 0.0 0 0 622.5265 537.0169   L 622.7618 537.0644   A 2.34 2.34 0.0 0 0 625.5182 535.2330   L 626.9848 527.9594   Z   M 423.9686 533.4520   A 1.86 1.86 0.0 0 0 422.2498 531.4608   L 422.1301 531.4520   A 1.86 1.86 0.0 0 0 420.1389 533.1708   L 418.9714 549.0680   A 1.86 1.86 0.0 0 0 420.6902 551.0592   L 420.8099 551.0680   A 1.86 1.86 0.0 0 0 422.8011 549.3492   L 423.9686 533.4520   Z   M 434.6289 535.6085   A 1.83 1.83 0.0 0 0 433.2155 533.4405   L 433.0785 533.4116   A 1.83 1.83 0.0 0 0 430.9105 534.8249   L 428.6711 545.4515   A 1.83 1.83 0.0 0 0 430.0845 547.6195   L 430.2215 547.6484   A 1.83 1.83 0.0 0 0 432.3895 546.2351   L 434.6289 535.6085   Z   M 407.8900 539.4985   A 1.78 1.78 0.0 0 0 405.7837 538.1202   L 405.6466 538.1488   A 1.78 1.78 0.0 0 0 404.2682 540.2552   L 406.5300 551.0815   A 1.78 1.78 0.0 0 0 408.6363 552.4598   L 408.7734 552.4312   A 1.78 1.78 0.0 0 0 410.1518 550.3248   L 407.8900 539.4985   Z   M 685.25 561.28   Q 683.36 561.77 684.45 560.16   Q 689.15 553.17 697.50 548.71   A 1.88 1.83 69.3 0 0 698.40 546.62   L 698.30 546.18   Q 697.74 543.90 695.57 544.83   Q 687.08 548.46 682.08 554.82   Q 679.32 558.31 678.97 560.50   Q 678.28 564.74 681.47 566.71   C 682.81 567.55 685.40 567.07 687.20 566.95   A 1.60 1.60 0.0 0 1 688.81 568.01   Q 689.52 570.03 688.95 572.45   Q 687.63 577.96 678.93 584.54   Q 677.51 585.61 678.14 587.27   Q 678.29 587.68 678.29 587.68   Q 679.42 589.06 680.87 588.28   Q 690.11 583.33 693.34 574.94   Q 696.19 567.54 690.81 562.91   C 689.41 561.71 686.99 560.82 685.25 561.28   Z   M 520.31 604.64   Q 519.76 604.38 519.06 603.50   Q 512.72 595.56 506.09 591.24   C 498.59 586.37 491.19 587.10 484.44 592.36   C 476.46 598.59 471.23 608.43 467.68 618.94   C 464.46 628.46 458.35 654.79 474.81 656.34   Q 478.05 656.65 481.21 656.36   C 484.51 656.06 487.29 653.83 490.70 651.70   Q 493.53 649.93 497.55 649.08   Q 506.94 647.09 515.49 648.84   C 516.79 649.11 518.90 649.86 519.78 650.51   Q 535.50 662.10 554.49 656.17   Q 561.72 653.91 563.26 647.10   C 564.15 643.12 562.91 636.78 561.38 632.91   Q 553.61 613.15 537.25 597.55   Q 526.43 587.22 511.90 584.39   Q 509.38 583.90 506.65 584.14   Q 503.99 584.37 501.47 584.90   Q 498.67 585.50 501.38 586.43   Q 510.31 589.50 516.61 598.40   Q 517.01 598.97 520.84 603.97   Q 521.95 605.42 520.31 604.64   Z   M 568.57 705.57   Q 567.56 704.72 566.26 704.99   Q 562.06 705.85 546.99 708.64   C 546.01 708.82 545.06 708.61 544.01 708.77   Q 536.78 709.87 531.55 709.70   Q 526.16 709.53 522.05 709.56   Q 513.93 709.63 498.98 706.66   Q 492.73 705.41 492.14 705.34   Q 487.07 704.71 485.35 704.21   Q 483.95 703.81 483.83 705.29   L 483.77 706.01   Q 483.65 707.45 485.00 707.87   Q 489.13 709.14 493.38 710.99   Q 497.37 712.72 501.71 713.77   Q 516.38 717.34 532.01 717.47   Q 540.40 717.54 546.21 715.81   Q 550.23 714.61 553.94 714.13   Q 559.46 713.41 565.58 711.12   Q 566.26 710.86 568.86 708.99   Q 569.27 708.70 569.75 708.58   Q 571.37 708.19 571.90 707.70   Q 573.17 706.53 572.35 705.07   Q 571.52 703.60 570.47 703.72   Q 570.02 703.77 569.76 704.28   L 569.17 705.38   Q 568.92 705.86 568.57 705.57   Z" />
<path d="   M 386.56 600.76   Q 386.66 602.14 386.63 602.30   Q 386.52 602.91 386.14 602.50   Q 380.32 596.13 376.84 588.84   Q 373.61 582.08 373.27 571.86   Q 372.84 559.11 375.36 548.93   C 377.10 541.87 381.44 534.38 387.77 530.62   A 0.46 0.46 0.0 0 1 388.45 531.07   Q 384.03 567.46 386.56 600.76   Z" />
<path d="   M 515.14 644.20   C 507.50 642.93 498.31 643.37 490.67 646.34   C 486.53 647.96 483.24 652.14 478.30 652.08   Q 475.13 652.04 472.73 651.56   A 0.72 0.72 0.0 0 1 472.36 650.34   C 483.68 639.13 498.75 634.92 514.66 637.42   Q 520.34 638.32 527.09 640.69   Q 534.96 643.45 550.08 649.66   Q 551.73 650.34 553.53 650.86   Q 555.23 651.35 553.54 651.85   C 545.50 654.25 537.59 654.70 529.78 651.04   Q 528.28 650.34 521.91 646.26   Q 519.93 644.99 515.14 644.20   Z" />
<path d="   M 705.95 1024.00   L 529.59 1024.00   L 547.44 936.17   Q 547.91 933.85 545.70 933.94   Q 545.66 933.94 545.61 933.93   Q 543.44 933.44 542.86 935.97   L 522.80 1024.00   L 336.50 1024.00   Q 336.52 1021.50 336.71 1018.99   Q 343.70 927.13 349.01 848.78   Q 349.55 840.84 350.55 838.32   C 352.61 833.08 356.14 829.36 360.06 825.43   Q 361.35 824.13 360.18 822.68   Q 360.13 822.63 360.13 822.62   Q 358.89 821.19 357.46 822.37   Q 345.80 832.06 344.59 844.84   Q 341.42 878.44 339.59 907.30   A 0.22 0.22 0.0 0 1 339.25 907.46   C 330.21 901.26 322.10 895.26 313.13 888.00   Q 276.95 858.72 230.34 821.28   A 0.40 0.40 0.0 0 1 230.40 820.62   Q 234.31 818.42 237.36 816.11   Q 270.50 791.00 292.91 756.14   Q 296.46 750.61 300.09 742.62   Q 305.67 730.29 305.37 716.32   Q 305.26 711.19 303.62 706.68   Q 302.97 704.89 304.52 705.99   Q 306.06 707.08 310.20 710.07   Q 327.18 722.33 392.22 770.29   Q 403.04 778.27 404.85 779.45   C 408.26 781.65 409.63 776.62 406.94 775.78   Q 405.06 775.19 406.90 774.55   Q 417.14 771.00 429.55 769.47   Q 449.42 767.02 467.51 767.26   Q 470.41 767.30 471.45 767.58   Q 471.95 767.71 471.89 768.22   C 471.28 773.35 471.14 777.90 473.62 782.13   C 477.89 789.40 486.19 793.63 494.22 795.80   Q 519.64 802.64 545.94 800.13   Q 561.38 798.66 574.19 792.96   C 580.71 790.05 588.69 783.62 588.99 776.08   Q 589.12 772.78 588.77 767.75   A 0.55 0.55 0.0 0 1 589.30 767.16   Q 613.02 766.63 636.77 770.29   Q 639.43 770.70 644.30 771.88   Q 649.11 773.04 651.93 773.80   Q 663.02 776.79 676.35 783.46   Q 692.98 791.77 704.42 802.64   Q 711.67 809.53 718.49 820.97   Q 718.50 821.00 722.14 826.88   Q 757.61 884.21 784.54 926.28   A 0.65 0.65 0.0 0 1 784.45 927.10   C 783.02 928.49 780.45 930.56 778.92 932.06   Q 754.07 956.37 718.58 990.68   A 0.55 0.53 48.3 0 1 717.79 990.62   L 711.68 983.24   Q 711.33 982.81 711.34 982.26   Q 711.60 936.86 710.82 895.51   C 710.67 887.43 710.76 880.39 704.97 874.96   Q 704.58 874.60 704.05 874.60   Q 703.03 874.60 702.38 875.14   A 1.76 1.76 0.0 0 0 701.94 877.27   Q 703.35 880.13 704.86 882.66   C 706.18 884.87 706.11 888.34 706.08 891.33   Q 705.93 906.35 705.89 928.40   C 705.88 932.42 705.51 934.70 705.87 938.07   Q 706.00 939.23 705.95 942.50   Q 705.76 954.52 705.89 965.83   Q 705.93 968.57 705.65 973.33   Q 705.53 975.36 705.70 980.77   Q 706.01 991.13 705.85 1007.49   Q 705.84 1008.26 705.84 1008.94   Q 705.79 1016.48 705.95 1024.00   Z" />
<path d="   M 234.73 787.45   C 240.91 789.91 243.72 795.91 246.58 801.49   A 0.50 0.50 0.0 0 1 246.46 802.10   Q 237.47 809.82 228.82 815.55   Q 228.30 815.91 227.56 816.10   A 0.57 0.57 0.0 0 1 226.84 815.51   Q 227.77 800.96 233.97 787.75   A 0.59 0.59 0.0 0 1 234.73 787.45   Z" />
<path d="   M 786.53 929.98   A 0.32 0.31 51.5 0 1 787.01 930.04   L 800.30 950.66   A 0.51 0.50 -38.6 0 1 800.23 951.29   L 736.20 1013.59   A 0.74 0.74 0.0 0 1 735.11 1013.51   L 720.04 994.30   A 0.35 0.35 0.0 0 1 720.09 993.80   Q 725.37 989.64 729.43 985.68   Q 730.87 984.28 786.53 929.98   Z" />
<path d="   M 800.45 1024.00   L 711.30 1024.00   L 711.22 995.72   A 0.33 0.33 0.0 0 1 711.59 995.39   Q 715.82 995.83 718.22 999.15   Q 726.01 1009.92 734.07 1019.04   A 2.44 2.44 0.0 0 0 737.58 1019.21   Q 759.98 998.14 779.95 978.21   A 0.80 0.80 0.0 0 1 781.25 978.47   L 800.45 1024.00   Z" />
</g>
<g fill="#fffafb" id="Group-000000">
<rect x="-4.61" y="-11.73" transform="translate(669.01,44.43) rotate(25.1)" width="9.22" height="23.46" rx="4.44" />
<rect x="-4.80" y="-16.80" transform="translate(635.43,63.73) rotate(18.0)" width="9.60" height="33.60" rx="4.66" />
<rect x="-5.46" y="-10.25" transform="translate(578.57,75.90) rotate(-0.1)" width="10.92" height="20.50" rx="4.79" />
<path d="   M 527.90 132.06   Q 529.96 129.48 532.85 131.25   Q 532.96 131.32 532.97 131.32   Q 535.72 133.32 534.16 136.11   Q 529.51 144.48 526.32 150.57   C 525.17 152.76 523.12 154.16 520.66 153.38   C 517.05 152.23 517.74 148.16 519.24 145.44   C 521.73 140.94 524.15 136.77 527.90 132.06   Z" />
<rect x="-4.75" y="-24.59" transform="translate(487.93,155.57) rotate(0.3)" width="9.50" height="49.18" rx="4.44" />
<rect x="-2.00" y="-14.10" transform="translate(415.76,176.22) rotate(-2.6)" width="4.00" height="28.20" rx="1.96" />
<path d="   M 614.29 268.11   Q 600.81 264.11 589.76 254.73   C 578.61 245.26 569.12 232.60 563.59 218.86   Q 559.79 209.42 560.08 202.76   C 560.71 188.63 571.46 174.58 584.29 168.84   Q 594.00 164.49 605.80 166.20   Q 613.92 167.38 624.37 173.28   C 634.86 179.20 645.65 186.56 653.50 195.32   Q 658.35 200.72 661.51 209.25   Q 666.53 222.75 664.75 237.13   Q 664.68 237.70 665.20 237.91   C 675.25 241.94 682.47 247.16 683.82 258.78   Q 684.30 262.90 684.08 265.97   C 683.67 271.58 679.05 278.37 675.12 281.87   Q 659.03 296.20 656.59 298.32   Q 646.74 306.86 633.71 304.35   C 625.92 302.86 621.34 297.23 617.78 290.67   Q 612.09 280.17 614.66 268.75   Q 614.77 268.25 614.29 268.11   Z   M 659.33 240.83   A 1.28 1.28 0.0 0 1 658.93 239.41   Q 660.01 236.38 660.23 232.23   C 660.95 218.49 655.76 203.10 645.11 193.85   Q 633.44 183.71 618.62 175.89   C 611.09 171.92 602.25 169.09 594.19 170.74   Q 588.32 171.94 584.00 174.48   C 574.89 179.83 567.41 189.75 565.53 200.22   Q 565.17 202.26 565.40 205.29   Q 565.65 208.64 566.18 210.30   Q 574.66 236.44 596.02 253.35   Q 604.18 259.81 614.16 262.97   Q 615.44 263.38 618.82 263.50   Q 620.65 263.57 621.30 265.56   Q 621.54 266.29 620.52 267.94   Q 619.14 270.16 619.00 271.93   Q 618.13 283.44 625.43 292.93   Q 629.57 298.31 634.65 299.56   C 642.60 301.52 649.20 298.34 655.26 292.74   Q 661.39 287.06 670.19 279.44   C 675.90 274.50 680.09 268.07 678.87 260.21   Q 677.79 253.24 674.49 249.45   C 671.99 246.56 667.05 243.61 662.67 242.38   Q 660.46 241.76 659.33 240.83   Z" />
<rect x="-3.39" y="-7.56" transform="translate(208.22,178.95) rotate(9.0)" width="6.78" height="15.12" rx="3.23" />
<rect x="-2.27" y="-17.01" transform="translate(225.72,190.99) rotate(15.0)" width="4.54" height="34.02" rx="2.23" />
<rect x="-2.13" y="-14.28" transform="translate(429.55,190.60) rotate(9.7)" width="4.26" height="28.56" rx="2.08" />
<rect x="-2.59" y="-6.53" transform="translate(305.60,185.72) rotate(-8.3)" width="5.18" height="13.06" rx="2.48" />
<rect x="-3.99" y="-10.40" transform="translate(238.33,197.11) rotate(18.4)" width="7.98" height="20.80" rx="3.84" />
<ellipse cx="0.00" cy="0.00" transform="translate(375.27,197.76) rotate(113.0)" rx="5.67" ry="3.18" />
<path d="   M 709.19 217.94   C 712.43 214.87 722.35 207.20 715.82 204.12   Q 712.78 202.69 708.78 203.76   Q 707.47 204.12 706.79 203.89   Q 705.98 203.62 705.82 202.53   C 705.37 199.49 708.87 198.24 711.46 198.40   C 715.03 198.63 719.34 199.70 721.48 202.77   Q 724.74 207.46 720.75 212.97   C 718.62 215.89 714.47 220.55 710.62 221.87   A 1.73 1.73 0.0 0 1 708.36 220.60   Q 708.02 219.04 709.19 217.94   Z" />
<path d="   M 529.77 236.52   C 529.87 238.48 531.58 239.60 533.20 239.85   Q 539.72 240.86 542.76 241.82   Q 544.61 242.41 544.20 244.52   Q 544.20 244.53 543.97 244.98   A 2.38 2.37 -73.8 0 1 541.64 246.27   Q 539.30 246.05 532.32 244.65   Q 522.46 242.68 524.73 232.54   Q 526.64 223.99 534.97 218.29   Q 537.96 216.24 539.73 218.83   Q 539.78 218.90 539.95 219.35   A 1.64 1.64 0.0 0 1 539.42 221.24   C 534.39 225.08 529.46 229.86 529.77 236.52   Z" />
<path d="   M 339.59 242.22   Q 340.20 243.50 341.82 244.38   Q 349.31 248.44 352.09 250.91   C 355.09 253.58 355.56 256.64 353.58 260.42   Q 348.05 270.93 337.03 274.98   Q 328.40 278.16 321.29 276.12   C 314.21 274.08 313.37 267.59 311.66 260.89   C 310.94 258.08 304.21 257.34 299.88 256.42   Q 294.89 255.37 293.85 250.67   Q 292.84 246.08 293.22 238.77   C 293.76 228.34 306.63 223.32 314.59 219.85   Q 318.10 218.32 320.69 218.93   C 327.06 220.43 331.07 225.55 335.66 231.20   Q 338.04 234.14 339.09 236.77   Q 339.97 238.96 339.47 241.14   Q 339.34 241.70 339.59 242.22   Z   M 337.86 247.44   C 334.44 245.30 333.27 242.91 334.30 239.15   A 2.15 2.15 0.0 0 0 334.00 237.37   Q 330.00 231.50 326.04 227.53   C 323.04 224.51 320.49 222.99 316.41 224.38   Q 306.59 227.73 300.21 234.22   C 297.17 237.30 298.14 246.10 299.11 249.69   Q 299.59 251.47 301.05 251.79   Q 307.29 253.18 310.49 254.04   C 314.13 255.01 316.28 257.43 317.14 261.14   C 318.00 264.89 318.38 271.01 323.98 272.03   Q 329.77 273.09 335.84 270.36   Q 345.35 266.08 349.52 256.93   A 1.23 1.23 0.0 0 0 349.55 255.99   C 348.67 253.63 342.52 250.35 337.86 247.44   Z" />
<rect x="-4.98" y="-26.33" transform="translate(808.95,248.51) rotate(33.9)" width="9.96" height="52.66" rx="4.89" />
<path d="   M 440.34 302.23   C 442.72 307.62 442.71 311.30 438.15 315.35   Q 430.24 322.37 419.27 322.44   C 408.96 322.51 397.69 315.69 402.89 303.64   Q 409.17 289.10 422.51 279.74   Q 424.25 278.51 429.61 275.12   Q 431.64 273.84 433.00 271.02   Q 435.00 266.85 436.85 263.88   Q 445.29 250.33 460.44 244.99   Q 464.41 243.58 466.90 244.33   Q 470.96 245.55 472.76 248.07   Q 476.94 253.89 477.65 262.77   Q 478.15 269.18 474.83 275.78   Q 471.23 282.95 467.11 287.11   C 463.36 290.89 457.65 292.06 450.44 294.16   Q 449.51 294.43 447.12 295.81   C 444.59 297.27 442.51 300.04 440.57 301.40   Q 440.12 301.72 440.34 302.23   Z   M 434.45 299.72   Q 434.61 299.56 441.71 293.21   C 443.32 291.77 444.77 291.07 446.65 290.41   Q 447.18 290.23 458.49 286.72   C 463.77 285.08 467.36 278.82 469.72 274.22   C 473.47 266.92 473.10 258.81 468.94 252.02   C 466.74 248.43 463.80 249.07 460.31 250.55   Q 446.06 256.59 439.56 269.97   C 437.25 274.73 435.39 277.98 431.54 280.09   Q 416.91 288.13 409.11 302.86   C 405.70 309.29 406.22 313.28 413.23 316.24   C 420.90 319.49 429.90 316.07 435.57 310.60   C 436.85 309.37 437.04 307.94 436.19 306.31   Q 434.20 302.44 434.19 302.41   A 2.49 2.07 55.7 0 1 434.45 299.72   Z" />
<rect x="-10.92" y="-4.30" transform="translate(837.59,270.51) rotate(-20.8)" width="21.84" height="8.60" rx="4.14" />
<path d="   M 280.74 306.44   A 0.85 0.85 0.0 0 0 279.44 306.06   Q 273.40 310.54 271.17 312.12   Q 268.21 314.23 264.83 311.68   C 262.20 309.70 260.07 306.88 256.82 305.45   Q 255.40 304.82 248.89 302.80   Q 246.16 301.94 245.26 299.17   Q 244.20 295.89 243.90 289.54   Q 243.73 285.86 245.26 282.55   C 247.38 277.95 252.60 276.46 257.97 275.71   Q 266.61 274.52 272.87 279.40   Q 274.78 280.90 282.24 286.75   A 3.19 3.19 0.0 0 0 285.49 287.16   Q 288.04 286.04 290.39 285.14   C 296.13 282.92 302.52 285.91 306.96 290.03   C 317.79 300.07 305.27 310.72 296.23 314.03   C 290.17 316.25 284.10 315.71 281.71 309.07   Q 281.16 307.55 280.74 306.44   Z   M 283.39 301.91   C 285.89 304.51 285.55 312.83 292.51 310.73   Q 300.05 308.47 304.62 302.92   C 309.63 296.84 303.61 291.61 298.13 289.42   C 294.02 287.77 290.73 289.15 286.52 290.97   Q 284.48 291.85 283.06 291.45   C 278.38 290.12 273.28 284.84 270.91 283.10   Q 262.46 276.90 252.61 281.38   Q 248.74 283.14 248.39 287.20   Q 248.02 291.42 249.05 296.05   Q 249.60 298.52 250.85 298.96   Q 251.79 299.29 258.67 301.62   Q 260.63 302.29 261.67 303.15   Q 263.81 304.92 267.49 308.18   A 1.36 1.36 0.0 0 0 269.27 308.21   C 271.52 306.33 279.82 299.83 282.56 301.26   A 3.35 1.63 64.0 0 1 283.39 301.91   Z" />
<rect x="-11.60" y="-3.24" transform="translate(741.04,288.20) rotate(-40.8)" width="23.20" height="6.48" rx="3.14" />
<rect x="-11.38" y="-2.05" transform="translate(749.12,292.64) rotate(-40.6)" width="22.76" height="4.10" rx="2.00" />
<path d="   M 568.00 289.13   Q 569.89 286.89 572.61 287.94   Q 572.72 287.98 572.72 287.98   A 2.48 2.16 -68.0 0 1 573.95 291.53   Q 569.42 299.46 568.06 303.57   Q 565.29 311.94 564.99 312.63   A 4.40 4.14 12.8 0 1 560.80 315.09   Q 560.66 315.08 559.71 314.53   Q 557.25 313.11 557.79 310.32   Q 560.04 298.57 568.00 289.13   Z" />
<path d="   M 593.66 300.34   Q 596.22 302.31 594.64 304.96   C 590.67 311.66 589.59 316.39 586.87 326.08   Q 586.19 328.51 583.72 329.02   Q 582.62 329.25 582.50 329.21   Q 578.63 327.82 579.09 324.57   C 580.03 317.93 582.21 310.51 585.77 304.84   Q 587.90 301.44 590.96 299.97   Q 592.33 299.31 593.66 300.34   Z" />
<path d="   M 806.09 1024.00   L 800.45 1024.00   L 781.25 978.47   A 0.80 0.80 0.0 0 0 779.95 978.21   Q 759.98 998.14 737.58 1019.21   A 2.44 2.44 0.0 0 1 734.07 1019.04   Q 726.01 1009.92 718.22 999.15   Q 715.82 995.83 711.59 995.39   A 0.33 0.33 0.0 0 0 711.22 995.72   L 711.30 1024.00   L 705.95 1024.00   Q 705.79 1016.48 705.84 1008.94   Q 705.84 1008.26 705.85 1007.49   Q 706.01 991.13 705.70 980.77   Q 705.53 975.36 705.65 973.33   Q 705.93 968.57 705.89 965.83   Q 705.76 954.52 705.95 942.50   Q 706.00 939.23 705.87 938.07   C 705.51 934.70 705.88 932.42 705.89 928.40   Q 705.93 906.35 706.08 891.33   C 706.11 888.34 706.18 884.87 704.86 882.66   Q 703.35 880.13 701.94 877.27   A 1.76 1.76 0.0 0 1 702.38 875.14   Q 703.03 874.60 704.05 874.60   Q 704.58 874.60 704.97 874.96   C 710.76 880.39 710.67 887.43 710.82 895.51   Q 711.60 936.86 711.34 982.26   Q 711.33 982.81 711.68 983.24   L 717.79 990.62   A 0.55 0.53 48.3 0 0 718.58 990.68   Q 754.07 956.37 778.92 932.06   C 780.45 930.56 783.02 928.49 784.45 927.10   A 0.65 0.65 0.0 0 0 784.54 926.28   Q 757.61 884.21 722.14 826.88   Q 718.50 821.00 718.49 820.97   Q 711.67 809.53 704.42 802.64   Q 692.98 791.77 676.35 783.46   Q 663.02 776.79 651.93 773.80   Q 649.11 773.04 644.30 771.88   Q 639.43 770.70 636.77 770.29   Q 613.02 766.63 589.30 767.16   A 0.55 0.55 0.0 0 0 588.77 767.75   Q 589.12 772.78 588.99 776.08   C 588.69 783.62 580.71 790.05 574.19 792.96   Q 561.38 798.66 545.94 800.13   Q 519.64 802.64 494.22 795.80   C 486.19 793.63 477.89 789.40 473.62 782.13   C 471.14 777.90 471.28 773.35 471.89 768.22   Q 471.95 767.71 471.45 767.58   Q 470.41 767.30 467.51 767.26   Q 449.42 767.02 429.55 769.47   Q 417.14 771.00 406.90 774.55   Q 405.06 775.19 406.94 775.78   C 409.63 776.62 408.26 781.65 404.85 779.45   Q 403.04 778.27 392.22 770.29   Q 327.18 722.33 310.20 710.07   Q 306.06 707.08 304.52 705.99   Q 302.97 704.89 303.62 706.68   Q 305.26 711.19 305.37 716.32   Q 305.67 730.29 300.09 742.62   Q 296.46 750.61 292.91 756.14   Q 270.50 791.00 237.36 816.11   Q 234.31 818.42 230.40 820.62   A 0.40 0.40 0.0 0 0 230.34 821.28   Q 276.95 858.72 313.13 888.00   C 322.10 895.26 330.21 901.26 339.25 907.46   A 0.22 0.22 0.0 0 0 339.59 907.30   Q 341.42 878.44 344.59 844.84   Q 345.80 832.06 357.46 822.37   Q 358.89 821.19 360.13 822.62   Q 360.13 822.63 360.18 822.68   Q 361.35 824.13 360.06 825.43   C 356.14 829.36 352.61 833.08 350.55 838.32   Q 349.55 840.84 349.01 848.78   Q 343.70 927.13 336.71 1018.99   Q 336.52 1021.50 336.50 1024.00   L 331.06 1024.00   L 338.84 916.85   Q 338.87 916.45 338.56 916.19   Q 331.57 910.56 324.94 904.23   Q 319.73 899.25 311.10 892.44   Q 265.96 856.80 226.34 823.82   C 224.93 822.65 223.66 822.12 222.57 821.05   Q 222.19 820.68 222.16 820.15   Q 221.62 810.41 223.54 803.06   Q 225.97 793.81 230.35 784.73   A 0.91 0.91 0.0 0 0 230.07 783.60   Q 193.44 756.54 164.50 733.08   Q 153.89 724.48 144.05 714.79   Q 133.65 704.55 127.29 693.05   C 123.21 685.67 121.22 676.49 121.54 667.44   Q 122.25 647.74 128.90 631.40   Q 133.24 620.75 141.64 604.64   Q 152.39 584.04 161.74 567.51   Q 214.80 473.73 260.99 398.98   Q 276.96 373.12 306.86 329.94   Q 308.75 327.22 310.56 325.00   C 313.95 320.87 319.06 314.58 325.23 316.35   Q 326.88 316.83 327.41 316.93   Q 327.90 317.02 328.18 316.61   Q 330.06 313.90 331.57 312.63   Q 337.57 307.60 343.62 311.85   Q 344.13 312.21 344.46 311.67   C 347.04 307.51 352.17 304.24 356.91 306.68   C 364.34 310.51 362.60 318.77 360.80 325.34   A 0.34 0.34 0.0 0 0 361.31 325.73   Q 364.34 323.95 367.46 325.88   C 373.74 329.76 373.34 336.13 371.44 342.72   Q 365.80 362.20 359.55 381.81   Q 359.15 383.05 360.11 382.17   Q 370.70 372.42 389.22 355.96   C 391.07 354.31 394.43 352.02 396.94 351.63   Q 404.44 350.47 407.66 356.83   Q 410.95 363.32 408.26 369.25   Q 407.21 371.55 401.17 378.35   Q 361.67 422.80 351.04 433.78   C 345.15 439.87 338.49 442.80 330.88 445.20   A 3.51 3.51 0.0 0 0 328.76 447.04   L 231.48 650.90   Q 230.94 652.04 231.90 652.84   Q 235.48 655.85 244.19 662.37   Q 270.91 682.40 297.61 700.68   A 0.31 0.31 0.0 0 0 298.10 700.37   Q 295.11 681.56 298.28 662.51   C 300.52 649.04 306.32 638.33 316.87 629.45   C 327.15 620.80 341.72 613.87 350.51 608.75   Q 362.59 601.71 370.55 590.58   Q 371.39 589.41 371.08 588.55   Q 367.85 579.52 368.04 567.78   C 368.27 553.69 370.02 540.21 379.65 530.48   Q 383.43 526.67 388.99 524.99   Q 389.45 524.85 389.51 524.37   Q 392.09 504.92 397.35 486.16   C 399.53 478.40 403.51 467.69 405.79 459.98   Q 405.92 459.52 405.72 459.08   Q 404.40 456.13 404.99 453.27   Q 405.64 450.12 407.79 444.56   Q 409.36 440.49 415.08 431.31   Q 418.87 425.23 425.24 416.37   Q 425.27 416.33 425.21 416.18   L 425.21 416.17   Q 425.16 416.02 425.01 416.20   Q 417.26 425.63 412.12 433.11   Q 406.38 441.45 403.40 449.90   Q 402.34 452.89 402.47 456.68   Q 402.48 456.91 402.26 456.85   C 394.77 454.91 389.16 447.89 387.34 440.64   Q 385.80 434.53 386.45 426.46   C 387.41 414.52 392.51 402.13 401.57 394.64   Q 408.05 389.27 416.06 386.77   Q 423.51 384.44 433.77 383.09   Q 442.80 381.90 451.88 380.09   Q 458.12 378.85 465.38 375.56   C 482.57 367.77 494.96 361.89 511.25 360.14   Q 523.13 358.87 535.96 360.20   Q 553.69 362.03 574.88 367.59   Q 596.13 373.16 616.08 379.80   Q 650.19 391.14 675.03 414.64   Q 685.83 424.86 695.63 436.99   Q 701.63 444.42 706.75 453.19   Q 723.19 481.36 728.25 514.81   Q 730.58 530.22 731.50 541.07   Q 733.10 560.08 734.35 569.23   C 736.26 583.18 740.36 596.77 749.06 607.98   Q 754.97 615.61 762.66 622.26   Q 769.36 628.05 783.28 639.62   Q 791.86 646.75 800.47 656.79   Q 820.46 680.13 826.39 710.61   Q 830.66 732.54 825.04 754.56   C 821.95 766.66 816.66 778.49 807.75 786.85   Q 801.60 792.62 794.02 796.18   Q 788.57 798.74 784.53 795.43   Q 781.73 793.13 783.04 789.47   Q 791.05 767.09 792.37 761.58   Q 792.59 760.64 794.90 747.87   Q 796.96 736.48 796.36 725.00   Q 795.10 701.09 785.24 680.63   Q 781.71 673.31 775.83 665.59   Q 769.83 657.71 764.29 651.73   Q 762.91 650.25 761.82 650.05   Q 760.13 649.74 761.28 651.07   C 762.20 652.13 763.86 653.53 764.93 655.00   Q 771.67 664.28 774.71 668.60   Q 775.12 669.17 775.91 669.93   Q 776.92 670.89 777.05 671.30   C 778.26 675.03 780.31 677.23 781.86 680.70   Q 790.79 700.72 792.21 722.52   Q 792.47 726.47 792.19 729.65   Q 791.89 733.07 792.07 734.42   Q 792.33 736.31 791.79 739.11   C 791.31 741.59 791.05 747.55 789.52 751.51   C 788.73 753.54 789.08 755.93 788.42 758.25   Q 786.84 763.81 786.69 764.23   Q 781.60 779.20 780.31 783.07   C 778.69 787.95 776.45 790.26 778.62 795.86   Q 778.80 796.33 778.53 796.76   Q 768.51 812.73 757.18 821.11   Q 746.14 829.27 730.98 831.38   Q 730.55 831.44 730.78 831.79   L 806.64 951.10   A 1.44 1.37 52.4 0 1 806.45 952.89   L 785.30 972.79   A 1.52 1.48 57.1 0 0 784.96 974.48   L 806.09 1024.00   Z   M 333.88 387.10   Q 332.33 385.88 333.03 384.03   Q 342.09 360.09 347.44 346.45   Q 353.60 330.73 357.35 317.77   A 5.18 5.10 25.2 0 0 355.27 312.09   Q 355.25 312.08 355.12 311.99   Q 351.84 309.70 350.17 313.41   Q 335.31 346.43 321.90 377.16   Q 321.15 378.87 320.26 379.91   A 1.85 1.85 0.0 0 1 317.42 379.85   Q 316.49 378.69 317.18 376.72   Q 318.74 372.30 319.77 369.77   Q 329.04 346.93 341.29 319.63   Q 342.56 316.80 339.51 315.64   Q 339.38 315.60 339.38 315.59   Q 336.23 314.54 334.43 317.42   Q 317.56 344.44 302.64 371.25   A 2.20 1.65 -62.8 0 1 300.28 372.40   Q 300.25 372.39 300.21 372.37   A 2.07 2.06 -66.9 0 1 299.04 369.47   Q 313.30 341.85 324.59 322.66   Q 324.89 322.16 324.35 321.93   C 321.09 320.56 318.30 323.89 316.13 326.63   Q 311.83 332.04 308.04 337.54   Q 288.25 366.29 268.77 396.26   Q 262.44 406.00 256.36 416.11   Q 213.07 488.12 176.11 552.75   Q 173.12 557.97 166.37 570.22   Q 152.22 595.91 145.57 608.82   C 138.06 623.41 131.26 636.82 128.99 651.02   Q 127.99 657.25 127.46 661.90   Q 124.84 684.64 140.05 702.53   Q 146.63 710.26 152.17 715.34   Q 167.87 729.73 185.54 743.39   Q 222.97 772.33 232.79 779.67   Q 234.71 781.11 242.08 787.04   Q 246.58 790.65 253.48 795.12   Q 253.91 795.40 254.32 795.07   Q 254.90 794.60 257.21 792.22   Q 272.58 776.36 283.77 760.53   Q 288.24 754.21 293.57 744.38   Q 302.05 728.74 300.08 712.69   C 299.49 707.81 296.18 705.69 292.01 702.81   Q 258.69 679.79 227.17 654.94   C 226.14 654.12 225.22 653.06 225.64 651.55   Q 226.17 649.65 226.98 647.97   Q 279.14 539.84 323.91 445.25   Q 323.91 445.25 324.41 444.04   Q 325.39 441.67 328.04 441.00   Q 337.61 438.59 344.45 433.07   Q 346.24 431.62 356.67 420.06   Q 376.45 398.15 398.16 374.10   Q 399.20 372.95 397.66 373.12   Q 394.95 373.42 393.96 370.98   C 392.27 366.82 399.14 361.72 402.06 360.04   Q 403.54 359.19 402.23 358.08   L 400.80 356.86   Q 399.45 355.70 397.89 356.51   Q 395.25 357.87 391.81 360.80   Q 390.51 361.91 362.38 386.87   Q 358.29 390.49 354.33 393.82   Q 352.85 395.06 351.50 393.45   A 0.88 0.88 0.0 0 1 351.44 392.39   Q 352.17 391.29 351.85 389.45   Q 351.67 388.45 352.37 386.36   Q 358.98 366.47 366.22 342.00   C 367.39 338.03 369.08 332.85 364.78 330.55   C 361.48 328.79 358.87 333.75 357.83 336.13   Q 355.01 342.57 354.18 344.71   Q 344.96 368.56 337.27 386.03   A 2.71 2.18 -71.8 0 1 334.72 387.68   Q 334.58 387.66 333.88 387.10   Z   M 399.51 371.53   C 401.21 369.69 403.46 368.17 404.12 366.08   Q 405.33 362.26 402.14 364.91   Q 400.58 366.20 398.59 369.35   Q 398.14 370.06 398.77 371.41   Q 399.06 372.02 399.51 371.53   Z   M 603.88 448.51   Q 588.21 456.60 571.93 461.04   Q 555.92 465.41 541.58 464.32   Q 514.43 462.26 494.30 441.30   Q 486.54 433.22 482.01 422.07   Q 477.25 410.36 483.17 399.17   Q 487.44 391.10 492.61 386.42   Q 492.71 386.34 492.63 386.23   L 492.63 386.23   Q 492.55 386.11 492.43 386.20   Q 485.55 392.06 481.05 399.80   C 478.17 404.77 477.98 408.28 478.30 414.32   Q 478.42 416.58 477.19 417.95   Q 472.68 422.98 456.45 442.21   C 446.91 453.53 435.04 462.54 420.28 465.05   C 417.16 465.57 412.85 465.16 410.25 465.07   Q 409.72 465.05 409.52 465.55   Q 401.45 486.36 397.39 507.63   Q 389.80 547.38 390.87 587.23   Q 391.36 605.31 394.33 634.49   Q 395.08 641.95 397.01 646.65   C 402.37 659.76 412.44 671.35 423.45 680.33   Q 434.49 689.33 448.14 695.48   C 456.00 699.01 463.06 701.98 470.64 703.96   C 472.40 704.42 473.95 703.89 475.44 703.92   A 1.88 1.88 0.0 0 1 477.28 705.81   Q 476.85 748.58 476.67 758.75   Q 476.58 764.33 476.54 770.67   Q 476.52 776.02 477.53 778.30   C 481.95 788.25 496.41 791.67 506.28 793.53   Q 518.17 795.76 528.03 796.22   Q 547.67 797.12 566.50 791.03   Q 574.40 788.47 580.28 783.06   Q 584.23 779.41 584.37 773.77   Q 585.12 741.64 585.16 705.51   A 1.53 1.53 0.0 0 1 586.18 704.07   Q 620.76 691.81 643.80 664.55   Q 653.83 652.68 658.85 639.38   Q 665.55 621.62 667.42 601.36   A 1.53 1.53 0.0 0 1 669.98 600.39   Q 676.84 606.82 685.59 602.31   Q 690.03 600.01 692.89 597.14   Q 714.29 575.61 709.21 545.04   Q 708.44 540.40 705.79 535.43   C 701.14 526.72 693.56 529.31 687.08 534.00   Q 672.49 544.58 668.38 562.64   Q 668.00 564.31 666.24 573.24   C 665.35 577.74 661.37 581.63 656.59 578.68   Q 654.63 577.48 653.19 574.56   Q 647.05 562.05 647.06 547.99   Q 647.06 537.33 649.25 524.29   Q 650.10 519.19 650.20 516.04   Q 650.42 508.83 650.14 507.71   Q 648.75 502.13 644.12 498.43   Q 641.38 496.22 630.50 488.31   Q 624.00 483.59 617.77 477.03   Q 607.20 465.91 606.41 450.37   C 606.19 446.27 607.10 441.14 608.61 437.64   Q 612.81 427.86 620.22 418.72   Q 620.94 417.83 625.35 412.87   Q 625.46 412.74 625.31 412.65   L 625.03 412.48   Q 624.87 412.37 624.73 412.50   Q 615.51 420.97 609.18 431.40   Q 606.65 435.57 605.47 439.40   Q 604.11 443.82 604.11 448.14   A 0.42 0.42 0.0 0 1 603.88 448.51   Z   M 386.56 600.76   Q 384.03 567.46 388.45 531.07   A 0.46 0.46 0.0 0 0 387.77 530.62   C 381.44 534.38 377.10 541.87 375.36 548.93   Q 372.84 559.11 373.27 571.86   Q 373.61 582.08 376.84 588.84   Q 380.32 596.13 386.14 602.50   Q 386.52 602.91 386.63 602.30   Q 386.66 602.14 386.56 600.76   Z   M 234.73 787.45   A 0.59 0.59 0.0 0 0 233.97 787.75   Q 227.77 800.96 226.84 815.51   A 0.57 0.57 0.0 0 0 227.56 816.10   Q 228.30 815.91 228.82 815.55   Q 237.47 809.82 246.46 802.10   A 0.50 0.50 0.0 0 0 246.58 801.49   C 243.72 795.91 240.91 789.91 234.73 787.45   Z   M 786.53 929.98   Q 730.87 984.28 729.43 985.68   Q 725.37 989.64 720.09 993.80   A 0.35 0.35 0.0 0 0 720.04 994.30   L 735.11 1013.51   A 0.74 0.74 0.0 0 0 736.20 1013.59   L 800.23 951.29   A 0.51 0.50 -38.6 0 0 800.30 950.66   L 787.01 930.04   A 0.32 0.31 51.5 0 0 786.53 929.98   Z" />
<path d="   M 465.13 332.44   Q 465.68 336.63 466.70 343.15   Q 467.02 345.16 464.87 345.43   Q 464.78 345.44 464.78 345.44   A 2.80 2.77 84.6 0 1 462.05 343.16   Q 460.80 336.43 460.45 333.00   Q 459.98 329.58 459.61 322.74   A 2.80 2.77 81.7 0 1 461.72 319.88   Q 461.72 319.88 461.81 319.87   Q 463.96 319.63 464.13 321.65   Q 464.67 328.23 465.13 332.44   Z" />
<rect x="-3.67" y="-8.02" transform="translate(475.48,331.10) rotate(-0.6)" width="7.34" height="16.04" rx="3.50" />
<path d="   M 636.99 342.46   Q 635.54 345.05 633.67 348.94   Q 632.99 350.37 631.76 350.86   Q 630.55 351.34 629.29 350.78   Q 627.07 349.79 627.94 346.65   Q 628.81 343.50 631.21 339.22   Q 633.62 334.93 635.85 332.55   Q 638.08 330.17 640.08 331.55   Q 641.22 332.33 641.44 333.62   Q 641.66 334.92 640.79 336.25   Q 638.45 339.87 636.99 342.46   Z" />
<rect x="-2.13" y="-10.60" transform="translate(239.65,344.70) rotate(-4.9)" width="4.26" height="21.20" rx="2.07" />
<path d="   M 641.68 358.79   A 1.05 1.05 0.0 0 1 640.22 359.05   L 639.59 358.62   A 5.68 2.79 -55.1 0 1 640.56 352.36   L 647.89 341.85   A 5.68 2.79 -55.1 0 1 653.43 338.78   L 654.05 339.22   A 1.05 1.05 0.0 0 1 654.31 340.68   L 641.68 358.79   Z" />
<rect x="-2.48" y="-8.11" transform="translate(253.08,350.00) rotate(-12.6)" width="4.96" height="16.22" rx="2.39" />
<rect x="-2.42" y="-4.20" transform="translate(264.45,348.21) rotate(-8.4)" width="4.84" height="8.40" rx="2.27" />
<path d="   M 702.13 357.55   Q 698.05 362.43 697.22 363.99   Q 694.70 368.74 692.40 371.96   A 1.73 1.72 30.6 0 1 690.24 372.50   L 689.96 372.37   Q 687.91 371.37 688.85 369.31   Q 692.32 361.72 698.12 355.14   Q 699.88 353.15 701.63 354.66   Q 701.73 354.74 701.78 354.78   Q 703.47 355.96 702.13 357.55   Z" />
<path d="   M 788.01 393.17   Q 793.14 393.47 795.38 394.22   Q 801.41 396.22 802.78 402.45   C 805.02 412.69 796.51 422.93 788.14 427.31   C 779.94 431.59 771.87 431.63 766.47 423.33   Q 762.10 416.61 762.49 409.61   Q 762.52 409.09 762.00 408.99   Q 757.90 408.21 756.22 406.79   Q 750.07 401.56 750.31 391.60   Q 750.33 390.79 749.60 390.43   Q 742.53 386.99 740.40 378.08   C 738.67 370.86 738.80 360.40 745.29 356.12   Q 749.88 353.10 756.29 355.08   Q 767.25 358.47 773.30 368.32   Q 773.82 369.17 774.21 370.26   Q 774.65 371.48 775.37 371.87   Q 782.85 375.99 784.58 377.65   Q 791.26 384.07 787.65 392.59   Q 787.42 393.13 788.01 393.17   Z" />
<rect x="-2.44" y="-8.50" transform="translate(423.43,363.27) rotate(8.7)" width="4.88" height="17.00" rx="2.35" />
<path d="   M 710.35 412.96   A 1.50 1.50 0.0 0 1 708.26 412.61   L 707.53 411.59   A 7.71 3.97 -35.6 0 1 711.49 403.88   L 717.80 399.36   A 7.71 3.97 -35.6 0 1 726.38 398.10   L 727.11 399.12   A 1.50 1.50 0.0 0 1 726.76 401.21   L 710.35 412.96   Z" />
<path d="   M 719.18 423.15   A 1.10 1.10 0.0 0 1 717.64 422.95   L 717.39 422.63   A 4.30 3.32 -37.4 0 1 718.79 417.38   L 727.28 410.89   A 4.30 3.32 -37.4 0 1 732.71 410.92   L 732.95 411.24   A 1.10 1.10 0.0 0 1 732.75 412.78   L 719.18 423.15   Z" />
<ellipse cx="0.00" cy="0.00" transform="translate(760.97,462.78) rotate(-4.3)" rx="5.19" ry="2.48" />
<path d="   M 427.81 482.78   Q 426.07 483.30 427.79 483.89   Q 434.20 486.09 441.07 486.53   Q 448.67 487.02 453.08 483.39   Q 459.23 478.30 460.30 471.77   Q 461.15 466.56 461.44 465.65   A 1.89 1.86 -71.4 0 1 463.85 464.43   L 464.25 464.57   A 2.96 2.88 -77.9 0 1 466.14 467.59   Q 465.08 479.95 456.63 486.89   C 448.36 493.69 434.05 491.04 424.27 487.55   C 421.55 486.57 416.26 483.87 420.27 480.50   Q 421.58 479.40 424.30 478.79   Q 434.38 476.52 438.99 475.23   C 444.24 473.76 448.11 472.23 450.64 467.90   Q 451.01 467.25 452.70 464.55   Q 453.21 463.73 454.17 463.69   Q 457.04 463.57 456.38 466.31   Q 454.50 474.06 446.74 477.49   Q 441.27 479.91 435.38 481.11   Q 429.25 482.35 427.81 482.78   Z" />
<path d="   M 598.19 482.34   Q 588.94 481.31 581.52 478.33   C 578.68 477.19 571.02 473.71 572.22 470.05   A 2.59 2.16 31.2 0 1 576.13 469.45   C 582.51 474.86 589.46 476.27 598.17 477.84   Q 602.24 478.58 605.19 480.16   A 3.12 2.54 25.6 0 1 606.80 483.59   C 605.83 486.05 601.75 487.30 598.23 488.26   C 590.68 490.33 581.38 492.05 573.89 490.70   C 563.72 488.86 557.99 480.44 557.45 470.21   Q 557.33 468.01 559.42 467.53   Q 559.48 467.51 559.51 467.51   Q 561.52 466.91 561.95 468.99   C 563.50 476.54 565.36 482.69 572.88 485.68   Q 577.10 487.36 584.89 486.36   Q 590.96 485.57 598.28 483.44   Q 600.99 482.66 598.19 482.34   Z" />
<path d="   M 511.35 507.54   L 511.71 508.27   Q 511.89 508.64 511.74 509.24   Q 510.71 513.24 510.10 514.11   Q 508.39 516.54 507.58 518.35   Q 507.36 518.83 507.46 519.35   L 507.65 520.32   A 1.33 1.33 0.0 0 1 507.42 521.35   C 505.86 523.54 503.50 527.12 503.36 529.56   Q 503.24 531.38 502.60 532.80   C 502.14 533.81 501.19 535.42 500.81 536.97   Q 500.03 540.16 498.54 542.80   Q 498.28 543.27 498.35 543.80   Q 499.20 550.07 500.92 552.21   Q 503.42 555.33 508.43 558.48   A 1.55 1.55 0.0 0 1 507.92 561.32   Q 506.70 561.58 505.21 560.91   Q 493.24 555.55 493.63 543.74   Q 493.72 540.91 494.30 538.93   C 495.09 536.24 495.14 533.29 496.44 530.90   Q 497.35 529.23 497.54 528.83   Q 497.89 528.12 498.25 526.60   Q 500.05 518.96 500.86 517.62   Q 503.37 513.43 504.67 509.66   Q 505.70 506.68 508.74 506.73   Q 509.44 506.74 508.89 506.31   Q 507.52 505.20 507.15 504.34   A 0.83 0.83 0.0 0 1 507.36 503.40   Q 509.55 501.42 510.31 499.19   C 511.05 497.03 513.23 496.45 514.48 494.46   Q 516.16 491.78 517.36 490.86   Q 522.24 487.09 528.78 486.82   C 541.91 486.27 544.42 501.12 543.10 511.09   Q 543.01 511.76 542.13 514.10   Q 541.52 515.70 540.27 516.06   A 1.16 1.16 0.0 0 1 538.82 514.73   Q 540.08 507.95 538.64 501.34   C 537.57 496.39 536.08 491.96 530.76 491.29   Q 528.11 490.96 527.96 490.92   A 1.04 0.30 11.2 0 1 527.20 490.52   L 526.91 489.81   Q 526.50 488.82 526.37 489.64   Q 526.33 489.87 526.43 490.21   Q 526.56 490.64 526.37 491.05   Q 525.10 493.77 521.98 494.29   Q 521.49 494.37 521.19 494.77   Q 520.45 495.80 515.90 501.23   C 514.21 503.27 515.47 506.73 511.80 506.97   Q 511.09 507.02 511.35 507.54   Z" />
<ellipse cx="0.00" cy="0.00" transform="translate(580.26,507.53) rotate(92.2)" rx="7.81" ry="5.58" />
<rect x="435.02" y="500.31" width="10.12" height="14.88" rx="4.71" />
<rect x="-2.28" y="-9.51" transform="translate(614.56,530.67) rotate(4.4)" width="4.56" height="19.02" rx="2.20" />
<rect x="-2.25" y="-6.87" transform="translate(600.66,531.86) rotate(-6.8)" width="4.50" height="13.74" rx="2.17" />
<rect x="-2.46" y="-6.05" transform="translate(623.84,531.11) rotate(11.4)" width="4.92" height="12.10" rx="2.34" />
<rect x="-1.92" y="-9.83" transform="translate(421.47,541.26) rotate(4.2)" width="3.84" height="19.66" rx="1.86" />
<rect x="-1.90" y="-7.26" transform="translate(431.65,540.53) rotate(11.9)" width="3.80" height="14.52" rx="1.83" />
<rect x="-1.85" y="-7.31" transform="translate(407.21,545.29) rotate(-11.8)" width="3.70" height="14.62" rx="1.78" />
<path d="   M 685.25 561.28   C 686.99 560.82 689.41 561.71 690.81 562.91   Q 696.19 567.54 693.34 574.94   Q 690.11 583.33 680.87 588.28   Q 679.42 589.06 678.29 587.68   Q 678.29 587.68 678.14 587.27   Q 677.51 585.61 678.93 584.54   Q 687.63 577.96 688.95 572.45   Q 689.52 570.03 688.81 568.01   A 1.60 1.60 0.0 0 0 687.20 566.95   C 685.40 567.07 682.81 567.55 681.47 566.71   Q 678.28 564.74 678.97 560.50   Q 679.32 558.31 682.08 554.82   Q 687.08 548.46 695.57 544.83   Q 697.74 543.90 698.30 546.18   L 698.40 546.62   A 1.88 1.83 69.3 0 1 697.50 548.71   Q 689.15 553.17 684.45 560.16   Q 683.36 561.77 685.25 561.28   Z" />
<path d="   M 520.31 604.64   Q 521.95 605.42 520.84 603.97   Q 517.01 598.97 516.61 598.40   Q 510.31 589.50 501.38 586.43   Q 498.67 585.50 501.47 584.90   Q 503.99 584.37 506.65 584.14   Q 509.38 583.90 511.90 584.39   Q 526.43 587.22 537.25 597.55   Q 553.61 613.15 561.38 632.91   C 562.91 636.78 564.15 643.12 563.26 647.10   Q 561.72 653.91 554.49 656.17   Q 535.50 662.10 519.78 650.51   C 518.90 649.86 516.79 649.11 515.49 648.84   Q 506.94 647.09 497.55 649.08   Q 493.53 649.93 490.70 651.70   C 487.29 653.83 484.51 656.06 481.21 656.36   Q 478.05 656.65 474.81 656.34   C 458.35 654.79 464.46 628.46 467.68 618.94   C 471.23 608.43 476.46 598.59 484.44 592.36   C 491.19 587.10 498.59 586.37 506.09 591.24   Q 512.72 595.56 519.06 603.50   Q 519.76 604.38 520.31 604.64   Z   M 490.67 646.34   C 498.31 643.37 507.50 642.93 515.14 644.20   Q 519.93 644.99 521.91 646.26   Q 528.28 650.34 529.78 651.04   C 537.59 654.70 545.50 654.25 553.54 651.85   Q 555.23 651.35 553.53 650.86   Q 551.73 650.34 550.08 649.66   Q 534.96 643.45 527.09 640.69   Q 520.34 638.32 514.66 637.42   C 498.75 634.92 483.68 639.13 472.36 650.34   A 0.72 0.72 0.0 0 0 472.73 651.56   Q 475.13 652.04 478.30 652.08   C 483.24 652.14 486.53 647.96 490.67 646.34   Z" />
<path d="   M 569.17 705.38   L 569.76 704.28   Q 570.02 703.77 570.47 703.72   Q 571.52 703.60 572.35 705.07   Q 573.17 706.53 571.90 707.70   Q 571.37 708.19 569.75 708.58   Q 569.27 708.70 568.86 708.99   Q 566.26 710.86 565.58 711.12   Q 559.46 713.41 553.94 714.13   Q 550.23 714.61 546.21 715.81   Q 540.40 717.54 532.01 717.47   Q 516.38 717.34 501.71 713.77   Q 497.37 712.72 493.38 710.99   Q 489.13 709.14 485.00 707.87   Q 483.65 707.45 483.77 706.01   L 483.83 705.29   Q 483.95 703.81 485.35 704.21   Q 487.07 704.71 492.14 705.34   Q 492.73 705.41 498.98 706.66   Q 513.93 709.63 522.05 709.56   Q 526.16 709.53 531.55 709.70   Q 536.78 709.87 544.01 708.77   C 545.06 708.61 546.01 708.82 546.99 708.64   Q 562.06 705.85 566.26 704.99   Q 567.56 704.72 568.57 705.57   Q 568.92 705.86 569.17 705.38   Z" />
<path d="   M 529.59 1024.00   L 522.80 1024.00   L 542.86 935.97   Q 543.44 933.44 545.61 933.93   Q 545.66 933.94 545.70 933.94   Q 547.91 933.85 547.44 936.17   L 529.59 1024.00   Z" />
</g>
</g></svg>