<svg xmlns="http://www.w3.org/2000/svg" version="1.1" viewBox="0.00 0.00 1024.00 1024.00">
<g id="Parent-Group"><g fill="rgba(0,0,0,0)" id="Group-rgba(0,0,0,0)">
<path d="   M 0.00 0.00   L 1024.00 0.00   L 1024.00 1024.00   L 888.69 1024.00   L 877.46 792.37   A 0.72 0.71 -1.2 0 0 876.74 791.69   L 851.18 791.68   A 0.67 0.66 0.4 0 0 850.51 792.33   L 847.48 1024.00   L 182.03 1024.00   L 170.86 793.85   A 0.77 0.77 0.0 0 0 170.09 793.12   L 143.91 793.03   Q 143.12 793.03 143.11 793.81   L 139.83 1024.00   L 0.00 1024.00   L 0.00 0.00   Z   M 834.93 644.92   Q 831.74 645.16 828.75 645.31   Q 803.50 646.54 768.66 646.92   Q 767.86 646.93 768.36 647.55   Q 769.47 648.97 771.72 654.29   A 0.77 0.77 0.0 0 0 772.55 654.74   C 773.33 654.60 773.69 654.21 774.58 654.31   Q 784.81 655.46 794.82 658.88   A 0.88 0.87 -78.3 0 1 795.40 659.77   L 795.37 660.15   Q 795.27 661.42 794.08 661.00   Q 783.27 657.18 773.76 656.11   Q 772.72 655.99 772.87 657.03   Q 772.91 657.24 773.00 657.42   Q 773.56 658.50 774.71 658.78   Q 784.42 661.14 794.40 664.27   C 795.26 664.54 795.83 664.96 796.43 665.61   Q 797.01 666.23 797.43 665.49   Q 797.55 665.28 797.73 665.11   Q 798.11 664.76 798.62 664.71   L 859.98 658.47   A 1.26 1.25 81.6 0 1 861.33 659.48   L 865.43 680.23   A 3.04 3.04 0.0 0 0 867.55 682.55   Q 872.94 684.13 878.23 684.84   Q 900.55 687.82 924.84 685.24   C 929.34 684.76 933.60 683.77 937.89 682.49   A 1.91 1.90 87.0 0 0 939.23 681.00   L 954.03 602.06   A 1.19 1.18 -84.7 0 1 955.19 601.09   L 1019.25 601.13   Q 1020.13 601.13 1020.16 600.25   L 1020.22 598.72   Q 1020.25 597.83 1019.35 597.83   L 955.50 597.82   Q 954.96 597.82 955.06 597.28   L 963.69 551.47   Q 963.80 550.90 963.40 550.47   C 960.40 547.29 952.99 545.78 948.72 545.13   Q 929.05 542.13 909.92 542.00   Q 909.35 541.99 909.44 541.43   Q 910.54 534.07 912.53 528.30   Q 913.25 526.23 915.47 524.70   C 921.31 520.68 923.45 514.75 922.82 508.00   C 921.87 497.82 911.58 497.79 907.83 505.94   Q 902.91 516.63 909.89 524.79   Q 910.24 525.20 910.04 525.70   Q 907.16 532.77 906.14 541.15   A 0.90 0.89 2.6 0 1 905.27 541.94   L 902.26 542.01   A 1.13 1.12 -5.2 0 1 901.11 541.06   Q 898.05 521.96 896.68 504.43   Q 896.63 503.74 897.31 503.58   C 919.82 498.25 938.18 485.41 940.53 460.90   C 942.58 439.48 930.72 420.42 909.70 414.54   C 889.11 408.79 867.47 415.51 859.23 436.36   C 855.96 444.63 853.92 453.64 843.87 456.02   Q 835.10 458.10 829.87 460.82   Q 813.98 469.08 813.35 487.06   Q 812.92 499.28 821.34 508.46   C 830.27 518.19 844.10 520.66 856.87 517.12   Q 862.86 515.46 868.58 513.10   Q 869.51 512.71 869.08 513.63   C 866.00 520.17 871.29 527.03 876.78 530.29   Q 881.15 532.89 885.70 535.32   Q 889.37 537.28 890.62 541.28   Q 890.78 541.82 890.23 541.83   Q 877.14 542.07 860.49 544.15   C 854.71 544.87 845.03 546.18 840.73 550.20   Q 839.92 550.96 840.17 552.30   Q 844.63 575.49 848.94 596.98   A 0.47 0.47 0.0 0 1 848.48 597.55   L 749.24 597.61   A 0.88 0.88 0.0 0 1 748.36 596.74   Q 747.05 484.09 745.78 370.79   C 745.55 349.72 724.03 341.46 706.53 340.56   Q 699.16 340.18 688.69 340.21   Q 511.59 340.69 314.59 340.92   C 300.01 340.94 281.05 347.04 275.98 362.21   C 274.40 366.95 274.53 372.84 274.47 378.00   Q 273.56 454.18 272.39 532.67   A 0.57 0.56 2.4 0 1 271.78 533.22   Q 260.82 532.39 250.03 535.66   C 233.22 540.76 226.96 556.38 226.88 572.87   Q 226.81 585.12 232.20 597.40   A 0.48 0.47 78.7 0 1 231.76 598.07   L 183.74 597.89   A 0.55 0.54 -84.7 0 1 183.21 597.24   L 194.85 535.26   Q 194.93 534.81 194.69 534.43   C 191.96 530.05 177.11 528.38 172.43 527.93   Q 171.86 527.88 171.96 527.32   L 178.15 489.07   Q 178.36 487.82 177.11 487.62   L 167.34 486.06   A 1.32 1.31 -80.5 0 0 165.84 487.14   L 159.09 526.22   Q 158.99 526.80 158.40 526.80   L 150.57 526.81   Q 149.83 526.81 149.77 526.07   L 146.58 482.49   Q 146.33 479.15 142.99 479.30   L 141.01 479.39   Q 137.66 479.54 137.83 482.89   Q 138.68 499.98 139.99 517.25   Q 140.33 521.73 141.18 526.31   Q 141.28 526.85 140.73 526.85   Q 125.02 526.91 111.34 529.15   C 107.20 529.83 101.38 531.21 98.31 534.19   A 0.61 0.59 -27.7 0 0 98.14 534.71   L 109.73 596.97   Q 109.88 597.79 109.05 597.79   L 4.01 597.84   Q 2.87 597.84 2.92 598.99   L 2.97 599.92   A 1.21 1.20 -1.3 0 0 4.17 601.06   L 109.55 601.17   A 1.14 1.14 0.0 0 1 110.66 602.10   L 116.76 634.44   A 1.45 1.45 0.0 0 0 117.66 635.52   Q 121.91 637.14 126.58 637.83   Q 141.76 640.10 158.83 638.75   Q 166.45 638.14 173.45 636.16   Q 174.66 635.82 175.68 635.17   Q 176.13 634.89 176.23 634.36   L 182.26 602.23   A 1.27 1.27 0.0 0 1 183.51 601.19   L 233.15 601.32   A 0.92 0.92 0.0 0 1 233.99 601.87   Q 236.28 607.17 239.88 610.87   Q 240.43 611.43 240.31 612.21   C 238.92 621.04 240.59 627.71 251.20 627.14   Q 255.59 626.91 260.24 627.13   A 0.24 0.24 0.0 0 1 260.44 627.49   Q 241.95 659.42 225.18 688.96   C 224.53 690.11 223.50 691.09 222.97 692.24   Q 222.74 692.72 222.82 693.25   L 225.16 708.62   Q 225.29 709.47 226.14 709.45   L 227.22 709.43   Q 228.21 709.41 228.11 708.42   Q 227.46 702.04 225.79 694.38   Q 225.58 693.44 226.55 693.43   Q 238.54 693.31 251.75 693.33   Q 520.42 693.72 752.27 693.42   Q 766.71 693.40 780.81 693.22   Q 781.59 693.21 781.46 693.98   L 779.24 707.45   A 1.64 1.64 0.0 0 0 780.98 709.35   L 781.52 709.31   A 1.20 1.19 -89.4 0 0 782.61 708.23   Q 783.37 700.64 784.91 693.41   A 1.19 1.17 35.1 0 0 784.75 692.53   Q 782.95 689.66 781.81 686.70   Q 774.44 667.54 767.05 649.29   Q 766.61 648.19 766.88 647.00   Q 766.99 646.51 766.69 646.11   Q 764.90 643.73 764.14 640.84   A 0.37 0.37 0.0 0 1 764.46 640.39   Q 792.67 637.53 819.00 634.83   C 822.65 634.45 826.29 633.73 829.89 633.43   Q 830.77 633.36 831.58 633.87   Q 831.71 633.95 831.80 634.08   A 0.58 0.57 -25.7 0 1 831.49 634.95   C 828.24 635.92 824.29 635.58 822.74 639.37   A 1.86 1.86 0.0 0 0 823.35 641.56   Q 824.83 642.65 826.74 642.93   Q 831.13 643.56 834.96 644.58   Q 835.93 644.84 834.93 644.92   Z   M 235.65 703.99   A 1.57 1.56 -13.3 0 0 234.62 705.65   L 234.98 708.77   Q 235.06 709.47 235.76 709.47   L 772.57 709.48   Q 773.30 709.48 773.54 708.80   Q 775.02 704.53 770.82 703.40   C 762.82 701.23 755.87 700.23 747.29 700.23   Q 502.65 700.27 258.49 700.31   Q 246.12 700.31 235.65 703.99   Z   M 1023.32 789.85   A 0.42 0.42 0.0 0 0 1023.74 789.43   L 1023.74 733.57   A 0.42 0.42 0.0 0 0 1023.32 733.15   L 3.34 733.15   A 0.42 0.42 0.0 0 0 2.92 733.57   L 2.92 789.43   A 0.42 0.42 0.0 0 0 3.34 789.85   L 1023.32 789.85   Z" />
<path d="   M 718.01 371.09   L 724.15 590.47   Q 724.17 591.10 723.53 591.10   L 292.71 591.10   A 0.32 0.32 0.0 0 1 292.39 590.77   Q 294.45 540.42 296.32 490.27   Q 296.67 480.76 296.88 470.34   Q 297.89 420.47 298.79 370.96   A 0.55 0.55 0.0 0 1 299.34 370.42   Q 499.69 370.34 693.25 370.36   Q 705.71 370.36 717.47 370.56   Q 717.99 370.57 718.01 371.09   Z   M 328.4117 379.8881   A 5.20 5.20 0.0 0 0 323.2390 374.6610   L 315.2591 374.6192   A 5.20 5.20 0.0 0 0 310.0320 379.7919   L 310.0283 380.4919   A 5.20 5.20 0.0 0 0 315.2010 385.7190   L 323.1809 385.7608   A 5.20 5.20 0.0 0 0 328.4080 380.5881   L 328.4117 379.8881   Z   M 347.8203 381.9274   A 6.31 6.06 10.2 0 0 342.6831 374.8458   A 6.31 6.06 10.2 0 0 335.3997 379.6926   A 6.31 6.06 10.2 0 0 340.5369 386.7742   A 6.31 6.06 10.2 0 0 347.8203 381.9274   Z   M 697.33 381.19   A 6.18 6.18 0.0 0 0 691.15 375.01   A 6.18 6.18 0.0 0 0 684.97 381.19   A 6.18 6.18 0.0 0 0 691.15 387.37   A 6.18 6.18 0.0 0 0 697.33 381.19   Z   M 332.2173 397.6264   A 1.25 1.25 0.0 0 0 330.9608 396.3830   L 312.9810 396.4771   A 1.25 1.25 0.0 0 0 311.7376 397.7336   L 311.7427 398.7136   A 1.25 1.25 0.0 0 0 312.9992 399.9570   L 330.9790 399.8629   A 1.25 1.25 0.0 0 0 332.2224 398.6064   L 332.2173 397.6264   Z   M 332.3710 406.9038   A 1.50 1.50 0.0 0 0 330.8789 405.3959   L 313.3391 405.3041   A 1.50 1.50 0.0 0 0 311.8313 406.7962   L 311.8290 407.2362   A 1.50 1.50 0.0 0 0 313.3211 408.7441   L 330.8609 408.8359   A 1.50 1.50 0.0 0 0 332.3687 407.3438   L 332.3710 406.9038   Z   M 640.40 484.30   A 1.15 1.14 -78.3 0 1 641.43 483.62   Q 662.76 483.49 686.98 483.51   C 690.50 483.52 693.28 481.47 693.29 477.72   Q 693.34 457.14 693.34 435.41   C 693.34 431.94 691.02 429.47 687.46 429.46   Q 630.94 429.37 573.10 429.45   C 569.38 429.46 566.77 431.58 566.79 435.72   Q 566.86 455.37 566.71 477.46   Q 566.67 483.50 572.94 483.53   Q 594.25 483.62 613.47 483.66   A 1.47 1.47 0.0 0 1 614.72 484.36   L 626.86 503.94   A 0.90 0.89 75.2 0 0 627.58 504.36   Q 628.31 504.39 628.63 503.87   Q 634.21 494.73 639.92 485.60   C 640.20 485.16 640.20 484.76 640.40 484.30   Z   M 399.64 508.44   Q 398.03 506.11 395.46 504.31   A 0.55 0.55 0.0 0 1 395.52 503.37   Q 402.09 499.96 404.84 492.68   Q 406.74 487.65 407.06 484.50   Q 407.98 475.62 407.55 462.20   Q 407.53 461.57 408.11 461.33   C 408.57 461.14 408.92 460.70 409.11 460.26   C 411.64 454.27 408.92 447.95 402.42 446.82   Q 401.73 446.71 401.74 446.01   C 401.87 431.95 385.93 428.26 376.97 437.08   Q 376.53 437.51 376.06 437.10   C 368.85 430.68 360.13 435.37 358.85 444.28   Q 358.70 445.31 357.67 445.14   C 348.06 443.58 342.69 451.21 345.29 459.94   C 345.90 462.01 347.27 463.57 348.40 465.35   A 5.60 5.56 -61.7 0 1 349.26 468.26   Q 349.36 475.69 349.65 482.20   C 350.00 490.30 353.72 499.33 361.03 503.28   Q 362.47 504.05 360.89 504.48   C 355.56 505.95 353.04 511.81 351.45 516.92   Q 347.97 528.16 344.96 538.60   Q 344.87 538.93 344.57 539.09   Q 344.02 539.38 343.37 539.32   Q 342.07 539.19 342.03 540.49   L 342.01 541.13   Q 341.98 542.28 343.13 542.28   L 388.26 542.32   A 4.69 4.68 -24.8 0 1 391.29 543.43   Q 395.12 546.68 398.87 549.76   C 400.71 551.27 402.72 550.43 405.00 550.32   Q 441.91 548.50 479.25 546.79   Q 483.93 546.58 480.36 543.54   C 478.15 541.65 474.29 539.39 474.37 536.12   Q 474.79 520.42 475.23 504.96   A 0.93 0.93 0.0 0 0 474.25 504.00   Q 439.00 505.55 401.73 506.97   C 400.86 507.00 400.25 507.40 400.13 508.32   Q 400.03 509.01 399.64 508.44   Z   M 549.33 533.31   C 560.45 528.41 561.70 519.13 562.07 507.98   A 1.15 1.13 22.4 0 0 561.69 507.09   L 560.85 506.35   A 0.49 0.49 0.0 0 1 561.00 505.53   Q 562.30 505.04 562.06 503.67   Q 560.09 492.69 553.16 485.72   C 547.37 479.89 538.48 475.92 530.30 477.87   C 511.07 482.47 509.81 500.11 511.47 516.57   Q 512.62 527.98 522.80 532.29   A 0.66 0.65 -44.7 0 1 522.79 533.50   Q 513.87 537.10 510.08 547.82   Q 506.93 556.69 505.98 565.65   A 1.10 1.09 -85.8 0 0 507.02 566.86   L 507.93 566.90   A 1.20 1.20 0.0 0 0 509.18 565.81   C 510.26 554.41 513.86 536.80 528.43 535.67   A 0.69 0.69 0.0 0 1 529.17 536.39   C 529.06 538.52 528.79 540.79 529.72 542.77   C 531.13 545.82 535.15 547.87 538.41 546.32   C 542.67 544.31 542.34 541.31 542.49 537.35   Q 542.55 535.78 544.12 535.92   Q 551.69 536.60 555.97 543.83   Q 561.18 552.65 562.39 566.01   A 1.17 1.16 85.5 0 0 563.63 567.08   L 564.32 567.04   A 1.41 1.41 0.0 0 0 565.62 565.42   C 563.97 554.28 560.88 538.84 549.35 534.15   A 0.46 0.45 44.0 0 1 549.33 533.31   Z" />
<circle cx="341.69" cy="381.01" r="2.91" />
<circle cx="691.12" cy="381.23" r="2.95" />
<path d="   M 690.1064 477.3551   A 2.83 2.83 0.0 0 1 687.2813 480.1901   L 572.8015 480.3899   A 2.83 2.83 0.0 0 1 569.9666 477.5648   L 569.8936 435.7449   A 2.83 2.83 0.0 0 1 572.7187 432.9099   L 687.1985 432.7101   A 2.83 2.83 0.0 0 1 690.0334 435.5352   L 690.1064 477.3551   Z   M 646.1285 450.1937   A 1.00 1.00 0.0 0 0 645.1267 449.1954   L 594.0268 449.2846   A 1.00 1.00 0.0 0 0 593.0285 450.2863   L 593.0315 452.0063   A 1.00 1.00 0.0 0 0 594.0333 453.0046   L 645.1332 452.9154   A 1.00 1.00 0.0 0 0 646.1315 451.9137   L 646.1285 450.1937   Z   M 645.98 461.80   A 1.02 1.02 0.0 0 0 644.96 460.78   L 593.94 460.78   A 1.02 1.02 0.0 0 0 592.92 461.80   L 592.92 463.40   A 1.02 1.02 0.0 0 0 593.94 464.42   L 644.96 464.42   A 1.02 1.02 0.0 0 0 645.98 463.40   L 645.98 461.80   Z" />
<path d="   M 353.23 471.38   C 355.79 471.83 357.19 471.09 358.82 469.23   Q 359.26 468.73 359.70 469.23   C 364.35 474.47 370.16 471.77 373.63 467.07   Q 374.02 466.55 374.48 467.01   C 375.63 468.16 376.86 469.55 378.31 470.29   C 384.37 473.36 388.80 471.01 393.41 466.58   Q 393.87 466.14 394.33 466.58   Q 398.20 470.30 403.50 469.12   Q 404.09 468.99 404.13 469.60   Q 404.82 481.87 402.85 488.92   C 399.33 501.55 386.34 506.32 373.83 505.19   C 370.80 504.91 368.29 503.77 365.60 502.43   C 353.15 496.23 352.63 484.92 352.49 472.00   Q 352.48 471.25 353.23 471.38   Z   M 388.8753 484.9279   A 4.95 3.60 86.0 0 0 392.1212 479.7389   A 4.95 3.60 86.0 0 0 388.1847 475.0521   A 4.95 3.60 86.0 0 0 384.9388 480.2411   A 4.95 3.60 86.0 0 0 388.8753 484.9279   Z   M 368.8472 479.2729   A 3.20 3.20 0.0 0 0 365.4947 476.2330   L 364.9753 476.2584   A 3.20 3.20 0.0 0 0 361.9355 479.6109   L 362.0928 482.8271   A 3.20 3.20 0.0 0 0 365.4453 485.8670   L 365.9647 485.8416   A 3.20 3.20 0.0 0 0 369.0045 482.4891   L 368.8472 479.2729   Z   M 381.71 491.00   C 379.48 491.11 378.59 490.54 377.44 488.71   Q 377.16 488.28 376.67 488.19   Q 375.97 488.07 375.42 488.48   Q 374.84 488.91 374.81 489.64   Q 374.66 493.10 378.05 494.09   Q 381.26 495.03 382.45 492.05   Q 382.89 490.95 381.71 491.00   Z" />
<path d="   M 141.73 482.09   Q 142.23 481.91 142.81 482.34   A 1.08 1.05 15.6 0 1 143.24 483.08   Q 145.20 504.55 146.43 528.34   A 0.61 0.61 0.0 0 1 145.34 528.75   Q 145.19 528.56 145.07 528.34   Q 144.26 526.78 144.11 525.49   Q 141.74 504.55 140.98 483.17   Q 140.96 482.35 141.73 482.09   Z" />
<path d="   M 636.87 484.13   L 627.90 498.85   A 0.30 0.30 0.0 0 1 627.39 498.84   L 618.53 484.06   A 0.30 0.30 0.0 0 1 618.79 483.61   L 636.61 483.67   A 0.30 0.30 0.0 0 1 636.87 484.13   Z" />
<rect x="-3.01" y="-7.82" transform="translate(170.40,497.53) rotate(9.6)" width="6.02" height="15.64" rx="0.79" />
<path d="   M 540.51 533.09   A 1.31 1.30 87.3 0 0 539.41 534.31   L 539.06 540.82   Q 538.93 543.09 536.68 543.29   L 535.97 543.35   Q 532.76 543.64 532.62 540.42   Q 532.49 537.46 532.90 534.18   A 0.87 0.86 12.5 0 0 532.30 533.25   C 524.23 530.73 516.39 526.59 514.78 517.50   C 514.01 513.12 512.90 506.05 516.20 502.42   Q 520.44 497.76 522.93 492.04   Q 523.25 491.31 523.73 491.95   Q 531.19 502.02 545.05 504.99   Q 551.79 506.43 558.22 508.21   A 0.87 0.86 -81.5 0 1 558.85 509.07   Q 558.66 513.78 557.79 518.30   C 556.12 526.99 548.96 531.74 540.51 533.09   Z   M 549.1186 509.7392   A 2.86 2.86 0.0 0 0 546.4070 506.7381   L 545.9276 506.7139   A 2.86 2.86 0.0 0 0 542.9266 509.4255   L 542.7414 513.0808   A 2.86 2.86 0.0 0 0 545.4530 516.0819   L 545.9324 516.1061   A 2.86 2.86 0.0 0 0 548.9334 513.3945   L 549.1186 509.7392   Z   M 526.5254 510.0896   A 3.17 3.17 0.0 0 0 523.1369 507.1544   L 522.6382 507.1901   A 3.17 3.17 0.0 0 0 519.7029 510.5787   L 519.9346 513.8104   A 3.17 3.17 0.0 0 0 523.3231 516.7456   L 523.8218 516.7099   A 3.17 3.17 0.0 0 0 526.7571 513.3213   L 526.5254 510.0896   Z   M 536.01 521.17   Q 533.87 521.44 532.53 519.78   Q 531.41 518.39 529.49 518.93   Q 529.22 519.00 529.11 519.25   Q 528.48 520.66 529.46 521.68   C 533.65 526.05 539.40 525.47 542.40 520.09   Q 542.98 519.06 541.82 518.80   L 540.28 518.45   Q 539.15 518.20 538.41 519.09   C 537.68 519.96 537.32 521.00 536.01 521.17   Z" />
<path d="   M 918.86 505.62   C 921.02 511.34 919.23 519.08 913.41 522.25   A 1.38 1.36 -35.4 0 1 911.74 521.98   C 907.35 517.21 908.96 509.51 912.66 504.84   C 914.53 502.48 917.70 502.56 918.86 505.62   Z" />
<path d="   M 876.98 510.07   L 892.70 505.29   Q 893.23 505.13 893.30 505.68   L 897.52 541.31   Q 897.59 541.89 897.01 541.97   Q 895.61 542.17 894.66 541.19   C 890.83 537.22 890.64 532.12 889.73 527.05   C 888.52 520.36 884.29 512.18 877.00 510.57   Q 876.04 510.36 876.98 510.07   Z" />
<path d="   M 372.22 508.91   C 372.73 511.78 374.36 514.05 376.51 515.92   Q 377.00 516.34 377.00 516.99   Q 377.00 518.23 376.66 519.44   Q 373.80 529.44 371.32 538.61   A 0.93 0.92 7.9 0 1 370.43 539.28   L 348.72 539.35   A 0.43 0.42 -83.0 0 1 348.31 538.82   Q 351.65 526.12 355.99 513.79   Q 357.83 508.57 362.71 506.66   Q 363.18 506.48 363.67 506.57   L 371.32 508.00   A 1.13 1.12 89.9 0 1 372.22 508.91   Z" />
<path d="   M 382.47 515.95   C 384.85 514.07 386.33 511.26 386.83 508.27   Q 386.92 507.70 387.46 507.49   Q 393.48 505.16 397.47 509.84   Q 398.54 511.09 398.58 512.85   Q 398.83 523.69 398.86 534.64   Q 398.87 535.21 398.29 535.27   L 389.01 536.12   A 1.22 1.22 0.0 0 1 387.73 535.26   L 382.11 517.13   A 1.10 1.10 0.0 0 1 382.47 515.95   Z" />
<path d="   M 470.66 543.96   L 402.36 547.46   A 0.40 0.40 0.0 0 1 401.94 547.06   L 401.75 510.57   A 0.40 0.40 0.0 0 1 402.14 510.16   L 471.72 507.27   A 0.40 0.40 0.0 0 1 472.14 507.68   L 471.04 543.57   A 0.40 0.40 0.0 0 1 470.66 543.96   Z   M 428.8081 525.7695   A 8.33 7.91 -9.4 0 0 419.2981 519.3262   A 8.33 7.91 -9.4 0 0 412.3719 528.4905   A 8.33 7.91 -9.4 0 0 421.8819 534.9338   A 8.33 7.91 -9.4 0 0 428.8081 525.7695   Z   M 462.3148 525.2333   A 9.75 8.07 -25.3 0 0 450.0512 522.1041   A 9.75 8.07 -25.3 0 0 444.6852 533.5667   A 9.75 8.07 -25.3 0 0 456.9488 536.6959   A 9.75 8.07 -25.3 0 0 462.3148 525.2333   Z   M 439.93 529.43   A 2.95 2.95 0.0 0 0 436.98 526.48   A 2.95 2.95 0.0 0 0 434.03 529.43   A 2.95 2.95 0.0 0 0 436.98 532.38   A 2.95 2.95 0.0 0 0 439.93 529.43   Z" />
<rect x="-3.08" y="-12.18" transform="translate(166.64,520.34) rotate(9.5)" width="6.16" height="24.36" rx="0.26" />
<path d="   M 381.66 508.23   A 0.71 0.71 0.0 0 1 382.41 508.91   L 382.41 509.12   A 4.26 3.03 87.5 0 1 379.57 513.51   L 379.49 513.51   A 4.26 3.03 87.5 0 1 376.28 509.39   L 376.27 509.18   A 0.71 0.71 0.0 0 1 376.95 508.44   L 381.66 508.23   Z" />
<path d="   M 887.42 532.61   C 881.43 529.62 870.53 524.35 871.48 517.31   C 872.19 512.01 878.07 512.94 880.73 515.89   C 884.62 520.23 886.60 526.57 887.83 532.30   A 0.29 0.28 7.8 0 1 887.42 532.61   Z" />
<path d="   M 374.68 538.60   L 379.19 521.77   A 0.50 0.50 0.0 0 1 380.15 521.74   L 385.64 538.62   A 0.50 0.50 0.0 0 1 385.16 539.28   L 375.16 539.23   A 0.50 0.50 0.0 0 1 374.68 538.60   Z" />
<path d="   M 158.61 534.98   Q 162.41 535.45 166.76 535.84   Q 167.75 535.93 168.62 536.34   A 1.49 1.49 0.0 0 0 170.73 535.24   L 171.28 531.88   A 1.14 1.13 -81.8 0 1 172.53 530.94   Q 181.88 532.04 189.67 534.45   A 0.56 0.56 0.0 0 1 189.76 535.49   Q 187.13 536.83 184.01 537.48   Q 175.55 539.23 167.10 539.73   Q 143.54 541.12 124.92 539.92   C 117.55 539.45 109.34 538.52 102.47 535.81   A 0.39 0.38 40.3 0 1 102.41 535.12   Q 105.11 533.50 108.53 532.86   Q 123.98 529.95 141.15 529.90   A 1.97 1.97 0.0 0 1 142.89 530.91   C 143.82 532.59 145.93 537.04 148.32 536.10   A 0.83 0.82 84.3 0 0 148.83 535.47   L 149.56 530.86   Q 149.74 529.74 150.88 529.73   L 157.43 529.72   Q 158.28 529.72 158.13 530.56   L 157.59 533.58   A 1.19 1.19 0.0 0 0 158.61 534.98   Z" />
<path d="   M 232.68 556.50   C 238.41 539.55 255.79 535.07 271.74 536.24   A 0.53 0.53 0.0 0 1 272.24 536.78   L 272.08 552.49   A 0.51 0.50 88.8 0 1 271.61 552.99   Q 262.54 553.62 254.81 558.71   C 241.97 567.17 242.14 584.02 242.19 597.64   Q 242.19 598.29 241.54 598.26   Q 239.26 598.17 236.83 598.11   Q 235.50 598.09 235.12 596.79   Q 235.03 596.48 234.91 596.18   C 229.67 583.07 227.99 570.37 232.68 556.50   Z" />
<path d="   M 392.00 539.14   L 398.41 538.44   A 0.32 0.32 0.0 0 1 398.76 538.76   L 398.76 545.21   A 0.32 0.32 0.0 0 1 398.23 545.45   L 391.82 539.69   A 0.32 0.32 0.0 0 1 392.00 539.14   Z" />
<path d="   M 190.43 539.06   Q 190.82 538.94 190.75 539.35   L 173.67 631.55   A 2.20 2.19 86.1 0 1 172.22 633.22   Q 169.64 634.11 166.87 634.56   Q 150.93 637.12 133.65 635.60   Q 127.15 635.03 120.82 633.33   A 1.47 1.47 0.0 0 1 119.76 632.26   Q 119.06 629.51 118.51 626.62   Q 110.34 583.30 102.13 539.59   A 0.34 0.33 3.3 0 1 102.56 539.21   Q 111.74 542.03 121.69 542.75   Q 147.51 544.63 171.85 542.62   Q 180.70 541.90 190.43 539.06   Z" />
<path d="   M 474.15 542.00   Q 475.22 542.34 475.19 543.53   A 0.47 0.46 11.4 0 1 474.55 543.95   Q 473.35 543.46 473.67 542.26   Q 473.77 541.88 474.15 542.00   Z" />
<path d="   M 908.62 549.75   L 908.75 545.72   Q 908.77 545.07 909.42 545.08   Q 928.12 545.32 947.41 548.05   Q 953.24 548.88 958.51 550.89   A 0.52 0.51 -48.1 0 1 958.56 551.83   Q 954.58 553.83 950.16 554.62   Q 933.86 557.51 914.99 557.99   Q 890.67 558.60 868.64 556.71   Q 858.92 555.88 849.67 553.64   Q 847.11 553.02 844.80 551.83   A 0.47 0.47 0.0 0 1 844.82 550.98   Q 847.99 549.52 851.20 548.89   Q 870.77 545.04 891.85 545.10   A 1.84 1.84 0.0 0 1 893.62 546.49   Q 894.58 550.24 895.43 553.86   Q 895.68 554.91 896.59 555.50   Q 897.01 555.78 897.65 555.48   A 0.87 0.87 0.0 0 0 898.14 554.65   Q 897.86 550.08 896.72 545.70   A 0.66 0.66 0.0 0 1 897.36 544.87   L 897.61 544.87   A 1.05 1.03 85.0 0 1 898.63 545.74   L 900.17 554.89   Q 900.39 556.16 901.64 556.45   L 902.18 556.57   Q 903.73 556.92 903.62 555.34   Q 903.31 551.02 901.84 545.63   Q 901.61 544.81 902.46 544.87   L 904.57 545.00   Q 905.35 545.05 905.43 545.82   L 905.85 549.50   A 1.31 1.31 0.0 0 0 907.00 550.66   L 907.50 550.72   Q 908.59 550.84 908.62 549.75   Z" />
<path d="   M 937.87 559.64   C 945.28 559.01 952.59 557.78 959.49 555.28   A 0.20 0.20 0.0 0 1 959.76 555.50   Q 947.99 617.65 936.68 677.58   Q 936.50 678.54 936.03 679.42   Q 935.78 679.90 935.25 680.04   Q 926.15 682.36 916.37 682.97   Q 896.83 684.17 878.94 681.87   Q 874.08 681.25 869.38 679.78   A 1.73 1.73 0.0 0 1 868.21 678.47   L 843.87 555.53   Q 843.75 554.89 844.34 555.14   Q 849.02 557.10 853.25 557.82   Q 864.29 559.71 877.00 560.45   Q 907.76 562.23 937.87 559.64   Z" />
<path d="   M 245.42 597.89   C 244.81 577.90 246.71 559.48 270.95 556.17   A 0.85 0.84 79.3 0 1 271.88 556.81   Q 272.00 557.28 271.99 557.76   Q 271.85 578.82 271.59 597.53   A 0.93 0.93 0.0 0 1 270.66 598.45   L 246.04 598.49   A 0.62 0.62 0.0 0 1 245.42 597.89   Z" />
<path d="   M 750.21 601.66   Q 749.76 600.80 750.74 600.80   L 848.46 600.88   A 1.36 1.36 0.0 0 1 849.79 601.97   L 856.43 634.86   Q 856.56 635.51 855.92 635.34   Q 852.25 634.40 848.54 633.16   C 840.61 630.53 833.23 630.10 824.25 631.03   Q 795.52 634.01 763.60 637.51   A 0.77 0.76 -14.5 0 1 762.80 637.04   Q 757.37 623.70 752.31 610.58   C 751.49 608.47 752.68 606.57 751.72 604.63   Q 751.02 603.23 750.21 601.66   Z" />
<path d="   M 241.18 606.76   Q 238.79 604.74 237.94 601.95   A 0.64 0.64 0.0 0 1 238.55 601.12   L 240.96 601.10   Q 241.68 601.09 241.89 601.78   Q 242.67 604.33 241.98 606.52   A 0.51 0.50 -61.1 0 1 241.18 606.76   Z" />
<rect x="-12.88" y="-1.58" transform="translate(258.42,603.50) rotate(0.1)" width="25.76" height="3.16" rx="0.54" />
<rect x="278.33" y="605.09" width="465.44" height="3.12" rx="0.61" />
<path d="   M 734.86 630.40   C 738.80 639.45 742.40 648.25 746.21 656.90   C 747.73 660.34 746.75 662.78 742.72 662.80   Q 636.81 663.42 514.75 662.95   Q 391.84 662.48 275.76 662.32   C 272.92 662.31 271.44 659.68 272.86 657.22   C 273.60 655.94 274.06 654.49 274.77 653.21   Q 281.57 640.90 287.96 629.03   Q 288.57 627.89 289.86 627.88   Q 346.44 627.40 402.25 627.35   Q 409.35 627.34 422.25 627.11   C 434.36 626.89 449.42 627.02 458.57 626.97   Q 609.39 626.16 730.00 624.81   C 732.71 624.78 734.01 628.43 734.86 630.40   Z   M 683.15 628.71   A 0.35 0.35 0.0 0 0 682.87 629.27   L 691.30 640.02   A 0.35 0.35 0.0 0 0 691.58 640.15   L 734.65 640.15   A 0.35 0.35 0.0 0 0 734.98 639.66   L 730.35 628.70   A 0.35 0.35 0.0 0 0 730.03 628.48   L 683.15 628.71   Z   M 686.18 640.40   A 0.32 0.32 0.0 0 0 686.44 639.89   L 678.72 629.12   A 0.32 0.32 0.0 0 0 678.45 628.99   L 632.79 629.19   A 0.32 0.32 0.0 0 0 632.55 629.71   L 641.35 640.22   A 0.32 0.32 0.0 0 0 641.60 640.33   L 686.18 640.40   Z   M 635.75 640.52   A 0.48 0.48 0.0 0 0 636.13 639.74   L 628.45 629.84   A 0.48 0.48 0.0 0 0 628.08 629.65   L 583.90 629.46   A 0.48 0.48 0.0 0 0 583.52 630.24   L 591.21 640.15   A 0.48 0.48 0.0 0 0 591.58 640.33   L 635.75 640.52   Z   M 586.01 640.47   A 0.33 0.33 0.0 0 0 586.28 639.95   L 579.35 630.04   A 0.33 0.33 0.0 0 0 579.08 629.90   L 540.68 629.87   A 0.33 0.33 0.0 0 0 540.39 630.37   L 546.13 640.07   A 0.33 0.33 0.0 0 0 546.42 640.23   L 586.01 640.47   Z   M 541.30 640.63   A 0.43 0.43 0.0 0 0 541.68 640.00   L 536.61 630.29   A 0.43 0.43 0.0 0 0 536.23 630.06   L 491.89 630.20   A 0.43 0.43 0.0 0 0 491.48 630.76   L 494.47 640.11   A 0.43 0.43 0.0 0 0 494.88 640.41   L 541.30 640.63   Z   M 444.26 630.39   A 0.49 0.49 0.0 0 0 443.77 630.86   L 443.46 640.09   A 0.49 0.49 0.0 0 0 443.95 640.60   L 490.38 640.62   A 0.49 0.49 0.0 0 0 490.85 639.99   L 487.97 630.57   A 0.49 0.49 0.0 0 0 487.50 630.22   L 444.26 630.39   Z   M 392.51 630.77   A 0.82 0.82 0.0 0 0 391.70 631.49   L 390.71 639.88   A 0.82 0.82 0.0 0 0 391.53 640.80   L 439.48 640.60   A 0.82 0.82 0.0 0 0 440.29 639.81   L 440.53 631.36   A 0.82 0.82 0.0 0 0 439.70 630.51   L 392.51 630.77   Z   M 339.65 630.79   A 0.63 0.63 0.0 0 0 339.04 631.29   L 337.20 640.13   A 0.63 0.63 0.0 0 0 337.82 640.89   L 386.50 640.72   A 0.63 0.63 0.0 0 0 387.13 640.17   L 388.16 631.56   A 0.63 0.63 0.0 0 0 387.53 630.86   L 339.65 630.79   Z   M 285.86 640.20   Q 285.41 641.03 286.34 641.02   L 332.48 640.90   A 1.64 1.63 4.5 0 0 334.10 639.53   L 335.28 632.23   Q 335.47 631.01 334.23 631.01   L 291.49 630.97   Q 290.87 630.97 290.57 631.52   L 285.86 640.20   Z   M 693.91 643.64   A 0.33 0.33 0.0 0 0 693.64 644.17   L 705.25 659.11   A 0.33 0.33 0.0 0 0 705.51 659.24   L 743.15 659.14   A 0.33 0.33 0.0 0 0 743.45 658.67   L 736.69 643.88   A 0.33 0.33 0.0 0 0 736.39 643.69   L 693.91 643.64   Z   M 598.76 659.82   A 0.35 0.35 0.0 0 0 599.06 659.29   L 589.49 644.13   A 0.35 0.35 0.0 0 0 589.20 643.97   L 548.01 643.86   A 0.35 0.35 0.0 0 0 547.70 644.37   L 555.24 659.25   A 0.35 0.35 0.0 0 0 555.55 659.44   L 598.76 659.82   Z   M 651.16 659.83   A 0.41 0.41 0.0 0 0 651.48 659.16   L 639.79 644.16   A 0.41 0.41 0.0 0 0 639.47 644.00   L 594.07 643.83   A 0.41 0.41 0.0 0 0 593.72 644.47   L 603.39 659.40   A 0.41 0.41 0.0 0 0 603.73 659.59   L 651.16 659.83   Z   M 644.65 643.86   A 0.30 0.30 0.0 0 0 644.41 644.34   L 656.09 659.55   A 0.30 0.30 0.0 0 0 656.33 659.67   L 700.60 659.66   A 0.30 0.30 0.0 0 0 700.84 659.18   L 689.15 643.97   A 0.30 0.30 0.0 0 0 688.91 643.85   L 644.65 643.86   Z   M 390.26 644.18   A 0.33 0.33 0.0 0 0 389.93 644.48   L 388.42 658.62   A 0.33 0.33 0.0 0 0 388.75 658.98   L 438.97 659.08   A 0.33 0.33 0.0 0 0 439.30 658.76   L 439.69 644.56   A 0.33 0.33 0.0 0 0 439.36 644.22   L 390.26 644.18   Z   M 495.64 659.20   A 0.30 0.30 0.0 0 0 495.93 658.82   L 491.80 644.38   A 0.30 0.30 0.0 0 0 491.51 644.16   L 443.34 644.10   A 0.30 0.30 0.0 0 0 443.04 644.39   L 442.77 658.83   A 0.30 0.30 0.0 0 0 443.07 659.14   L 495.64 659.20   Z   M 550.85 659.43   A 0.35 0.35 0.0 0 0 551.16 658.92   L 543.68 644.25   A 0.35 0.35 0.0 0 0 543.37 644.06   L 495.84 643.94   A 0.35 0.35 0.0 0 0 495.50 644.39   L 499.58 658.94   A 0.35 0.35 0.0 0 0 499.91 659.19   L 550.85 659.43   Z   M 283.83 644.37   A 0.32 0.32 0.0 0 0 283.55 644.54   L 276.04 658.36   A 0.32 0.32 0.0 0 0 276.32 658.83   L 329.54 658.81   A 0.32 0.32 0.0 0 0 329.85 658.56   L 332.85 644.84   A 0.32 0.32 0.0 0 0 332.53 644.45   L 283.83 644.37   Z   M 336.56 644.32   A 0.31 0.31 0.0 0 0 336.26 644.57   L 333.39 658.54   A 0.31 0.31 0.0 0 0 333.69 658.91   L 384.70 658.91   A 0.31 0.31 0.0 0 0 385.01 658.63   L 386.47 644.62   A 0.31 0.31 0.0 0 0 386.17 644.28   L 336.56 644.32   Z" />
<path d="   M 843.86 639.00   Q 843.04 636.85 837.90 635.66   A 0.37 0.36 3.5 0 1 837.62 635.35   Q 837.49 634.30 838.96 634.20   A 2.06 1.92 47.0 0 1 839.52 634.24   Q 847.32 635.78 855.65 638.62   C 857.47 639.24 858.02 640.83 858.06 642.58   Q 858.10 643.85 856.82 643.87   L 842.98 644.12   Q 842.15 644.13 842.77 643.58   Q 844.87 641.68 843.86 639.00   Z" />
<path d="   M 847.15 647.54   Q 856.64 647.01 847.24 648.41   Q 822.29 652.13 798.33 655.39   Q 795.52 655.77 793.04 655.07   Q 786.58 653.22 779.93 651.88   Q 770.42 649.95 780.12 649.91   C 803.37 649.82 825.61 648.74 847.15 647.54   Z" />
<path d="   M 859.73 655.36   L 798.49 661.45   Q 797.98 661.50 797.97 660.99   L 797.93 659.54   A 0.73 0.73 0.0 0 1 798.41 658.83   Q 799.99 658.29 801.44 658.09   Q 818.46 655.79 834.56 653.66   Q 847.02 652.00 858.45 650.00   Q 859.21 649.87 859.39 650.62   L 860.33 654.51   Q 860.52 655.28 859.73 655.36   Z" />
</g>
<g fill="#fffafb" id="Group-000000">
<path d="   M 834.96 644.58   Q 831.13 643.56 826.74 642.93   Q 824.83 642.65 823.35 641.56   A 1.86 1.86 0.0 0 1 822.74 639.37   C 824.29 635.58 828.24 635.92 831.49 634.95   A 0.58 0.57 -25.7 0 0 831.80 634.08   Q 831.71 633.95 831.58 633.87   Q 830.77 633.36 829.89 633.43   C 826.29 633.73 822.65 634.45 819.00 634.83   Q 792.67 637.53 764.46 640.39   A 0.37 0.37 0.0 0 0 764.14 640.84   Q 764.90 643.73 766.69 646.11   Q 766.99 646.51 766.88 647.00   Q 766.61 648.19 767.05 649.29   Q 774.44 667.54 781.81 686.70   Q 782.95 689.66 784.75 692.53   A 1.19 1.17 35.1 0 1 784.91 693.41   Q 783.37 700.64 782.61 708.23   A 1.20 1.19 -89.4 0 1 781.52 709.31   L 780.98 709.35   A 1.64 1.64 0.0 0 1 779.24 707.45   L 781.46 693.98   Q 781.59 693.21 780.81 693.22   Q 766.71 693.40 752.27 693.42   Q 520.42 693.72 251.75 693.33   Q 238.54 693.31 226.55 693.43   Q 225.58 693.44 225.79 694.38   Q 227.46 702.04 228.11 708.42   Q 228.21 709.41 227.22 709.43   L 226.14 709.45   Q 225.29 709.47 225.16 708.62   L 222.82 693.25   Q 222.74 692.72 222.97 692.24   C 223.50 691.09 224.53 690.11 225.18 688.96   Q 241.95 659.42 260.44 627.49   A 0.24 0.24 0.0 0 0 260.24 627.13   Q 255.59 626.91 251.20 627.14   C 240.59 627.71 238.92 621.04 240.31 612.21   Q 240.43 611.43 239.88 610.87   Q 236.28 607.17 233.99 601.87   A 0.92 0.92 0.0 0 0 233.15 601.32   L 183.51 601.19   A 1.27 1.27 0.0 0 0 182.26 602.23   L 176.23 634.36   Q 176.13 634.89 175.68 635.17   Q 174.66 635.82 173.45 636.16   Q 166.45 638.14 158.83 638.75   Q 141.76 640.10 126.58 637.83   Q 121.91 637.14 117.66 635.52   A 1.45 1.45 0.0 0 1 116.76 634.44   L 110.66 602.10   A 1.14 1.14 0.0 0 0 109.55 601.17   L 4.17 601.06   A 1.21 1.20 -1.3 0 1 2.97 599.92   L 2.92 598.99   Q 2.87 597.84 4.01 597.84   L 109.05 597.79   Q 109.88 597.79 109.73 596.97   L 98.14 534.71   A 0.61 0.59 -27.7 0 1 98.31 534.19   C 101.38 531.21 107.20 529.83 111.34 529.15   Q 125.02 526.91 140.73 526.85   Q 141.28 526.85 141.18 526.31   Q 140.33 521.73 139.99 517.25   Q 138.68 499.98 137.83 482.89   Q 137.66 479.54 141.01 479.39   L 142.99 479.30   Q 146.33 479.15 146.58 482.49   L 149.77 526.07   Q 149.83 526.81 150.57 526.81   L 158.40 526.80   Q 158.99 526.80 159.09 526.22   L 165.84 487.14   A 1.32 1.31 -80.5 0 1 167.34 486.06   L 177.11 487.62   Q 178.36 487.82 178.15 489.07   L 171.96 527.32   Q 171.86 527.88 172.43 527.93   C 177.11 528.38 191.96 530.05 194.69 534.43   Q 194.93 534.81 194.85 535.26   L 183.21 597.24   A 0.55 0.54 -84.7 0 0 183.74 597.89   L 231.76 598.07   A 0.48 0.47 78.7 0 0 232.20 597.40   Q 226.81 585.12 226.88 572.87   C 226.96 556.38 233.22 540.76 250.03 535.66   Q 260.82 532.39 271.78 533.22   A 0.57 0.56 2.4 0 0 272.39 532.67   Q 273.56 454.18 274.47 378.00   C 274.53 372.84 274.40 366.95 275.98 362.21   C 281.05 347.04 300.01 340.94 314.59 340.92   Q 511.59 340.69 688.69 340.21   Q 699.16 340.18 706.53 340.56   C 724.03 341.46 745.55 349.72 745.78 370.79   Q 747.05 484.09 748.36 596.74   A 0.88 0.88 0.0 0 0 749.24 597.61   L 848.48 597.55   A 0.47 0.47 0.0 0 0 848.94 596.98   Q 844.63 575.49 840.17 552.30   Q 839.92 550.96 840.73 550.20   C 845.03 546.18 854.71 544.87 860.49 544.15   Q 877.14 542.07 890.23 541.83   Q 890.78 541.82 890.62 541.28   Q 889.37 537.28 885.70 535.32   Q 881.15 532.89 876.78 530.29   C 871.29 527.03 866.00 520.17 869.08 513.63   Q 869.51 512.71 868.58 513.10   Q 862.86 515.46 856.87 517.12   C 844.10 520.66 830.27 518.19 821.34 508.46   Q 812.92 499.28 813.35 487.06   Q 813.98 469.08 829.87 460.82   Q 835.10 458.10 843.87 456.02   C 853.92 453.64 855.96 444.63 859.23 436.36   C 867.47 415.51 889.11 408.79 909.70 414.54   C 930.72 420.42 942.58 439.48 940.53 460.90   C 938.18 485.41 919.82 498.25 897.31 503.58   Q 896.63 503.74 896.68 504.43   Q 898.05 521.96 901.11 541.06   A 1.13 1.12 -5.2 0 0 902.26 542.01   L 905.27 541.94   A 0.90 0.89 2.6 0 0 906.14 541.15   Q 907.16 532.77 910.04 525.70   Q 910.24 525.20 909.89 524.79   Q 902.91 516.63 907.83 505.94   C 911.58 497.79 921.87 497.82 922.82 508.00   C 923.45 514.75 921.31 520.68 915.47 524.70   Q 913.25 526.23 912.53 528.30   Q 910.54 534.07 909.44 541.43   Q 909.35 541.99 909.92 542.00   Q 929.05 542.13 948.72 545.13   C 952.99 545.78 960.40 547.29 963.40 550.47   Q 963.80 550.90 963.69 551.47   L 955.06 597.28   Q 954.96 597.82 955.50 597.82   L 1019.35 597.83   Q 1020.25 597.83 1020.22 598.72   L 1020.16 600.25   Q 1020.13 601.13 1019.25 601.13   L 955.19 601.09   A 1.19 1.18 -84.7 0 0 954.03 602.06   L 939.23 681.00   A 1.91 1.90 87.0 0 1 937.89 682.49   C 933.60 683.77 929.34 684.76 924.84 685.24   Q 900.55 687.82 878.23 684.84   Q 872.94 684.13 867.55 682.55   A 3.04 3.04 0.0 0 1 865.43 680.23   L 861.33 659.48   A 1.26 1.25 81.6 0 0 859.98 658.47   L 798.62 664.71   Q 798.11 664.76 797.73 665.11   Q 797.55 665.28 797.43 665.49   Q 797.01 666.23 796.43 665.61   C 795.83 664.96 795.26 664.54 794.40 664.27   Q 784.42 661.14 774.71 658.78   Q 773.56 658.50 773.00 657.42   Q 772.91 657.24 772.87 657.03   Q 772.72 655.99 773.76 656.11   Q 783.27 657.18 794.08 661.00   Q 795.27 661.42 795.37 660.15   L 795.40 659.77   A 0.88 0.87 -78.3 0 0 794.82 658.88   Q 784.81 655.46 774.58 654.31   C 773.69 654.21 773.33 654.60 772.55 654.74   A 0.77 0.77 0.0 0 1 771.72 654.29   Q 769.47 648.97 768.36 647.55   Q 767.86 646.93 768.66 646.92   Q 803.50 646.54 828.75 645.31   Q 831.74 645.16 834.93 644.92   Q 835.93 644.84 834.96 644.58   Z   M 724.15 590.47   L 718.01 371.09   Q 717.99 370.57 717.47 370.56   Q 705.71 370.36 693.25 370.36   Q 499.69 370.34 299.34 370.42   A 0.55 0.55 0.0 0 0 298.79 370.96   Q 297.89 420.47 296.88 470.34   Q 296.67 480.76 296.32 490.27   Q 294.45 540.42 292.39 590.77   A 0.32 0.32 0.0 0 0 292.71 591.10   L 723.53 591.10   Q 724.17 591.10 724.15 590.47   Z   M 141.73 482.09   Q 140.96 482.35 140.98 483.17   Q 141.74 504.55 144.11 525.49   Q 144.26 526.78 145.07 528.34   Q 145.19 528.56 145.34 528.75   A 0.61 0.61 0.0 0 0 146.43 528.34   Q 145.20 504.55 143.24 483.08   A 1.08 1.05 15.6 0 0 142.81 482.34   Q 142.23 481.91 141.73 482.09   Z   M 174.5402 491.1004   A 0.79 0.79 0.0 0 0 173.8930 490.1897   L 169.5152 489.4493   A 0.79 0.79 0.0 0 0 168.6045 490.0965   L 166.2598 503.9596   A 0.79 0.79 0.0 0 0 166.9070 504.8703   L 171.2848 505.6107   A 0.79 0.79 0.0 0 0 172.1955 504.9635   L 174.5402 491.1004   Z   M 913.41 522.25   C 919.23 519.08 921.02 511.34 918.86 505.62   C 917.70 502.56 914.53 502.48 912.66 504.84   C 908.96 509.51 907.35 517.21 911.74 521.98   A 1.38 1.36 -35.4 0 0 913.41 522.25   Z   M 876.98 510.07   Q 876.04 510.36 877.00 510.57   C 884.29 512.18 888.52 520.36 889.73 527.05   C 890.64 532.12 890.83 537.22 894.66 541.19   Q 895.61 542.17 897.01 541.97   Q 897.59 541.89 897.52 541.31   L 893.30 505.68   Q 893.23 505.13 892.70 505.29   L 876.98 510.07   Z   M 171.6451 509.0918   A 0.26 0.26 0.0 0 0 171.4316 508.7925   L 165.8690 507.8616   A 0.26 0.26 0.0 0 0 165.5696 508.0751   L 161.6349 531.5882   A 0.26 0.26 0.0 0 0 161.8484 531.8875   L 167.4110 532.8184   A 0.26 0.26 0.0 0 0 167.7104 532.6049   L 171.6451 509.0918   Z   M 871.48 517.31   C 870.53 524.35 881.43 529.62 887.42 532.61   A 0.29 0.28 7.8 0 0 887.83 532.30   C 886.60 526.57 884.62 520.23 880.73 515.89   C 878.07 512.94 872.19 512.01 871.48 517.31   Z   M 158.61 534.98   A 1.19 1.19 0.0 0 1 157.59 533.58   L 158.13 530.56   Q 158.28 529.72 157.43 529.72   L 150.88 529.73   Q 149.74 529.74 149.56 530.86   L 148.83 535.47   A 0.83 0.82 84.3 0 1 148.32 536.10   C 145.93 537.04 143.82 532.59 142.89 530.91   A 1.97 1.97 0.0 0 0 141.15 529.90   Q 123.98 529.95 108.53 532.86   Q 105.11 533.50 102.41 535.12   A 0.39 0.38 40.3 0 0 102.47 535.81   C 109.34 538.52 117.55 539.45 124.92 539.92   Q 143.54 541.12 167.10 539.73   Q 175.55 539.23 184.01 537.48   Q 187.13 536.83 189.76 535.49   A 0.56 0.56 0.0 0 0 189.67 534.45   Q 181.88 532.04 172.53 530.94   A 1.14 1.13 -81.8 0 0 171.28 531.88   L 170.73 535.24   A 1.49 1.49 0.0 0 1 168.62 536.34   Q 167.75 535.93 166.76 535.84   Q 162.41 535.45 158.61 534.98   Z   M 232.68 556.50   C 227.99 570.37 229.67 583.07 234.91 596.18   Q 235.03 596.48 235.12 596.79   Q 235.50 598.09 236.83 598.11   Q 239.26 598.17 241.54 598.26   Q 242.19 598.29 242.19 597.64   C 242.14 584.02 241.97 567.17 254.81 558.71   Q 262.54 553.62 271.61 552.99   A 0.51 0.50 88.8 0 0 272.08 552.49   L 272.24 536.78   A 0.53 0.53 0.0 0 0 271.74 536.24   C 255.79 535.07 238.41 539.55 232.68 556.50   Z   M 190.43 539.06   Q 180.70 541.90 171.85 542.62   Q 147.51 544.63 121.69 542.75   Q 111.74 542.03 102.56 539.21   A 0.34 0.33 3.3 0 0 102.13 539.59   Q 110.34 583.30 118.51 626.62   Q 119.06 629.51 119.76 632.26   A 1.47 1.47 0.0 0 0 120.82 633.33   Q 127.15 635.03 133.65 635.60   Q 150.93 637.12 166.87 634.56   Q 169.64 634.11 172.22 633.22   A 2.20 2.19 86.1 0 0 173.67 631.55   L 190.75 539.35   Q 190.82 538.94 190.43 539.06   Z   M 907.00 550.66   A 1.31 1.31 0.0 0 1 905.85 549.50   L 905.43 545.82   Q 905.35 545.05 904.57 545.00   L 902.46 544.87   Q 901.61 544.81 901.84 545.63   Q 903.31 551.02 903.62 555.34   Q 903.73 556.92 902.18 556.57   L 901.64 556.45   Q 900.39 556.16 900.17 554.89   L 898.63 545.74   A 1.05 1.03 85.0 0 0 897.61 544.87   L 897.36 544.87   A 0.66 0.66 0.0 0 0 896.72 545.70   Q 897.86 550.08 898.14 554.65   A 0.87 0.87 0.0 0 1 897.65 555.48   Q 897.01 555.78 896.59 555.50   Q 895.68 554.91 895.43 553.86   Q 894.58 550.24 893.62 546.49   A 1.84 1.84 0.0 0 0 891.85 545.10   Q 870.77 545.04 851.20 548.89   Q 847.99 549.52 844.82 550.98   A 0.47 0.47 0.0 0 0 844.80 551.83   Q 847.11 553.02 849.67 553.64   Q 858.92 555.88 868.64 556.71   Q 890.67 558.60 914.99 557.99   Q 933.86 557.51 950.16 554.62   Q 954.58 553.83 958.56 551.83   A 0.52 0.51 -48.1 0 0 958.51 550.89   Q 953.24 548.88 947.41 548.05   Q 928.12 545.32 909.42 545.08   Q 908.77 545.07 908.75 545.72   L 908.62 549.75   Q 908.59 550.84 907.50 550.72   L 907.00 550.66   Z   M 959.49 555.28   C 952.59 557.78 945.28 559.01 937.87 559.64   Q 907.76 562.23 877.00 560.45   Q 864.29 559.71 853.25 557.82   Q 849.02 557.10 844.34 555.14   Q 843.75 554.89 843.87 555.53   L 868.21 678.47   A 1.73 1.73 0.0 0 0 869.38 679.78   Q 874.08 681.25 878.94 681.87   Q 896.83 684.17 916.37 682.97   Q 926.15 682.36 935.25 680.04   Q 935.78 679.90 936.03 679.42   Q 936.50 678.54 936.68 677.58   Q 947.99 617.65 959.76 555.50   A 0.20 0.20 0.0 0 0 959.49 555.28   Z   M 270.95 556.17   C 246.71 559.48 244.81 577.90 245.42 597.89   A 0.62 0.62 0.0 0 0 246.04 598.49   L 270.66 598.45   A 0.93 0.93 0.0 0 0 271.59 597.53   Q 271.85 578.82 271.99 557.76   Q 272.00 557.28 271.88 556.81   A 0.85 0.84 79.3 0 0 270.95 556.17   Z   M 750.21 601.66   Q 751.02 603.23 751.72 604.63   C 752.68 606.57 751.49 608.47 752.31 610.58   Q 757.37 623.70 762.80 637.04   A 0.77 0.76 -14.5 0 0 763.60 637.51   Q 795.52 634.01 824.25 631.03   C 833.23 630.10 840.61 630.53 848.54 633.16   Q 852.25 634.40 855.92 635.34   Q 856.56 635.51 856.43 634.86   L 849.79 601.97   A 1.36 1.36 0.0 0 0 848.46 600.88   L 750.74 600.80   Q 749.76 600.80 750.21 601.66   Z   M 241.18 606.76   A 0.51 0.50 -61.1 0 0 241.98 606.52   Q 242.67 604.33 241.89 601.78   Q 241.68 601.09 240.96 601.10   L 238.55 601.12   A 0.64 0.64 0.0 0 0 237.94 601.95   Q 238.79 604.74 241.18 606.76   Z   M 271.3018 602.4825   A 0.54 0.54 0.0 0 0 270.7627 601.9415   L 246.0828 601.8985   A 0.54 0.54 0.0 0 0 245.5418 602.4375   L 245.5382 604.5175   A 0.54 0.54 0.0 0 0 246.0773 605.0585   L 270.7572 605.1015   A 0.54 0.54 0.0 0 0 271.2982 604.5625   L 271.3018 602.4825   Z   M 743.77 605.70   A 0.61 0.61 0.0 0 0 743.16 605.09   L 278.94 605.09   A 0.61 0.61 0.0 0 0 278.33 605.70   L 278.33 607.60   A 0.61 0.61 0.0 0 0 278.94 608.21   L 743.16 608.21   A 0.61 0.61 0.0 0 0 743.77 607.60   L 743.77 605.70   Z   M 746.21 656.90   C 742.40 648.25 738.80 639.45 734.86 630.40   C 734.01 628.43 732.71 624.78 730.00 624.81   Q 609.39 626.16 458.57 626.97   C 449.42 627.02 434.36 626.89 422.25 627.11   Q 409.35 627.34 402.25 627.35   Q 346.44 627.40 289.86 627.88   Q 288.57 627.89 287.96 629.03   Q 281.57 640.90 274.77 653.21   C 274.06 654.49 273.60 655.94 272.86 657.22   C 271.44 659.68 272.92 662.31 275.76 662.32   Q 391.84 662.48 514.75 662.95   Q 636.81 663.42 742.72 662.80   C 746.75 662.78 747.73 660.34 746.21 656.90   Z   M 843.86 639.00   Q 844.87 641.68 842.77 643.58   Q 842.15 644.13 842.98 644.12   L 856.82 643.87   Q 858.10 643.85 858.06 642.58   C 858.02 640.83 857.47 639.24 855.65 638.62   Q 847.32 635.78 839.52 634.24   A 2.06 1.92 47.0 0 0 838.96 634.20   Q 837.49 634.30 837.62 635.35   A 0.37 0.36 3.5 0 0 837.90 635.66   Q 843.04 636.85 843.86 639.00   Z   M 847.15 647.54   C 825.61 648.74 803.37 649.82 780.12 649.91   Q 770.42 649.95 779.93 651.88   Q 786.58 653.22 793.04 655.07   Q 795.52 655.77 798.33 655.39   Q 822.29 652.13 847.24 648.41   Q 856.64 647.01 847.15 647.54   Z   M 798.49 661.45   L 859.73 655.36   Q 860.52 655.28 860.33 654.51   L 859.39 650.62   Q 859.21 649.87 858.45 650.00   Q 847.02 652.00 834.56 653.66   Q 818.46 655.79 801.44 658.09   Q 799.99 658.29 798.41 658.83   A 0.73 0.73 0.0 0 0 797.93 659.54   L 797.97 660.99   Q 797.98 661.50 798.49 661.45   Z" />
<rect x="-9.19" y="-5.55" transform="translate(319.22,380.19) rotate(0.3)" width="18.38" height="11.10" rx="5.20" />
<path d="   M 347.8203 381.9274   A 6.31 6.06 10.2 0 1 340.5369 386.7742   A 6.31 6.06 10.2 0 1 335.3997 379.6926   A 6.31 6.06 10.2 0 1 342.6831 374.8458   A 6.31 6.06 10.2 0 1 347.8203 381.9274   Z   M 344.60 381.01   A 2.91 2.91 0.0 0 0 341.69 378.10   A 2.91 2.91 0.0 0 0 338.78 381.01   A 2.91 2.91 0.0 0 0 341.69 383.92   A 2.91 2.91 0.0 0 0 344.60 381.01   Z" />
<path d="   M 697.33 381.19   A 6.18 6.18 0.0 0 1 691.15 387.37   A 6.18 6.18 0.0 0 1 684.97 381.19   A 6.18 6.18 0.0 0 1 691.15 375.01   A 6.18 6.18 0.0 0 1 697.33 381.19   Z   M 694.07 381.23   A 2.95 2.95 0.0 0 0 691.12 378.28   A 2.95 2.95 0.0 0 0 688.17 381.23   A 2.95 2.95 0.0 0 0 691.12 384.18   A 2.95 2.95 0.0 0 0 694.07 381.23   Z" />
<rect x="-10.24" y="-1.74" transform="translate(321.98,398.17) rotate(-0.3)" width="20.48" height="3.48" rx="1.25" />
<rect x="-10.27" y="-1.72" transform="translate(322.10,407.07) rotate(0.3)" width="20.54" height="3.44" rx="1.50" />
<path d="   M 640.40 484.30   C 640.20 484.76 640.20 485.16 639.92 485.60   Q 634.21 494.73 628.63 503.87   Q 628.31 504.39 627.58 504.36   A 0.90 0.89 75.2 0 1 626.86 503.94   L 614.72 484.36   A 1.47 1.47 0.0 0 0 613.47 483.66   Q 594.25 483.62 572.94 483.53   Q 566.67 483.50 566.71 477.46   Q 566.86 455.37 566.79 435.72   C 566.77 431.58 569.38 429.46 573.10 429.45   Q 630.94 429.37 687.46 429.46   C 691.02 429.47 693.34 431.94 693.34 435.41   Q 693.34 457.14 693.29 477.72   C 693.28 481.47 690.50 483.52 686.98 483.51   Q 662.76 483.49 641.43 483.62   A 1.15 1.14 -78.3 0 0 640.40 484.30   Z   M 690.0334 435.5352   A 2.83 2.83 0.0 0 0 687.1985 432.7101   L 572.7187 432.9099   A 2.83 2.83 0.0 0 0 569.8936 435.7449   L 569.9666 477.5648   A 2.83 2.83 0.0 0 0 572.8015 480.3899   L 687.2813 480.1901   A 2.83 2.83 0.0 0 0 690.1064 477.3551   L 690.0334 435.5352   Z   M 636.87 484.13   A 0.30 0.30 0.0 0 0 636.61 483.67   L 618.79 483.61   A 0.30 0.30 0.0 0 0 618.53 484.06   L 627.39 498.84   A 0.30 0.30 0.0 0 0 627.90 498.85   L 636.87 484.13   Z" />
<path d="   M 400.13 508.32   C 400.25 507.40 400.86 507.00 401.73 506.97   Q 439.00 505.55 474.25 504.00   A 0.93 0.93 0.0 0 1 475.23 504.96   Q 474.79 520.42 474.37 536.12   C 474.29 539.39 478.15 541.65 480.36 543.54   Q 483.93 546.58 479.25 546.79   Q 441.91 548.50 405.00 550.32   C 402.72 550.43 400.71 551.27 398.87 549.76   Q 395.12 546.68 391.29 543.43   A 4.69 4.68 -24.8 0 0 388.26 542.32   L 343.13 542.28   Q 341.98 542.28 342.01 541.13   L 342.03 540.49   Q 342.07 539.19 343.37 539.32   Q 344.02 539.38 344.57 539.09   Q 344.87 538.93 344.96 538.60   Q 347.97 528.16 351.45 516.92   C 353.04 511.81 355.56 505.95 360.89 504.48   Q 362.47 504.05 361.03 503.28   C 353.72 499.33 350.00 490.30 349.65 482.20   Q 349.36 475.69 349.26 468.26   A 5.60 5.56 -61.7 0 0 348.40 465.35   C 347.27 463.57 345.90 462.01 345.29 459.94   C 342.69 451.21 348.06 443.58 357.67 445.14   Q 358.70 445.31 358.85 444.28   C 360.13 435.37 368.85 430.68 376.06 437.10   Q 376.53 437.51 376.97 437.08   C 385.93 428.26 401.87 431.95 401.74 446.01   Q 401.73 446.71 402.42 446.82   C 408.92 447.95 411.64 454.27 409.11 460.26   C 408.92 460.70 408.57 461.14 408.11 461.33   Q 407.53 461.57 407.55 462.20   Q 407.98 475.62 407.06 484.50   Q 406.74 487.65 404.84 492.68   Q 402.09 499.96 395.52 503.37   A 0.55 0.55 0.0 0 0 395.46 504.31   Q 398.03 506.11 399.64 508.44   Q 400.03 509.01 400.13 508.32   Z   M 358.82 469.23   C 357.19 471.09 355.79 471.83 353.23 471.38   Q 352.48 471.25 352.49 472.00   C 352.63 484.92 353.15 496.23 365.60 502.43   C 368.29 503.77 370.80 504.91 373.83 505.19   C 386.34 506.32 399.33 501.55 402.85 488.92   Q 404.82 481.87 404.13 469.60   Q 404.09 468.99 403.50 469.12   Q 398.20 470.30 394.33 466.58   Q 393.87 466.14 393.41 466.58   C 388.80 471.01 384.37 473.36 378.31 470.29   C 376.86 469.55 375.63 468.16 374.48 467.01   Q 374.02 466.55 373.63 467.07   C 370.16 471.77 364.35 474.47 359.70 469.23   Q 359.26 468.73 358.82 469.23   Z   M 376.51 515.92   C 374.36 514.05 372.73 511.78 372.22 508.91   A 1.13 1.12 89.9 0 0 371.32 508.00   L 363.67 506.57   Q 363.18 506.48 362.71 506.66   Q 357.83 508.57 355.99 513.79   Q 351.65 526.12 348.31 538.82   A 0.43 0.42 -83.0 0 0 348.72 539.35   L 370.43 539.28   A 0.93 0.92 7.9 0 0 371.32 538.61   Q 373.80 529.44 376.66 519.44   Q 377.00 518.23 377.00 516.99   Q 377.00 516.34 376.51 515.92   Z   M 386.83 508.27   C 386.33 511.26 384.85 514.07 382.47 515.95   A 1.10 1.10 0.0 0 0 382.11 517.13   L 387.73 535.26   A 1.22 1.22 0.0 0 0 389.01 536.12   L 398.29 535.27   Q 398.87 535.21 398.86 534.64   Q 398.83 523.69 398.58 512.85   Q 398.54 511.09 397.47 509.84   Q 393.48 505.16 387.46 507.49   Q 386.92 507.70 386.83 508.27   Z   M 470.66 543.96   A 0.40 0.40 0.0 0 0 471.04 543.57   L 472.14 507.68   A 0.40 0.40 0.0 0 0 471.72 507.27   L 402.14 510.16   A 0.40 0.40 0.0 0 0 401.75 510.57   L 401.94 547.06   A 0.40 0.40 0.0 0 0 402.36 547.46   L 470.66 543.96   Z   M 381.66 508.23   L 376.95 508.44   A 0.71 0.71 0.0 0 0 376.27 509.18   L 376.28 509.39   A 4.26 3.03 87.5 0 0 379.49 513.51   L 379.57 513.51   A 4.26 3.03 87.5 0 0 382.41 509.12   L 382.41 508.91   A 0.71 0.71 0.0 0 0 381.66 508.23   Z   M 374.68 538.60   A 0.50 0.50 0.0 0 0 375.16 539.23   L 385.16 539.28   A 0.50 0.50 0.0 0 0 385.64 538.62   L 380.15 521.74   A 0.50 0.50 0.0 0 0 379.19 521.77   L 374.68 538.60   Z   M 392.00 539.14   A 0.32 0.32 0.0 0 0 391.82 539.69   L 398.23 545.45   A 0.32 0.32 0.0 0 0 398.76 545.21   L 398.76 538.76   A 0.32 0.32 0.0 0 0 398.41 538.44   L 392.00 539.14   Z   M 473.67 542.26   Q 473.35 543.46 474.55 543.95   A 0.47 0.46 11.4 0 0 475.19 543.53   Q 475.22 542.34 474.15 542.00   Q 473.77 541.88 473.67 542.26   Z" />
<rect x="-26.55" y="-1.86" transform="translate(619.58,451.10) rotate(-0.1)" width="53.10" height="3.72" rx="1.00" />
<rect x="592.92" y="460.78" width="53.06" height="3.64" rx="1.02" />
<ellipse cx="0.00" cy="0.00" transform="translate(388.53,479.99) rotate(86.0)" rx="4.95" ry="3.60" />
<rect x="-3.46" y="-4.81" transform="translate(365.47,481.05) rotate(-2.8)" width="6.92" height="9.62" rx="3.20" />
<path d="   M 549.33 533.31   A 0.46 0.45 44.0 0 0 549.35 534.15   C 560.88 538.84 563.97 554.28 565.62 565.42   A 1.41 1.41 0.0 0 1 564.32 567.04   L 563.63 567.08   A 1.17 1.16 85.5 0 1 562.39 566.01   Q 561.18 552.65 555.97 543.83   Q 551.69 536.60 544.12 535.92   Q 542.55 535.78 542.49 537.35   C 542.34 541.31 542.67 544.31 538.41 546.32   C 535.15 547.87 531.13 545.82 529.72 542.77   C 528.79 540.79 529.06 538.52 529.17 536.39   A 0.69 0.69 0.0 0 0 528.43 535.67   C 513.86 536.80 510.26 554.41 509.18 565.81   A 1.20 1.20 0.0 0 1 507.93 566.90   L 507.02 566.86   A 1.10 1.09 -85.8 0 1 505.98 565.65   Q 506.93 556.69 510.08 547.82   Q 513.87 537.10 522.79 533.50   A 0.66 0.65 -44.7 0 0 522.80 532.29   Q 512.62 527.98 511.47 516.57   C 509.81 500.11 511.07 482.47 530.30 477.87   C 538.48 475.92 547.37 479.89 553.16 485.72   Q 560.09 492.69 562.06 503.67   Q 562.30 505.04 561.00 505.53   A 0.49 0.49 0.0 0 0 560.85 506.35   L 561.69 507.09   A 1.15 1.13 22.4 0 1 562.07 507.98   C 561.70 519.13 560.45 528.41 549.33 533.31   Z   M 540.51 533.09   C 548.96 531.74 556.12 526.99 557.79 518.30   Q 558.66 513.78 558.85 509.07   A 0.87 0.86 -81.5 0 0 558.22 508.21   Q 551.79 506.43 545.05 504.99   Q 531.19 502.02 523.73 491.95   Q 523.25 491.31 522.93 492.04   Q 520.44 497.76 516.20 502.42   C 512.90 506.05 514.01 513.12 514.78 517.50   C 516.39 526.59 524.23 530.73 532.30 533.25   A 0.87 0.86 12.5 0 1 532.90 534.18   Q 532.49 537.46 532.62 540.42   Q 532.76 543.64 535.97 543.35   L 536.68 543.29   Q 538.93 543.09 539.06 540.82   L 539.41 534.31   A 1.31 1.30 87.3 0 1 540.51 533.09   Z" />
<path d="   M 377.44 488.71   C 378.59 490.54 379.48 491.11 381.71 491.00   Q 382.89 490.95 382.45 492.05   Q 381.26 495.03 378.05 494.09   Q 374.66 493.10 374.81 489.64   Q 374.84 488.91 375.42 488.48   Q 375.97 488.07 376.67 488.19   Q 377.16 488.28 377.44 488.71   Z" />
<rect x="-3.10" y="-4.69" transform="translate(545.93,511.41) rotate(2.9)" width="6.20" height="9.38" rx="2.86" />
<rect x="-3.42" y="-4.79" transform="translate(523.23,511.95) rotate(-4.1)" width="6.84" height="9.58" rx="3.17" />
<path d="   M 536.01 521.17   C 537.32 521.00 537.68 519.96 538.41 519.09   Q 539.15 518.20 540.28 518.45   L 541.82 518.80   Q 542.98 519.06 542.40 520.09   C 539.40 525.47 533.65 526.05 529.46 521.68   Q 528.48 520.66 529.11 519.25   Q 529.22 519.00 529.49 518.93   Q 531.41 518.39 532.53 519.78   Q 533.87 521.44 536.01 521.17   Z" />
<ellipse cx="0.00" cy="0.00" transform="translate(420.59,527.13) rotate(-9.4)" rx="8.33" ry="7.91" />
<ellipse cx="0.00" cy="0.00" transform="translate(453.50,529.40) rotate(-25.3)" rx="9.75" ry="8.07" />
<circle cx="436.98" cy="529.43" r="2.95" />
<path d="   M 683.15 628.71   L 730.03 628.48   A 0.35 0.35 0.0 0 1 730.35 628.70   L 734.98 639.66   A 0.35 0.35 0.0 0 1 734.65 640.15   L 691.58 640.15   A 0.35 0.35 0.0 0 1 691.30 640.02   L 682.87 629.27   A 0.35 0.35 0.0 0 1 683.15 628.71   Z" />
<path d="   M 686.18 640.40   L 641.60 640.33   A 0.32 0.32 0.0 0 1 641.35 640.22   L 632.55 629.71   A 0.32 0.32 0.0 0 1 632.79 629.19   L 678.45 628.99   A 0.32 0.32 0.0 0 1 678.72 629.12   L 686.44 639.89   A 0.32 0.32 0.0 0 1 686.18 640.40   Z" />
<path d="   M 635.75 640.52   L 591.58 640.33   A 0.48 0.48 0.0 0 1 591.21 640.15   L 583.52 630.24   A 0.48 0.48 0.0 0 1 583.90 629.46   L 628.08 629.65   A 0.48 0.48 0.0 0 1 628.45 629.84   L 636.13 639.74   A 0.48 0.48 0.0 0 1 635.75 640.52   Z" />
<path d="   M 586.01 640.47   L 546.42 640.23   A 0.33 0.33 0.0 0 1 546.13 640.07   L 540.39 630.37   A 0.33 0.33 0.0 0 1 540.68 629.87   L 579.08 629.90   A 0.33 0.33 0.0 0 1 579.35 630.04   L 586.28 639.95   A 0.33 0.33 0.0 0 1 586.01 640.47   Z" />
<path d="   M 541.30 640.63   L 494.88 640.41   A 0.43 0.43 0.0 0 1 494.47 640.11   L 491.48 630.76   A 0.43 0.43 0.0 0 1 491.89 630.20   L 536.23 630.06   A 0.43 0.43 0.0 0 1 536.61 630.29   L 541.68 640.00   A 0.43 0.43 0.0 0 1 541.30 640.63   Z" />
<path d="   M 444.26 630.39   L 487.50 630.22   A 0.49 0.49 0.0 0 1 487.97 630.57   L 490.85 639.99   A 0.49 0.49 0.0 0 1 490.38 640.62   L 443.95 640.60   A 0.49 0.49 0.0 0 1 443.46 640.09   L 443.77 630.86   A 0.49 0.49 0.0 0 1 444.26 630.39   Z" />
<path d="   M 392.51 630.77   L 439.70 630.51   A 0.82 0.82 0.0 0 1 440.53 631.36   L 440.29 639.81   A 0.82 0.82 0.0 0 1 439.48 640.60   L 391.53 640.80   A 0.82 0.82 0.0 0 1 390.71 639.88   L 391.70 631.49   A 0.82 0.82 0.0 0 1 392.51 630.77   Z" />
<path d="   M 339.65 630.79   L 387.53 630.86   A 0.63 0.63 0.0 0 1 388.16 631.56   L 387.13 640.17   A 0.63 0.63 0.0 0 1 386.50 640.72   L 337.82 640.89   A 0.63 0.63 0.0 0 1 337.20 640.13   L 339.04 631.29   A 0.63 0.63 0.0 0 1 339.65 630.79   Z" />
<path d="   M 285.86 640.20   L 290.57 631.52   Q 290.87 630.97 291.49 630.97   L 334.23 631.01   Q 335.47 631.01 335.28 632.23   L 334.10 639.53   A 1.64 1.63 4.5 0 1 332.48 640.90   L 286.34 641.02   Q 285.41 641.03 285.86 640.20   Z" />
<path d="   M 693.91 643.64   L 736.39 643.69   A 0.33 0.33 0.0 0 1 736.69 643.88   L 743.45 658.67   A 0.33 0.33 0.0 0 1 743.15 659.14   L 705.51 659.24   A 0.33 0.33 0.0 0 1 705.25 659.11   L 693.64 644.17   A 0.33 0.33 0.0 0 1 693.91 643.64   Z" />
<path d="   M 598.76 659.82   L 555.55 659.44   A 0.35 0.35 0.0 0 1 555.24 659.25   L 547.70 644.37   A 0.35 0.35 0.0 0 1 548.01 643.86   L 589.20 643.97   A 0.35 0.35 0.0 0 1 589.49 644.13   L 599.06 659.29   A 0.35 0.35 0.0 0 1 598.76 659.82   Z" />
<path d="   M 651.16 659.83   L 603.73 659.59   A 0.41 0.41 0.0 0 1 603.39 659.40   L 593.72 644.47   A 0.41 0.41 0.0 0 1 594.07 643.83   L 639.47 644.00   A 0.41 0.41 0.0 0 1 639.79 644.16   L 651.48 659.16   A 0.41 0.41 0.0 0 1 651.16 659.83   Z" />
<path d="   M 644.65 643.86   L 688.91 643.85   A 0.30 0.30 0.0 0 1 689.15 643.97   L 700.84 659.18   A 0.30 0.30 0.0 0 1 700.60 659.66   L 656.33 659.67   A 0.30 0.30 0.0 0 1 656.09 659.55   L 644.41 644.34   A 0.30 0.30 0.0 0 1 644.65 643.86   Z" />
<path d="   M 390.26 644.18   L 439.36 644.22   A 0.33 0.33 0.0 0 1 439.69 644.56   L 439.30 658.76   A 0.33 0.33 0.0 0 1 438.97 659.08   L 388.75 658.98   A 0.33 0.33 0.0 0 1 388.42 658.62   L 389.93 644.48   A 0.33 0.33 0.0 0 1 390.26 644.18   Z" />
<path d="   M 495.64 659.20   L 443.07 659.14   A 0.30 0.30 0.0 0 1 442.77 658.83   L 443.04 644.39   A 0.30 0.30 0.0 0 1 443.34 644.10   L 491.51 644.16   A 0.30 0.30 0.0 0 1 491.80 644.38   L 495.93 658.82   A 0.30 0.30 0.0 0 1 495.64 659.20   Z" />
<path d="   M 550.85 659.43   L 499.91 659.19   A 0.35 0.35 0.0 0 1 499.58 658.94   L 495.50 644.39   A 0.35 0.35 0.0 0 1 495.84 643.94   L 543.37 644.06   A 0.35 0.35 0.0 0 1 543.68 644.25   L 551.16 658.92   A 0.35 0.35 0.0 0 1 550.85 659.43   Z" />
<path d="   M 283.83 644.37   L 332.53 644.45   A 0.32 0.32 0.0 0 1 332.85 644.84   L 329.85 658.56   A 0.32 0.32 0.0 0 1 329.54 658.81   L 276.32 658.83   A 0.32 0.32 0.0 0 1 276.04 658.36   L 283.55 644.54   A 0.32 0.32 0.0 0 1 283.83 644.37   Z" />
<path d="   M 336.56 644.32   L 386.17 644.28   A 0.31 0.31 0.0 0 1 386.47 644.62   L 385.01 658.63   A 0.31 0.31 0.0 0 1 384.70 658.91   L 333.69 658.91   A 0.31 0.31 0.0 0 1 333.39 658.54   L 336.26 644.57   A 0.31 0.31 0.0 0 1 336.56 644.32   Z" />
<path d="   M 235.65 703.99   Q 246.12 700.31 258.49 700.31   Q 502.65 700.27 747.29 700.23   C 755.87 700.23 762.82 701.23 770.82 703.40   Q 775.02 704.53 773.54 708.80   Q 773.30 709.48 772.57 709.48   L 235.76 709.47   Q 235.06 709.47 234.98 708.77   L 234.62 705.65   A 1.57 1.56 -13.3 0 1 235.65 703.99   Z" />
<path d="   M 1023.32 789.85   L 3.34 789.85   A 0.42 0.42 0.0 0 1 2.92 789.43   L 2.92 733.57   A 0.42 0.42 0.0 0 1 3.34 733.15   L 1023.32 733.15   A 0.42 0.42 0.0 0 1 1023.74 733.57   L 1023.74 789.43   A 0.42 0.42 0.0 0 1 1023.32 789.85   Z" />
<path d="   M 888.69 1024.00   L 847.48 1024.00   L 850.51 792.33   A 0.67 0.66 0.4 0 1 851.18 791.68   L 876.74 791.69   A 0.72 0.71 -1.2 0 1 877.46 792.37   L 888.69 1024.00   Z" />
<path d="   M 182.03 1024.00   L 139.83 1024.00   L 143.11 793.81   Q 143.12 793.03 143.91 793.03   L 170.09 793.12   A 0.77 0.77 0.0 0 1 170.86 793.85   L 182.03 1024.00   Z" />
</g>
</g></svg>